<?xml version="1.0" encoding="UTF-8" standalone="no"?>
<!-- Created with Inkscape (http://www.inkscape.org/) -->

<svg
   xmlns:dc="http://purl.org/dc/elements/1.1/"
   xmlns:cc="http://creativecommons.org/ns#"
   xmlns:rdf="http://www.w3.org/1999/02/22-rdf-syntax-ns#"
   xmlns:svg="http://www.w3.org/2000/svg"
   xmlns="http://www.w3.org/2000/svg"
   xmlns:xlink="http://www.w3.org/1999/xlink"
   xmlns:sodipodi="http://sodipodi.sourceforge.net/DTD/sodipodi-0.dtd"
   xmlns:inkscape="http://www.inkscape.org/namespaces/inkscape"
   version="1.0"
   width="300"
   height="290"
   id="svg2"
   inkscape:version="0.91 r13725"
   sodipodi:docname="TUX_VT_NERD_60x60.svg"
   inkscape:export-filename="C:\Users\Johan\Google Drive\Inkscape_libraries\Linux_TUX\tux_nerd_bgr_trnsp.png"
   inkscape:export-xdpi="92"
   inkscape:export-ydpi="92">
  <metadata
     id="metadata66">
    <rdf:RDF>
      <cc:Work
         rdf:about="">
        <dc:format>image/svg+xml</dc:format>
        <dc:type
           rdf:resource="http://purl.org/dc/dcmitype/StillImage" />
        <dc:title></dc:title>
      </cc:Work>
    </rdf:RDF>
  </metadata>
  <sodipodi:namedview
     pagecolor="#ffffff"
     bordercolor="#666666"
     borderopacity="1"
     objecttolerance="10"
     gridtolerance="10"
     guidetolerance="10"
     inkscape:pageopacity="0"
     inkscape:pageshadow="2"
     inkscape:window-width="1858"
     inkscape:window-height="1057"
     id="namedview64"
     showgrid="false"
     inkscape:zoom="2.0259398"
     inkscape:cx="139.84992"
     inkscape:cy="89.834852"
     inkscape:window-x="54"
     inkscape:window-y="-8"
     inkscape:window-maximized="1"
     inkscape:current-layer="layer11" />
  <defs
     id="defs4">
    <linearGradient
       id="linearGradient23837">
      <stop
         id="stop23839"
         style="stop-color:#ffba00;stop-opacity:1"
         offset="0" />
      <stop
         id="stop23841"
         style="stop-color:#ffffba;stop-opacity:1"
         offset="1" />
    </linearGradient>
    <linearGradient
       id="linearGradient10084">
      <stop
         id="stop10086"
         style="stop-color:#000000;stop-opacity:1"
         offset="0" />
      <stop
         id="stop10088"
         style="stop-color:#000000;stop-opacity:0"
         offset="1" />
    </linearGradient>
    <linearGradient
       id="linearGradient5197">
      <stop
         id="stop5199"
         style="stop-color:#000000;stop-opacity:1"
         offset="0" />
      <stop
         id="stop5201"
         style="stop-color:#ffffff;stop-opacity:1"
         offset="1" />
    </linearGradient>
    <linearGradient
       id="linearGradient3225">
      <stop
         id="stop3227"
         style="stop-color:#000000;stop-opacity:0.71951222"
         offset="0" />
      <stop
         id="stop3229"
         style="stop-color:#ffffff;stop-opacity:0"
         offset="1" />
    </linearGradient>
    <linearGradient
       x1="263.61029"
       y1="435.38452"
       x2="358.50229"
       y2="314.54004"
       id="linearGradient7163"
       xlink:href="#linearGradient5197"
       gradientUnits="userSpaceOnUse"
       spreadMethod="reflect"
       gradientTransform="matrix(1.6598,0,0,1.56716,-315.876,-358.607)" />
    <linearGradient
       x1="353.82788"
       y1="353.77969"
       x2="370.98239"
       y2="331.95367"
       id="linearGradient10090"
       xlink:href="#linearGradient5197"
       gradientUnits="userSpaceOnUse"
       gradientTransform="matrix(1.79043,0,0,1.59149,-364.696,-368.042)" />
    <linearGradient
       x1="353.82788"
       y1="353.77969"
       x2="370.98239"
       y2="331.95367"
       id="linearGradient10111"
       xlink:href="#linearGradient5197"
       gradientUnits="userSpaceOnUse" />
    <linearGradient
       x1="283.11636"
       y1="420.78415"
       x2="450.77399"
       y2="341.96973"
       id="linearGradient11090"
       xlink:href="#linearGradient5197"
       gradientUnits="userSpaceOnUse"
       gradientTransform="matrix(1.77809,0,0,1.90379,-374.546,-475.5499)" />
    <linearGradient
       x1="278.7821"
       y1="598.48175"
       x2="300.01877"
       y2="538.17981"
       id="linearGradient23835"
       xlink:href="#linearGradient23837"
       gradientUnits="userSpaceOnUse"
       gradientTransform="matrix(1.73482,0,0,1.89055,-333.706,-549.362)" />
    <linearGradient
       x1="278.7821"
       y1="598.48175"
       x2="300.01877"
       y2="538.17981"
       id="linearGradient3203"
       xlink:href="#linearGradient23837"
       gradientUnits="userSpaceOnUse"
       gradientTransform="matrix(1.73482,0,0,1.89055,-52.552,-549.362)" />
    <linearGradient
       x1="375.17139"
       y1="481.12695"
       x2="375.17139"
       y2="627.55237"
       id="linearGradient5169"
       xlink:href="#linearGradient3225"
       gradientUnits="userSpaceOnUse" />
    <linearGradient
       x1="374.40475"
       y1="322.73111"
       x2="376.95914"
       y2="480.08231"
       id="linearGradient3323"
       xlink:href="#linearGradient3225"
       gradientUnits="userSpaceOnUse"
       gradientTransform="matrix(1.02355,0,0,1.05045,-12.2001,-42.4158)" />
    <linearGradient
       x1="380.47522"
       y1="608.65906"
       x2="381.77103"
       y2="498.26285"
       id="linearGradient3331"
       xlink:href="#linearGradient3225"
       gradientUnits="userSpaceOnUse" />
    <linearGradient
       x1="351.30554"
       y1="540.31189"
       x2="353.6087"
       y2="645.33484"
       id="linearGradient3347"
       xlink:href="#linearGradient3225"
       gradientUnits="userSpaceOnUse" />
    <linearGradient
       x1="353.82788"
       y1="353.77969"
       x2="370.98239"
       y2="331.95367"
       id="linearGradient2254"
       xlink:href="#linearGradient5197"
       gradientUnits="userSpaceOnUse" />
    <linearGradient
       x1="416.03726"
       y1="314.99216"
       x2="416.67383"
       y2="287.50903"
       id="linearGradient2365"
       xlink:href="#linearGradient5197"
       gradientUnits="userSpaceOnUse"
       gradientTransform="matrix(1.59149,0,0,1.59149,-290.406,-368.042)" />
    <linearGradient
       x1="333.62714"
       y1="305.53073"
       x2="338.83194"
       y2="276.24545"
       id="linearGradient2368"
       xlink:href="#linearGradient5197"
       gradientUnits="userSpaceOnUse"
       gradientTransform="matrix(1.59149,0,0,1.59149,-290.406,-368.042)" />
    <linearGradient
       x1="379.11264"
       y1="378.87973"
       x2="383.80917"
       y2="225.32318"
       id="linearGradient2371"
       xlink:href="#linearGradient5197"
       gradientUnits="userSpaceOnUse"
       gradientTransform="matrix(1.59149,0,0,1.59149,-290.406,-368.042)"
       spreadMethod="repeat" />
    <linearGradient
       x1="267.00482"
       y1="450.1579"
       x2="195.34068"
       y2="423.26831"
       id="linearGradient2375"
       xlink:href="#linearGradient5197"
       gradientUnits="userSpaceOnUse"
       gradientTransform="matrix(1.59149,0,0,1.59149,-290.406,-368.042)" />
    <linearGradient
       x1="346.8956"
       y1="409.87292"
       x2="406.49899"
       y2="371.66501"
       id="linearGradient2379"
       xlink:href="#linearGradient23837"
       gradientUnits="userSpaceOnUse"
       gradientTransform="matrix(1.59149,0,0,1.59149,-290.406,-368.042)" />
    <linearGradient
       x1="228.8004"
       y1="401.76709"
       x2="361.57016"
       y2="343.16568"
       id="linearGradient2382"
       xlink:href="#linearGradient5197"
       gradientUnits="userSpaceOnUse"
       gradientTransform="matrix(1.59149,0,0,1.59149,-290.406,-368.042)" />
    <linearGradient
       x1="335.76212"
       y1="383.67514"
       x2="432.98227"
       y2="334.34232"
       id="linearGradient2385"
       xlink:href="#linearGradient5197"
       gradientUnits="userSpaceOnUse"
       gradientTransform="matrix(1.59149,0,0,1.59149,-290.406,-368.042)" />
    <linearGradient
       x1="584.44714"
       y1="496.83411"
       x2="411.60892"
       y2="312.98669"
       id="linearGradient2388"
       xlink:href="#linearGradient5197"
       gradientUnits="userSpaceOnUse"
       gradientTransform="matrix(1.59149,0,0,1.59149,-290.406,-368.042)" />
    <linearGradient
       x1="533.03326"
       y1="446.52438"
       x2="547.33417"
       y2="428.58325"
       id="linearGradient2392"
       xlink:href="#linearGradient3225"
       gradientUnits="userSpaceOnUse"
       gradientTransform="matrix(1.59149,0,0,1.59149,-290.406,-368.042)" />
    <linearGradient
       x1="263.61029"
       y1="435.38452"
       x2="358.50229"
       y2="314.54004"
       id="linearGradient7163-2"
       xlink:href="#linearGradient5197"
       gradientUnits="userSpaceOnUse"
       spreadMethod="reflect"
       gradientTransform="matrix(1.6598,0,0,1.56716,-315.876,-358.60059)" />
    <linearGradient
       x1="283.11636"
       y1="420.78415"
       x2="450.77399"
       y2="341.96973"
       id="linearGradient11090-4"
       xlink:href="#linearGradient5197"
       gradientUnits="userSpaceOnUse"
       gradientTransform="matrix(1.77809,0,0,1.90379,-374.546,-475.5499)" />
    <linearGradient
       x1="335.76212"
       y1="383.67514"
       x2="432.98227"
       y2="334.34232"
       id="linearGradient2385-0"
       xlink:href="#linearGradient5197"
       gradientUnits="userSpaceOnUse"
       gradientTransform="matrix(1.59149,0,0,1.59149,-290.406,-368.042)" />
    <linearGradient
       x1="584.44714"
       y1="496.83411"
       x2="411.60892"
       y2="312.98669"
       id="linearGradient2388-9"
       xlink:href="#linearGradient5197"
       gradientUnits="userSpaceOnUse"
       gradientTransform="matrix(1.59149,0,0,1.59149,-290.406,-368.042)" />
    <linearGradient
       x1="278.7821"
       y1="598.48175"
       x2="300.01877"
       y2="538.17981"
       id="linearGradient3203-9"
       xlink:href="#linearGradient23837"
       gradientUnits="userSpaceOnUse"
       gradientTransform="matrix(1.73482,0,0,1.89055,-52.552,-549.362)" />
    <linearGradient
       x1="278.7821"
       y1="598.48175"
       x2="300.01877"
       y2="538.17981"
       id="linearGradient23835-2"
       xlink:href="#linearGradient23837"
       gradientUnits="userSpaceOnUse"
       gradientTransform="matrix(1.73482,0,0,1.89055,-333.706,-549.362)" />
    <linearGradient
       x1="353.82788"
       y1="353.77969"
       x2="370.98239"
       y2="331.95367"
       id="linearGradient10090-4"
       xlink:href="#linearGradient5197"
       gradientUnits="userSpaceOnUse"
       gradientTransform="matrix(1.79043,0,0,1.59149,-364.696,-368.042)" />
    <linearGradient
       x1="416.03726"
       y1="314.99216"
       x2="416.67383"
       y2="287.50903"
       id="linearGradient2365-8"
       xlink:href="#linearGradient5197"
       gradientUnits="userSpaceOnUse"
       gradientTransform="matrix(1.59149,0,0,1.59149,-290.406,-368.042)" />
    <linearGradient
       x1="333.62714"
       y1="305.53073"
       x2="338.83194"
       y2="276.24545"
       id="linearGradient2368-5"
       xlink:href="#linearGradient5197"
       gradientUnits="userSpaceOnUse"
       gradientTransform="matrix(1.59149,0,0,1.59149,-290.406,-368.042)" />
    <linearGradient
       x1="379.11264"
       y1="378.87973"
       x2="383.80917"
       y2="225.32318"
       id="linearGradient2371-7"
       xlink:href="#linearGradient5197"
       gradientUnits="userSpaceOnUse"
       gradientTransform="matrix(1.59149,0,0,1.59149,-290.406,-368.042)"
       spreadMethod="repeat" />
    <linearGradient
       x1="267.00482"
       y1="450.1579"
       x2="195.34068"
       y2="423.26831"
       id="linearGradient2375-2"
       xlink:href="#linearGradient5197"
       gradientUnits="userSpaceOnUse"
       gradientTransform="matrix(0.78225783,0,0,0.78225783,-142.38763,118.95864)" />
    <linearGradient
       x1="346.8956"
       y1="409.87292"
       x2="406.49899"
       y2="371.66501"
       id="linearGradient2379-9"
       xlink:href="#linearGradient23837"
       gradientUnits="userSpaceOnUse"
       gradientTransform="matrix(1.59149,0,0,1.59149,-290.406,-368.042)" />
    <linearGradient
       x1="228.8004"
       y1="401.76709"
       x2="361.57016"
       y2="343.16568"
       id="linearGradient2382-6"
       xlink:href="#linearGradient5197"
       gradientUnits="userSpaceOnUse"
       gradientTransform="matrix(1.59149,0,0,1.59149,-290.406,-368.042)" />
    <linearGradient
       x1="335.76212"
       y1="383.67514"
       x2="432.98227"
       y2="334.34232"
       id="linearGradient2385-3"
       xlink:href="#linearGradient5197"
       gradientUnits="userSpaceOnUse"
       gradientTransform="matrix(1.59149,0,0,1.59149,-290.406,-368.042)" />
    <linearGradient
       x1="584.44714"
       y1="496.83411"
       x2="411.60892"
       y2="312.98669"
       id="linearGradient2388-1"
       xlink:href="#linearGradient5197"
       gradientUnits="userSpaceOnUse"
       gradientTransform="matrix(1.59149,0,0,1.59149,-290.406,-368.042)" />
    <linearGradient
       x1="283.11636"
       y1="420.78415"
       x2="450.77399"
       y2="341.96973"
       id="linearGradient11090-8"
       xlink:href="#linearGradient5197"
       gradientUnits="userSpaceOnUse"
       gradientTransform="matrix(1.77809,0,0,1.90379,-374.546,-475.5499)" />
    <linearGradient
       x1="533.03326"
       y1="446.52438"
       x2="547.33417"
       y2="428.58325"
       id="linearGradient2392-7"
       xlink:href="#linearGradient5197"
       gradientUnits="userSpaceOnUse"
       gradientTransform="matrix(0.78225783,0,0,0.78225783,-142.38763,118.95864)" />
    <linearGradient
       x1="263.61029"
       y1="435.38452"
       x2="358.50229"
       y2="314.54004"
       id="linearGradient7163-6"
       xlink:href="#linearGradient5197"
       gradientUnits="userSpaceOnUse"
       spreadMethod="reflect"
       gradientTransform="matrix(1.6598,0,0,1.56716,-315.876,-358.607)" />
    <linearGradient
       x1="353.82788"
       y1="353.77969"
       x2="370.98239"
       y2="331.95367"
       id="linearGradient10111-1"
       xlink:href="#linearGradient5197"
       gradientUnits="userSpaceOnUse" />
    <linearGradient
       x1="353.82788"
       y1="353.77969"
       x2="370.98239"
       y2="331.95367"
       id="linearGradient10090-4-3"
       xlink:href="#linearGradient5197"
       gradientUnits="userSpaceOnUse"
       gradientTransform="matrix(1.79043,0,0,1.59149,-364.696,-368.042)" />
    <linearGradient
       x1="416.03726"
       y1="314.99216"
       x2="416.67383"
       y2="287.50903"
       id="linearGradient2365-8-5"
       xlink:href="#linearGradient5197"
       gradientUnits="userSpaceOnUse"
       gradientTransform="matrix(1.59149,0,0,1.59149,-290.406,-368.042)" />
    <linearGradient
       x1="228.8004"
       y1="401.76709"
       x2="361.57016"
       y2="343.16568"
       id="linearGradient2382-6-9"
       xlink:href="#linearGradient5197"
       gradientUnits="userSpaceOnUse"
       gradientTransform="matrix(0.78225783,0,0,0.78225783,-142.38763,118.95864)" />
    <linearGradient
       x1="335.76212"
       y1="383.67514"
       x2="432.98227"
       y2="334.34232"
       id="linearGradient2385-3-7"
       xlink:href="#linearGradient5197"
       gradientUnits="userSpaceOnUse"
       gradientTransform="matrix(0.78225783,0,0,0.78225783,-142.38763,118.95864)" />
    <linearGradient
       x1="584.44714"
       y1="496.83411"
       x2="411.60892"
       y2="312.98669"
       id="linearGradient2388-1-3"
       xlink:href="#linearGradient5197"
       gradientUnits="userSpaceOnUse"
       gradientTransform="matrix(0.78225783,0,0,0.78225783,-142.38763,118.95864)" />
    <linearGradient
       x1="283.11636"
       y1="420.78415"
       x2="450.77399"
       y2="341.96973"
       id="linearGradient11090-8-7"
       xlink:href="#linearGradient5197"
       gradientUnits="userSpaceOnUse"
       gradientTransform="matrix(0.87397648,0,0,0.93576123,-183.74458,66.115775)" />
    <linearGradient
       x1="263.61029"
       y1="435.38452"
       x2="358.50229"
       y2="314.54004"
       id="linearGradient7163-6-6"
       xlink:href="#linearGradient5197"
       gradientUnits="userSpaceOnUse"
       spreadMethod="reflect"
       gradientTransform="matrix(0.81583394,0,0,0.77029902,-154.90678,123.59618)" />
    <linearGradient
       x1="353.82788"
       y1="353.77969"
       x2="370.98239"
       y2="331.95367"
       id="linearGradient10111-1-1"
       xlink:href="#linearGradient5197"
       gradientUnits="userSpaceOnUse" />
    <linearGradient
       x1="353.82788"
       y1="353.77969"
       x2="370.98239"
       y2="331.95367"
       id="linearGradient10090-4-3-2"
       xlink:href="#linearGradient5197"
       gradientUnits="userSpaceOnUse"
       gradientTransform="matrix(0.88004191,0,0,0.78225784,-178.90305,118.95866)" />
    <linearGradient
       x1="379.11264"
       y1="378.87973"
       x2="383.80917"
       y2="225.32318"
       id="linearGradient2371-7-1"
       xlink:href="#linearGradient5197"
       gradientUnits="userSpaceOnUse"
       gradientTransform="matrix(0.78225783,0,0,0.78225783,-142.38763,118.95864)"
       spreadMethod="repeat" />
    <linearGradient
       x1="416.03726"
       y1="314.99216"
       x2="416.67383"
       y2="287.50903"
       id="linearGradient2365-8-5-3"
       xlink:href="#linearGradient5197"
       gradientUnits="userSpaceOnUse"
       gradientTransform="matrix(0.78225783,0,0,0.78225783,-142.38763,118.95864)" />
    <linearGradient
       x1="333.62714"
       y1="305.53073"
       x2="338.83194"
       y2="276.24545"
       id="linearGradient2368-5-6"
       xlink:href="#linearGradient5197"
       gradientUnits="userSpaceOnUse"
       gradientTransform="matrix(0.78225783,0,0,0.78225783,-142.38763,118.95864)" />
    <linearGradient
       x1="346.8956"
       y1="409.87292"
       x2="406.49899"
       y2="371.66501"
       id="linearGradient2379-9-8"
       xlink:href="#linearGradient23837"
       gradientUnits="userSpaceOnUse"
       gradientTransform="matrix(0.78225783,0,0,0.78225783,-142.38763,118.95864)" />
    <linearGradient
       x1="278.7821"
       y1="598.48175"
       x2="300.01877"
       y2="538.17981"
       id="linearGradient3203-9-0"
       xlink:href="#linearGradient23837"
       gradientUnits="userSpaceOnUse"
       gradientTransform="matrix(0.85270818,0,0,0.92925343,-25.476331,29.83525)" />
    <linearGradient
       x1="278.7821"
       y1="598.48175"
       x2="300.01877"
       y2="538.17981"
       id="linearGradient23835-2-3"
       xlink:href="#linearGradient23837"
       gradientUnits="userSpaceOnUse"
       gradientTransform="matrix(0.85270818,0,0,0.92925343,-163.67068,29.83525)" />
    <linearGradient
       x1="346.8956"
       y1="409.87292"
       x2="406.49899"
       y2="371.66501"
       id="linearGradient2379-9-8-5"
       xlink:href="#linearGradient23837"
       gradientUnits="userSpaceOnUse"
       gradientTransform="matrix(0.78225783,0,0,0.78225783,-142.38763,-180.76768)" />
  </defs>
  <g
     inkscape:groupmode="layer"
     id="layer12"
     inkscape:label="Background White"
     style="display:none"
     sodipodi:insensitive="true">
    <rect
       style="color:#000000;clip-rule:nonzero;display:inline;overflow:visible;visibility:visible;opacity:1;isolation:auto;mix-blend-mode:normal;color-interpolation:sRGB;color-interpolation-filters:linearRGB;solid-color:#000000;solid-opacity:1;fill:#ffffff;fill-opacity:1;fill-rule:nonzero;stroke:#000000;stroke-width:1;stroke-linecap:butt;stroke-linejoin:miter;stroke-miterlimit:4;stroke-dasharray:none;stroke-dashoffset:0;stroke-opacity:1;color-rendering:auto;image-rendering:auto;shape-rendering:auto;text-rendering:auto;enable-background:accumulate"
       id="rect5779"
       width="300"
       height="290"
       x="0"
       y="0" />
  </g>
  <g
     inkscape:groupmode="layer"
     id="layer3"
     inkscape:label="Tux"
     style="display:inline"
     transform="translate(0,-299.72632)">
    <path
       inkscape:connector-curvature="0"
       style="fill:url(#linearGradient2392-7);fill-opacity:1;fill-rule:evenodd;stroke:none;stroke-width:1px;stroke-linecap:butt;stroke-linejoin:miter;stroke-opacity:1"
       id="path2253"
       d="m 249.96933,433.4753 1.01699,4.06801 42.51065,43.32423 4.06802,3.45783 1.62719,-0.81362 -1.8306,-5.28842 -5.89861,-8.33937 -7.52581,-8.13602 -12.61082,-10.78024 -8.13601,-6.50878 -6.9156,-6.30543 -2.84762,-2.84761 -1.22038,-1.01701 -2.2374,-0.81357 z"
       inkscape:export-xdpi="92"
       inkscape:export-ydpi="92" />
    <path
       inkscape:connector-curvature="0"
       style="fill:url(#linearGradient2375-2);fill-opacity:1;fill-rule:evenodd;stroke:none;stroke-width:1px;stroke-linecap:butt;stroke-linejoin:miter;stroke-opacity:1"
       id="path6164"
       d="m 48.257478,434.12052 c 0,0 -13.132734,12.24238 -16.916743,15.58121 -3.784014,3.33884 -9.014852,6.78895 -15.136035,12.79888 -6.121192,6.00988 -11.574623,12.91011 -11.9084966,13.5779 -0.3338883,0.66779 -2.2258926,3.45012 -2.1146015,5.11953 0.1112962,1.66942 -0.4451746,3.89529 0.779063,3.45012 1.2242375,-0.44518 25.7090031,-23.37179 27.3784151,-25.26382 1.669422,-1.89198 13.577918,-13.91179 16.026394,-16.47156 2.448475,-2.55976 3.895299,-5.45342 3.895299,-5.45342 l 0.779063,-2.55977 0.111291,-0.77907 -2.893649,0 z"
       inkscape:export-xdpi="92"
       inkscape:export-ydpi="92" />
  </g>
  <g
     inkscape:groupmode="layer"
     id="layer4"
     inkscape:label="Tux Eyes"
     transform="translate(0,-299.72632)">
    <path
       inkscape:connector-curvature="0"
       style="fill:url(#linearGradient7163-6-6);fill-opacity:1;stroke:none"
       id="path6186"
       d="m 149.26584,384.5969 a 28.417091,37.655552 0 1 1 -56.834174,0 28.417091,37.655552 0 1 1 56.834174,0 z"
       inkscape:export-xdpi="92"
       inkscape:export-ydpi="92" />
    <path
       inkscape:connector-curvature="0"
       style="fill:url(#linearGradient11090-8-7);fill-opacity:1;stroke:none;stroke-opacity:1"
       id="path10113"
       d="m 209.7843,386.11779 a 29.527733,26.019557 0 1 1 -59.05546,0 29.527733,26.019557 0 1 1 59.05546,0 z"
       inkscape:export-xdpi="92"
       inkscape:export-ydpi="92" />
    <path
       inkscape:connector-curvature="0"
       style="fill:url(#linearGradient2388-1-3);fill-opacity:1;fill-rule:evenodd;stroke:none;stroke-width:1px;stroke-linecap:butt;stroke-linejoin:miter;stroke-opacity:1"
       id="path13048"
       d="m 191.59844,401.67041 c 0,0 6.3149,-0.46779 9.12152,-1.63723 2.80662,-1.16943 6.78267,-3.97604 6.78267,-3.97604 0,0 6.08102,-11.22649 -2.80662,-24.32408 -8.88763,-13.09758 -31.10674,-10.52483 -31.10674,-10.52483 l -2.80663,1.63722 20.8158,38.82496 z"
       inkscape:export-xdpi="92"
       inkscape:export-ydpi="92" />
    <path
       inkscape:connector-curvature="0"
       style="fill:url(#linearGradient2385-3-7);fill-opacity:1;fill-rule:evenodd;stroke:none;stroke-width:1px;stroke-linecap:butt;stroke-linejoin:miter;stroke-opacity:1"
       id="path12067"
       d="m 172.18596,362.84545 0,0 c 0,0 13.09758,2.33882 20.8158,17.30749 7.7182,14.96868 -0.46778,21.75133 -0.46778,21.75133 0,0 -15.43643,3.04053 -24.79184,-1.87109 -9.35542,-4.91156 -13.79924,-21.28354 -13.79924,-21.28354 0,0 0.46777,-5.37935 7.48433,-10.0571 7.01656,-4.6777 10.99262,-5.61322 10.75873,-5.84709 z"
       inkscape:export-xdpi="92"
       inkscape:export-ydpi="92" />
    <path
       inkscape:connector-curvature="0"
       style="fill:url(#linearGradient2382-6-9);fill-opacity:1;fill-rule:evenodd;stroke:none;stroke-width:1px;stroke-linecap:butt;stroke-linejoin:miter;stroke-opacity:1"
       id="path7165"
       d="m 101.78649,358.1677 c 0,0 -2.338859,21.04968 7.25044,33.67952 9.5893,12.6298 26.19515,17.77528 26.19515,17.77528 0,0 4.9116,-23.38855 -4.20993,-35.31669 -9.12153,-11.92815 -29.23566,-16.13811 -29.23566,-16.13811 z"
       inkscape:export-xdpi="92"
       inkscape:export-ydpi="92" />
    <path
       inkscape:connector-curvature="0"
       style="fill:#636363;fill-rule:evenodd;stroke:none;stroke-width:1px;stroke-linecap:butt;stroke-linejoin:miter;stroke-opacity:1"
       id="path9083"
       d="m 150.90992,390.30034 -2.43178,6.07948 -2.43178,6.34963 c 0,0 2.43178,-0.40532 5.13375,-0.2702 2.70198,0.13508 6.89005,0.81058 6.89005,0.81058 l -1.35099,-1.89139 -1.08079,-1.89134 c 0,0 -1.21589,-1.6212 -1.75629,-3.2424 -0.54039,-1.6212 -1.21589,-3.91785 -1.21589,-3.91785 l -0.94569,-1.75632 -0.81059,-0.27019 z"
       inkscape:export-xdpi="92"
       inkscape:export-ydpi="92" />
  </g>
  <g
     inkscape:groupmode="layer"
     id="layer1"
     inkscape:label="Eyes"
     style="display:inline;opacity:1"
     transform="translate(0,-299.72632)">
    <path
       inkscape:connector-curvature="0"
       style="opacity:0.578;fill:#333333;fill-opacity:1;stroke:none"
       id="path6186-5"
       d="m 149.26584,384.60005 a 28.417091,37.655552 0 1 1 -56.834174,0 28.417091,37.655552 0 1 1 56.834174,0 z"
       inkscape:export-xdpi="92"
       inkscape:export-ydpi="92" />
    <path
       inkscape:connector-curvature="0"
       style="opacity:0.54599998;fill:#333333;fill-opacity:1;stroke:none;stroke-opacity:1"
       id="path10113-1"
       d="m 209.7843,386.11779 a 29.527733,26.019557 0 1 1 -59.05546,0 29.527733,26.019557 0 1 1 59.05546,0 z"
       inkscape:export-xdpi="92"
       inkscape:export-ydpi="92" />
  </g>
  <g
     inkscape:groupmode="layer"
     id="layer2"
     inkscape:label="Stream"
     transform="translate(0,-299.72632)"
     sodipodi:insensitive="true"
     style="display:inline">
    <text
       xml:space="preserve"
       style="color:#000000;font-style:normal;font-variant:normal;font-weight:normal;font-stretch:normal;font-size:7.37288189px;line-height:125%;font-family:sans-serif;text-indent:0;text-align:start;text-decoration:none;text-decoration-line:none;text-decoration-style:solid;text-decoration-color:#000000;letter-spacing:0px;word-spacing:0px;text-transform:none;direction:ltr;block-progression:tb;writing-mode:lr-tb;baseline-shift:baseline;text-anchor:start;white-space:normal;clip-rule:nonzero;display:inline;overflow:visible;visibility:visible;opacity:1;isolation:auto;mix-blend-mode:normal;color-interpolation:sRGB;color-interpolation-filters:linearRGB;solid-color:#000000;solid-opacity:1;fill:#000000;fill-opacity:1;fill-rule:nonzero;stroke:none;stroke-width:1px;stroke-linecap:butt;stroke-linejoin:miter;stroke-miterlimit:4;stroke-dasharray:none;stroke-dashoffset:0;stroke-opacity:1;color-rendering:auto;image-rendering:auto;shape-rendering:auto;text-rendering:auto;enable-background:accumulate"
       x="80.285561"
       y="348.36481"
       id="text4320"
       sodipodi:linespacing="125%"><tspan
         sodipodi:role="line"
         id="tspan4322"
         x="80.285561"
         y="348.36481"
         style="font-size:8.60169506px;fill:#00f100;fill-opacity:1">010010101000101010100100111</tspan><tspan
         sodipodi:role="line"
         x="80.285561"
         y="359.11691"
         style="font-size:8.60169506px;fill:#00f100;fill-opacity:1"
         id="tspan4948">010110010100110010001001101</tspan><tspan
         sodipodi:role="line"
         x="80.285561"
         y="369.86905"
         style="font-size:8.60169506px;fill:#00f100;fill-opacity:1"
         id="tspan4950">010010001010110101101100010</tspan><tspan
         sodipodi:role="line"
         x="80.285561"
         y="380.62115"
         style="font-size:8.60169506px;fill:#00f100;fill-opacity:1"
         id="tspan4952">101010001010010010001001010</tspan><tspan
         sodipodi:role="line"
         x="80.285561"
         y="391.37329"
         style="font-size:8.60169506px;fill:#00f100;fill-opacity:1"
         id="tspan4954">010010110010111011010100101</tspan><tspan
         sodipodi:role="line"
         x="80.285561"
         y="402.1254"
         style="font-size:8.60169506px;fill:#00f100;fill-opacity:1"
         id="tspan4956">010010101000100010100101011</tspan><tspan
         sodipodi:role="line"
         x="80.285561"
         y="412.87753"
         style="font-size:8.60169506px;fill:#00f100;fill-opacity:1"
         id="tspan5774">101001011101010001010101110</tspan><tspan
         sodipodi:role="line"
         x="80.285561"
         y="423.62964"
         style="font-size:8.60169506px;fill:#00f100;fill-opacity:1"
         id="tspan5776">010101001000100101000100101</tspan></text>
  </g>
  <g
     inkscape:groupmode="layer"
     id="layer9"
     inkscape:label="Tux buik"
     style="display:inline"
     transform="translate(0,-299.72632)">
    <path
       inkscape:connector-curvature="0"
       style="fill:#ffffff;fill-opacity:1;fill-rule:evenodd;stroke:none;stroke-width:1px;stroke-linecap:butt;stroke-linejoin:miter;stroke-opacity:1"
       id="path17935"
       d="m 80.353397,543.21528 c 0,0 -4.229307,-6.34392 -4.934189,-7.75371 -0.704881,-1.40975 -12.335455,-45.8174 -9.515927,-60.61998 2.819542,-14.80254 3.876862,-26.08069 6.343956,-29.25265 2.46709,-3.17201 16.564757,-20.79408 18.326974,-21.8514 1.762202,-1.05732 11.853969,-6.64511 16.268049,-5.41702 15.76997,4.38754 34.836,7.17924 39.06529,6.47434 4.22931,-0.7049 22.55628,-0.7049 23.96605,-1.76222 1.40976,-1.05732 6.69639,-5.2866 6.69639,-5.2866 l 4.93419,-2.81954 c 0,0 11.27814,-1.05732 13.39278,-1.05732 2.11466,0 15.50743,7.75372 19.03185,11.63058 3.52442,3.87685 25.72826,29.25264 25.37582,42.64543 -0.35244,13.39279 0,23.96604 -1.40978,27.8429 -1.40976,3.87686 -5.28663,17.62212 -6.34395,21.49898 -1.05732,3.87681 -3.17198,11.983 -3.52442,15.15496 -0.35244,3.17201 -4.2293,6.34397 -5.63906,7.75372 -1.40976,1.40979 -19.73674,4.22933 -23.26116,5.63907 -3.52442,1.40979 -14.45011,9.16346 -17.62208,10.57325 -3.17198,1.4098 -10.22082,6.34398 -10.22082,6.34398 0,0 -9.86836,9.86835 -11.98301,10.92567 -2.11466,1.05732 -20.08918,4.58176 -26.43314,0.7049 -6.34394,-3.87686 -13.39278,-10.57325 -16.56475,-14.45011 -3.17198,-3.87686 -10.22082,-11.27815 -12.68791,-13.39279 -2.46709,-2.11464 -23.261153,-2.81954 -23.261153,-3.52444 z"
       sodipodi:nodetypes="csssssssccssssssccscssssc"
       inkscape:export-xdpi="92"
       inkscape:export-ydpi="92" />
    <path
       inkscape:connector-curvature="0"
       style="fill:#cccccc;fill-opacity:1;fill-rule:evenodd;stroke:none;stroke-width:1px;stroke-linecap:butt;stroke-linejoin:miter;stroke-opacity:1"
       id="path6184"
       d="m 81.92265,541.53382 c 0,0 -7.484325,-21.51746 -7.718217,-38.82495 -0.233883,-17.30755 -1.169418,-27.3646 2.104972,-40.46218 3.27439,-13.09758 3.27439,-14.73475 3.27439,-14.73475 l -16.83974,32.27616 c 0,0 -2.572738,14.26697 -2.806625,15.67032 -0.233888,1.40331 2.104967,27.13069 2.104967,27.13069 l 2.572738,8.88761 5.613255,8.88767 3.27439,3.04052 8.41987,-1.87109 z"
       inkscape:export-xdpi="92"
       inkscape:export-ydpi="92" />
    <path
       inkscape:connector-curvature="0"
       style="fill:#ececec;fill-opacity:1;fill-rule:evenodd;stroke:none;stroke-width:1px;stroke-linecap:butt;stroke-linejoin:miter;stroke-opacity:1"
       id="path17935-1"
       d="m 82.528849,523.1211 c 0,0 -7.22712,-6.05082 -7.93803,-7.39547 -0.710922,-1.34462 -4.049919,-42.71336 -1.206255,-56.83204 2.843688,-14.11864 10.820444,-20.92694 13.308658,-23.95235 2.488216,-3.02545 16.706608,-15.39097 18.483918,-16.39943 1.77729,-1.00849 2.33158,2.86365 6.95257,2.86365 4.62096,0 32.24915,-10.56122 36.51467,-11.23355 4.26552,-0.67234 22.74944,-0.67234 24.17128,-1.6808 1.42183,-1.00845 10.70252,6.804 10.70252,6.804 l 10.406,2.7403 c 0,0 7.91956,7.38271 10.05229,7.38271 2.13278,0 12.18504,15.29305 15.73965,18.99079 3.55459,3.69773 7.68543,4.2084 7.32998,16.98243 -0.35545,12.77403 5.92318,12.98682 4.50133,16.68455 -1.42182,3.69774 1.57848,16.80794 0.5121,20.50568 -1.06637,3.6977 -0.23755,11.42937 -0.593,14.45477 -0.35546,3.02547 -4.26553,6.05089 -5.68736,7.39549 -1.42183,1.34467 -19.90574,4.03393 -23.46035,5.37854 -3.5546,1.34466 -14.57385,8.7401 -17.773,10.08475 -3.19914,1.34466 -10.30833,6.05085 -10.30833,6.05085 0,0 -9.95288,9.41245 -12.08563,10.42092 -2.13277,1.00846 -20.26122,4.37005 -26.65949,0.67234 -6.39827,-3.69775 -13.50748,-10.08476 -16.70661,-13.78251 -3.19914,-3.69774 -10.30834,-10.75706 -12.79655,-12.77403 -2.48821,-2.01693 -23.460361,-2.68925 -23.460361,-3.36159 z"
       sodipodi:nodetypes="ccsscsssccssssssccscssssc" />
    <path
       inkscape:connector-curvature="0"
       style="display:inline;fill:#cccccc;fill-opacity:1;fill-rule:evenodd;stroke:none;stroke-width:1px;stroke-linecap:butt;stroke-linejoin:miter;stroke-opacity:1"
       id="path4226"
       d="m 220.13244,542.00156 c 0,0 7.48433,-21.51741 7.71822,-38.82496 0.23389,-17.30749 1.16942,-27.36455 -2.10496,-40.46213 -3.27439,-13.09758 -3.27439,-14.7348 -3.27439,-14.7348 l 16.83972,32.27622 c 0,0 2.57276,14.26697 2.80664,15.67027 0.23389,1.40331 -2.10498,27.13068 -2.10498,27.13068 l -2.57273,8.88767 -5.61324,8.88766 -3.2744,3.04048 -8.41988,-1.87109 z"
       inkscape:export-xdpi="92"
       inkscape:export-ydpi="92" />
  </g>
  <g
     inkscape:groupmode="layer"
     id="layer11"
     inkscape:label="Grijs_voet"
     transform="translate(0,-299.72632)"
     style="display:inline">
    <path
       inkscape:connector-curvature="0"
       style="display:inline;fill:#636363"
       id="path2225"
       d="m 139.21312,584.84346 c 2.93188,-3.35058 3.71413,-6.667 3.17036,-13.44121 -0.26929,-3.35481 -1.09867,-6.21381 -2.60603,-8.98331 -2.58492,-4.74937 -9.39744,-11.3162 -15.32186,-14.76926 -2.29554,-1.33798 -3.87316,-2.44047 -3.50582,-2.44996 1.42981,-0.037 12.12654,6.05972 17.70902,10.09338 3.23024,2.334 7.10522,4.67775 8.61107,5.20825 3.52905,1.24331 5.34031,0.49688 14.08068,-5.8028 3.65706,-2.63586 9.81736,-6.17165 13.68955,-7.85728 9.78501,-4.25961 12.23681,-4.7507 4.49554,-0.90043 -18.98587,9.44294 -27.64489,28.35945 -17.89673,39.09721 l 2.44955,2.69818 -3.03088,-2.22562 c -2.67953,-1.96763 -3.85835,-2.26707 -10.16937,-2.58327 -7.07219,-0.35429 -7.17121,-0.33379 -10.65868,2.2099 l -3.52017,2.56754 z M 62.897254,534.29297 c -10.966626,-16.55493 -16.759027,-33.38073 -17.985211,-52.2437 -0.285449,-4.39114 -0.890359,-8.35525 -1.344244,-8.80912 -1.535319,-1.53533 -9.956089,1.95774 -23.415166,9.71293 -13.09734,7.54679 -13.8563192,7.85094 -16.4729549,6.60183 -1.9146489,-0.91399 -2.3715709,-1.68893 -2.71963485,-4.61262 -0.50781457,-4.26546 0.86517325,-7.43496 5.99958905,-13.84972 5.9600117,-7.44626 9.5901777,-10.97055 19.4510777,-18.88376 28.10283,-22.55203 35.182227,-35.55745 37.158051,-68.26212 0.808702,-13.38596 1.320085,-16.53861 4.0458,-24.94207 8.658467,-26.69436 32.599689,-48.96822 60.484189,-56.27185 30.70835,-8.04327 62.88644,1.06455 85.07108,24.07885 16.03377,16.63342 22.63866,32.53854 24.08865,58.00757 1.82075,31.98106 9.03805,44.99115 37.68325,67.92892 15.00637,12.01642 24.92459,24.23196 25.08379,30.8938 0.0938,3.92611 -0.90917,5.61204 -3.76496,6.32883 -2.18781,0.54908 -4.83629,-0.67826 -19.10915,-8.85537 -10.8189,-6.19829 -18.45612,-9.16056 -20.09999,-7.79628 -0.6658,0.55257 -1.04859,2.6158 -1.05058,5.66262 -0.004,6.36068 -1.82346,17.28749 -4.31852,25.9377 -3.2939,11.41965 -8.77535,22.06384 -19.24223,37.36556 -0.28435,0.41569 -1.17362,0.34486 -2.13597,-0.17016 -1.63045,-0.87256 -1.61956,-0.92353 0.97732,-4.57876 1.44435,-2.033 3.20663,-4.84039 3.91617,-6.23869 1.15669,-2.27954 1.16343,-2.54236 0.0653,-2.54236 -0.93174,0 -1.20611,-0.79559 -1.14661,-3.32458 0.043,-1.82853 -0.0468,-11.42099 -0.19973,-21.31658 -0.23703,-15.34365 -0.54289,-19.1369 -2.07791,-25.77028 -5.65474,-24.43609 -16.74919,-43.95943 -31.7744,-55.91481 -7.96321,-6.33615 -11.08893,-7.56929 -16.79479,-6.62561 l -4.58021,0.75749 -0.32012,-2.1812 c -0.29919,-2.0385 -0.13717,-2.18173 2.47786,-2.19043 6.98417,-0.0232 16.98326,-4.40141 21.51964,-9.42264 3.74477,-4.14499 6.20688,-10.96372 6.19789,-17.1649 -0.018,-12.43063 -10.91308,-22.81087 -25.19931,-24.00857 -4.44008,-0.37223 -6.55635,-0.12607 -10.88729,1.26652 -5.99702,1.9283 -12.10343,6.13129 -14.88431,10.24477 l -1.83816,2.71902 -3.24514,10.30689 c 1.4311,0.26606 8.00912,-9.29312 7.47131,-9.23645 -1.54214,0.1624 -1.13722,2.63192 0.83582,5.09766 1.57803,1.9721 2.02169,2.14133 3.51629,1.34147 2.12104,-1.13518 2.12806,-1.64209 0.062,-4.47062 -1.23086,-1.68505 -0.94866,-1.53292 1.11403,0.6005 6.22251,6.43598 -2.76366,12.90111 -4.17551,21.09907 -0.0466,0.27059 -5.18529,-2.47704 -4.9225,-2.05182 0.31048,0.50234 0.51709,4.3208 -3.74927,3.95992 -3.61128,-0.30543 -2.15481,-11.54323 -3.62405,-11.53738 -6.7649,0.0269 -16.19289,5.71246 -16.22218,-3.76646 -0.0148,-4.80496 0.31201,-6.39794 1.80575,-8.80042 1.70189,-2.73725 4.04306,-3.96459 4.04306,-2.11955 0,0.44768 0.79085,1.94373 1.75745,3.32462 0.96658,1.38085 1.83024,2.64092 1.91921,2.80018 0.46812,0.8377 4.14594,-0.89443 4.14594,-1.95264 0,-0.83063 0.42566,-1.07885 1.28471,-0.74918 2.25973,0.86715 0.80714,-7.56266 -2.43281,-14.11823 -8.04652,-16.28105 -24.22109,-21.94293 -37.57376,-13.15268 -8.450181,5.56283 -15.226902,19.81776 -15.226902,32.03001 0,5.78451 1.997456,14.22735 4.638551,19.60616 3.375001,6.87349 10.918601,13.90589 16.728431,15.59487 2.44416,0.7105 5.66704,1.1865 7.16198,1.05772 2.61382,-0.22522 3.12593,0.23003 13.35368,11.87053 5.84959,6.65757 11.52476,12.57652 12.6115,13.15322 3.34124,1.77303 6.72559,0.54004 10.99753,-4.00662 2.10955,-2.24524 5.48616,-5.84232 7.50359,-7.99353 3.12689,-3.33426 3.5504,-3.58617 2.87062,-1.70741 -3.55248,9.81817 -11.22132,16.96146 -18.2093,16.96146 -4.70115,0 -8.36325,-2.77608 -16.50471,-12.51153 -6.70623,-8.01919 -10.03055,-10.99813 -13.97074,-12.5192 -1.41191,-0.54506 -4.93848,-2.0504 -7.83681,-3.34513 l -5.2697,-2.35416 -2.94402,1.95652 c -12.902084,8.57421 -24.63138,25.92747 -31.449035,46.52824 -4.372158,13.21127 -5.701208,22.27342 -5.484288,37.39461 0.252511,17.60246 -0.222509,24.64116 -1.662944,24.64116 -1.08371,0 0.681957,3.89327 3.62093,7.98414 3.10361,4.31997 3.250596,4.98692 1.216265,5.5189 -1.176574,0.30769 -2.615461,-1.32653 -7.013114,-7.96507 z m 178.243786,-7.1025 c 0.46053,-0.86046 0.6613,-1.56452 0.44617,-1.56452 -0.21512,0 -0.76791,0.70406 -1.22843,1.56452 -0.46051,0.86052 -0.66129,1.56453 -0.44617,1.56453 0.21512,0 0.76792,-0.70401 1.22843,-1.56453 z m 8.97473,-19.97372 c 2.48758,-7.27104 4.32871,-17.16442 4.83836,-25.99929 0.66469,-11.52214 0.90328,-11.83456 7.37528,-9.65572 2.75953,0.92898 7.12945,2.84799 9.7109,4.26447 11.70777,6.42424 19.37102,11.09471 19.72729,12.0232 0.45493,1.18547 5.38148,1.37008 6.0873,0.22807 0.26588,-0.43023 0.0189,-0.78226 -0.54886,-0.78226 -0.56778,0 -3.49269,-2.87223 -6.49982,-6.3828 -3.00711,-3.51058 -9.33968,-9.80107 -14.07236,-13.97889 -4.73267,-4.17782 -12.30102,-11.42605 -16.81857,-16.10714 -7.389,-7.65649 -8.43109,-9.1002 -10.37842,-14.37805 -1.19059,-3.22682 -2.15862,-6.8297 -2.15121,-8.00641 0.007,-1.17671 -1.00895,-3.81684 -2.25857,-5.86695 -4.6127,-7.56757 -7.72293,-20.93765 -8.69201,-37.36468 -0.99573,-16.87938 -3.06778,-25.47065 -8.99292,-37.28747 -10.66115,-21.26201 -30.84905,-37.64298 -54.35772,-44.10718 -9.21466,-2.53376 -26.98816,-3.47685 -36.576,-1.94074 -28.07312,4.49765 -53.091995,23.42468 -64.820042,49.03709 -4.399728,9.60834 -6.521604,19.20311 -7.328758,33.13923 -1.019247,17.59819 -3.965509,29.99756 -9.374039,39.45067 -1.315337,2.29896 -2.175329,4.71879 -1.91663,5.39297 0.487903,1.27143 -1.711722,7.85536 -4.299746,12.8699 -1.504402,2.91495 -16.128425,17.62119 -27.928329,28.08538 -3.492735,3.09734 -8.585902,8.28957 -11.3181501,11.53831 -2.7322524,3.24874 -5.4392354,5.90676 -6.0155097,5.90676 -0.576284,0 -0.8302258,0.35203 -0.5643203,0.78226 0.7862785,1.27227 4.4660543,0.89374 6.2076616,-0.63854 1.9876065,-1.74875 14.8078975,-9.29081 21.1714315,-12.45506 6.953493,-3.45758 12.864258,-5.25431 13.894864,-4.22367 0.465883,0.46586 1.1371,5.14838 1.491588,10.40564 0.73925,10.96342 3.402133,22.96038 6.997563,31.52575 2.581044,6.14884 3.999095,7.87522 1.735665,2.11312 -0.707821,-1.80193 -1.075866,-3.48732 -0.817879,-3.74533 0.257982,-0.25795 2.797021,1.50589 5.642299,3.91972 2.845284,2.41383 5.417225,4.38883 5.715419,4.38883 0.298199,5e-5 0.548734,-6.77631 0.556751,-15.05852 0.01086,-11.19356 0.370369,-16.86551 1.400793,-22.09888 5.095502,-25.87926 16.701317,-46.79568 34.155548,-61.55634 l 4.28051,-3.61994 -3.62801,-3.87863 c -13.431404,-14.35927 -14.088677,-39.58618 -1.44803,-55.57776 3.94322,-4.98854 9.46392,-8.41639 16.53902,-10.26915 l 5.79057,-1.5164 -3.91131,-0.0315 c -5.30314,-0.0427 -12.3005,1.70166 -18.40216,4.58746 -6.467444,3.05881 -7.115658,1.82975 -1.673946,-3.17393 5.984956,-5.50317 11.153166,-7.27979 21.265956,-7.31026 7.72941,-0.0233 8.54438,0.12986 13.3943,2.51744 5.12589,2.52349 12.79982,9.58116 11.05144,10.16392 -0.47882,0.15959 -2.57052,-0.56182 -4.64823,-1.60321 -3.84976,-1.92954 -7.40145,-3.15609 -11.60024,-4.00604 -1.43691,-0.29088 -0.37541,0.49261 2.73791,2.02086 9.44263,4.63509 16.76676,14.51097 19.04514,25.68049 0.51766,2.53779 1.1495,4.82245 1.40407,5.07706 0.25458,0.25456 1.39713,-1.4467 2.539,-3.78061 5.40635,-11.05018 19.51329,-17.81112 32.26219,-15.46202 9.87996,1.82046 18.05369,7.63295 21.98175,15.63164 2.86529,5.8346 3.06399,14.92379 0.45078,20.61939 -2.51316,5.47756 -8.2894,11.21937 -14.05459,13.97083 -2.72737,1.30166 -4.95885,2.47483 -4.95885,2.60705 0,0.13222 2.0241,1.57878 4.498,3.21453 14.88376,9.84132 27.89337,27.69593 34.91358,47.91611 4.8225,13.89012 6.3134,23.41971 6.30003,40.26901 -0.006,8.06701 0.24394,14.66736 0.5563,14.66736 0.31237,0 2.78791,-1.93611 5.50118,-4.30242 7.04135,-6.14097 7.53116,-5.8199 3.77136,2.47213 -1.29072,2.84667 -2.31645,5.39105 -2.27938,5.65421 0.11373,0.80758 5.93105,-11.84866 7.34281,-15.97506 z M 209.31957,359.8934 c -4.03844,-3.65464 -11.63565,-7.76896 -16.96681,-9.18848 -6.01662,-1.60203 -15.81552,-1.37814 -21.89724,0.50032 -2.82727,0.87325 -7.48718,3.16135 -10.35536,5.08469 -2.86818,1.92333 -5.46099,3.49695 -5.7618,3.49695 -0.30082,0 -1.66784,-1.72987 -3.03784,-3.84412 -7.56396,-11.67319 -22.67533,-19.233 -35.29364,-17.65643 -8.86765,1.10795 -20.00147,7.09836 -24.740237,13.3112 -2.630841,3.44923 -3.448528,3.42387 -3.448528,-0.10701 0,-8.97289 5.603926,-20.6769 14.193335,-29.64326 13.34955,-13.93539 31.60905,-20.67351 53.47214,-19.73224 32.21454,1.38699 57.94658,23.10774 59.65396,50.35472 0.43683,6.97116 -0.0951,10.46379 -1.58607,10.4141 -0.5296,-0.0177 -2.43396,-1.36335 -4.23191,-2.99044 z m -42.88434,-9.1587 c 5.08043,-2.07389 6.23834,-2.23644 16.03632,-2.25143 10.107,-0.0155 10.82927,0.0924 16.8186,2.51106 3.98774,1.61043 7.60607,2.52855 9.97381,2.53086 l 3.71573,0.003 0,-3.82888 c 0,-15.62181 -14.63872,-33.70784 -33.6174,-41.534 -9.48693,-3.9121 -16.36069,-5.10179 -28.96339,-5.01273 -13.4246,0.0948 -19.91786,1.5486 -30.89926,6.91808 -15.6315,7.64322 -26.58707,20.95034 -29.328318,35.6235 -0.36275,1.94172 -0.554018,3.63591 -0.425041,3.76489 0.128971,0.12898 2.476035,-1.45821 5.215679,-3.52714 8.12302,-6.13419 13.79874,-8.30245 22.73459,-8.68501 6.12452,-0.26218 8.60846,-0.0108 12.90729,1.30638 6.20693,1.90181 13.25238,6.3279 18.23054,11.45284 3.47557,3.57806 3.57468,3.61979 7.8226,3.29366 2.36634,-0.18172 6.76655,-1.33626 9.77825,-2.56566 z m -5.69467,8.14419 c 0.51988,-1.55961 7.82057,-5.22565 13.1,-6.57819 10.04999,-2.5747 23.72987,-0.27668 29.35054,4.9305 l 2.33645,2.16453 -2.06464,0.24021 c -1.13555,0.13207 -4.95395,-0.30795 -8.48538,-0.97785 -8.11635,-1.53965 -19.19669,-1.55793 -27.10453,-0.0447 -7.36779,1.40984 -7.51571,1.41534 -7.13244,0.26552 z m 41.81815,-0.58167 c -1.40406,-0.64292 -7.03782,-5.48838 -19.48112,-5.83254 -9.17338,-0.25132 -15.52184,3.69175 -16.92593,4.33461 -2.11785,0.96978 6.86586,-1.04006 17.10216,-1.04006 10.23628,0 21.42276,3.50772 19.30489,2.53799 z M 49.147861,437.0739 c 2.040116,-3.84166 1.183569,-3.38739 -4.940735,2.62042 -3.334385,3.27091 -10.286718,9.28541 -15.449632,13.36551 -14.513621,11.4697 -25.3916205,23.94388 -25.4161132,29.14555 -0.00826,1.75302 43.8629542,-41.47173 45.8064802,-45.13148 z m 248.315889,45.11152 c 0,-1.50879 -2.8082,-6.55317 -5.76531,-10.35634 -4.67371,-6.01082 -11.90843,-12.86455 -20.44038,-19.36394 -3.87219,-2.9497 -10.1205,-8.35191 -13.88512,-12.00492 -6.74401,-6.54398 -7.68687,-7.13759 -5.9801,-3.76489 0.96861,1.9141 44.55144,45.90636 45.47907,45.90636 0.32552,0 0.59184,-0.18732 0.59184,-0.41627 z M 154.80342,399.87771 c -0.61131,-1.1832 -1.52602,-3.69209 -2.03269,-5.57532 -0.57037,-2.1201 -1.1993,-3.14601 -1.65143,-2.6939 -0.9383,0.93832 -3.05041,9.03242 -2.56282,9.82136 0.20363,0.32947 1.94257,0.59907 3.86433,0.59907 l 3.49408,0 z m -7.51249,-5.08473 c 1.5266,-3.36316 2.02684,-9.56641 0.91283,-11.31973 -0.47425,-0.74643 -1.27005,-0.75125 -3.64591,-0.0221 -1.99641,0.61273 -3.1299,0.66085 -3.30341,0.14033 -0.72329,-2.16984 -3.22937,-6.15636 -4.04002,-6.42655 -1.32779,-0.44262 -3.24298,4.6865 -3.24298,8.68511 0,5.51364 5.79786,12.08636 10.79432,12.23692 0.55884,0.0169 1.69516,-1.46544 2.52517,-3.29401 z m 18.84798,0.8007 c 1.43563,-2.6825 2.2017,-6.91896 1.70249,-9.41498 -0.45823,-2.29119 -1.22724,-2.42971 -5.14407,-0.92667 -0.76755,0.29452 -1.8345,-0.73645 -3.23469,-3.12571 -1.14914,-1.96084 -2.44449,-3.56523 -2.87855,-3.56523 -1.23374,0 -3.05615,5.09741 -3.05615,8.54822 0,2.64858 0.48516,3.5728 3.1957,6.08764 4.901,4.5472 7.8611,5.30071 9.41527,2.39673 z m -24.83134,-45.43106 c -3.93328,-2.87607 -8.91333,-9.85656 -24.7862,-9.07189 -8.13903,0.39794 -17.233725,7.19264 -17.549373,7.32073 -1.148282,0.46601 13.130153,-3.87175 20.637743,-3.86329 11.33541,0.0127 22.84393,6.4525 21.69783,5.61445 z"
       inkscape:export-xdpi="92"
       inkscape:export-ydpi="92"
       sodipodi:nodetypes="sssscscsssscssscscscsssssssssssscsscsssssscsssscssssssscccsccssccssssscscssssccscssssssccsssssccccscsccscsccssssscsssssssscsssscsscssscscssscssscssssscsssscsssssssscssscccsssssssssssscscscccsssssccsssccccssccsscccccscssssssssscssscccscscscscscccsscssssssccss" />
  </g>
  <g
     inkscape:groupmode="layer"
     id="layer7"
     inkscape:label="Tux Haar"
     transform="translate(0,-299.72632)">
    <path
       inkscape:connector-curvature="0"
       style="fill:url(#linearGradient2371-7-1);fill-opacity:1;fill-rule:evenodd;stroke:none;stroke-width:1px;stroke-linecap:butt;stroke-linejoin:miter;stroke-opacity:1"
       id="path14027"
       d="m 84.644119,354.03441 1.744502,2.74139 4.23663,0.4984 c 0,0 7.72564,-3.48899 9.220919,-4.2366 1.49528,-0.74766 15.9497,-5.48272 15.9497,-5.48272 l 6.97799,-0.74766 18.19262,5.73192 13.45754,11.46385 9.96856,-2.24293 15.45126,-2.49213 16.69734,0.74761 15.70048,4.48586 c 0,0 6.23034,0 6.47957,-0.99686 0.2492,-0.99682 1.9937,-12.46067 1.24606,-15.20205 -0.74765,-2.74134 -4.48585,-13.70673 -6.47955,-15.94966 -1.99373,-2.24293 -11.46386,-11.46385 -12.46071,-12.46071 -0.99685,-0.99686 -11.46384,-8.47326 -13.20833,-9.47012 -1.7445,-0.99686 -13.70677,-5.48272 -13.70677,-5.48272 l -24.67218,-3.23979 -10.96542,0.49845 -14.95283,3.489 -21.68162,13.45752 -10.466984,12.70992 -4.984275,9.71937 -1.744502,12.46066 z"
       inkscape:export-xdpi="92"
       inkscape:export-ydpi="92" />
  </g>
  <g
     inkscape:groupmode="layer"
     id="layer6"
     inkscape:label="Tux Iris"
     transform="translate(0,-299.72632)">
    <path
       inkscape:connector-curvature="0"
       style="fill:url(#linearGradient10090-4-3-2);fill-opacity:1;stroke:#000000;stroke-width:0.8297106;stroke-opacity:1"
       id="path8144"
       d="m 149.7349,387.28574 a 8.4198678,13.448371 0 0 1 -16.83973,0 8.4198678,13.448371 0 1 1 16.83973,0 z"
       inkscape:export-xdpi="92"
       inkscape:export-ydpi="92" />
    <path
       inkscape:connector-curvature="0"
       style="fill:#000000;fill-opacity:1;stroke:#000000;stroke-width:0.73192763;stroke-opacity:1"
       id="path10092"
       d="m 137.73259,375.95548 c -1.40371,2.23295 -2.29789,5.49471 -2.29789,9.11819 0,6.72736 3.06241,12.17395 6.82032,12.17395 3.75793,0 6.79588,-5.44659 6.79588,-12.17395 0,-1.21721 -0.0831,-2.41074 -0.2689,-3.52016 l -0.46447,0.24449 -6.06251,2.32231 c 0,0 -0.71288,-3.03193 -1.88231,-4.6691 -0.46436,-0.65009 -1.53748,-2.05876 -2.64012,-3.49573 z"
       inkscape:export-xdpi="92"
       inkscape:export-ydpi="92" />
    <g
       id="g10107"
       transform="matrix(0.69942597,0,0,0.67668308,-93.315692,155.96807)"
       inkscape:export-xdpi="92"
       inkscape:export-ydpi="92">
      <path
         inkscape:connector-curvature="0"
         style="fill:url(#linearGradient10111-1-1);fill-opacity:1;stroke:#000000;stroke-opacity:1"
         id="path10103"
         transform="matrix(1.125,0,0,1,-46.6793,0)"
         d="m 373.43443,343.01617 a 9.5675755,17.191736 0 1 1 -19.13515,0 9.5675755,17.191736 0 1 1 19.13515,0 z" />
      <path
         inkscape:connector-curvature="0"
         style="fill:#000000;fill-opacity:1;stroke:#000000;stroke-width:0.93565798;stroke-opacity:1"
         id="path10105"
         d="m 358.09375,328.53125 c -1.79442,2.8545 -2.9375,7.02416 -2.9375,11.65625 0,8.59987 3.91482,15.56249 8.71875,15.5625 4.80394,0 8.6875,-6.96262 8.6875,-15.5625 0,-1.55605 -0.1062,-3.08178 -0.34375,-4.5 L 371.625,336 l -7.75,2.96875 c 0,0 -0.91132,-3.87583 -2.40625,-5.96875 -0.59362,-0.83106 -1.96544,-2.6318 -3.375,-4.46875 z" />
    </g>
  </g>
  <g
     inkscape:groupmode="layer"
     id="layer5"
     inkscape:label="Tux Jas"
     transform="translate(0,-299.72632)">
    <path
       inkscape:connector-curvature="0"
       style="fill:#070707"
       id="path2223"
       d="m 240.35878,527.19047 c 0.46052,-0.86046 1.01331,-1.56452 1.22843,-1.56452 0.21513,0 0.0144,0.70406 -0.44617,1.56452 -0.46051,0.86052 -1.01331,1.56453 -1.22843,1.56453 -0.21512,0 -0.0144,-0.70401 0.44617,-1.56453 z m 2.41418,-3.99866 c -0.0371,-0.26316 0.98866,-2.80754 2.27938,-5.65421 3.7598,-8.29203 3.26999,-8.6131 -3.77136,-2.47213 -2.71327,2.36631 -5.18881,4.30242 -5.50118,4.30242 -0.31236,0 -0.56271,-6.60035 -0.5563,-14.66736 0.0134,-16.8493 -1.47753,-26.37889 -6.30003,-40.26901 -7.02021,-20.22018 -20.02982,-38.07479 -34.91358,-47.91611 -2.4739,-1.63575 -4.498,-3.08231 -4.498,-3.21453 0,-0.13222 2.23148,-1.30539 4.95885,-2.60705 5.76519,-2.75146 11.54143,-8.49327 14.05459,-13.97083 2.61321,-5.6956 2.41451,-14.78479 -0.45078,-20.61939 -3.92806,-7.99869 -12.10179,-13.81118 -21.98175,-15.63164 -12.7489,-2.3491 -26.85584,4.41184 -32.26219,15.46202 -1.14187,2.33391 -2.28442,4.03517 -2.539,3.78061 -0.25457,-0.25461 -0.88641,-2.53927 -1.40407,-5.07706 -2.27838,-11.16952 -9.60251,-21.0454 -19.04514,-25.68049 -3.11332,-1.52825 -6.90625,-2.57608 -5.46933,-2.2852 4.19878,0.84995 10.4819,2.34084 14.33166,4.27038 2.07771,1.04139 4.16941,1.7628 4.64823,1.60321 1.74838,-0.58276 -5.92555,-7.64043 -11.05144,-10.16392 -4.84992,-2.38758 -5.66489,-2.54074 -13.3943,-2.51744 -10.11279,0.0305 -15.281,1.80709 -21.265956,7.31026 -5.441712,5.00368 -4.793498,6.23274 1.673946,3.17393 6.10166,-2.8858 13.09902,-4.63018 18.40216,-4.58746 l 6.90706,0.91261 -8.78632,0.6353 c -7.0751,1.85276 -12.5958,5.28061 -16.53902,10.26915 -12.640647,15.99158 -11.983374,41.21849 1.44803,55.57776 l 3.62801,3.87863 -4.28051,3.61994 c -17.454231,14.76066 -29.060046,35.67708 -34.155548,61.55634 -1.030424,5.23337 -1.38995,10.90532 -1.400793,22.09888 -0.008,8.28221 -0.258552,15.05857 -0.556751,15.05852 -0.298194,0 -2.870135,-1.975 -5.715419,-4.38883 -2.845278,-2.41383 -5.384317,-4.17767 -5.642299,-3.91972 -0.257987,0.25801 0.110058,1.9434 0.817879,3.74533 2.26343,5.7621 0.845379,4.03572 -1.735665,-2.11312 -3.59543,-8.56537 -6.258313,-20.56233 -6.997563,-31.52575 -0.354488,-5.25726 -1.025705,-9.93978 -1.491588,-10.40564 -1.030606,-1.03064 -6.941371,0.76609 -13.894864,4.22367 -6.363534,3.16425 -19.183825,10.70631 -21.1714315,12.45506 -1.7416073,1.53228 -5.4213831,1.91081 -6.2076616,0.63854 -0.2659055,-0.43023 -0.011944,-0.78226 0.5643203,-0.78226 0.5762743,0 3.2832573,-2.65802 6.0155097,-5.90676 2.7322481,-3.24874 7.8254151,-8.44097 11.3181501,-11.53831 11.799904,-10.46419 26.423927,-25.17043 27.928329,-28.08538 2.588024,-5.01454 4.787649,-11.59847 4.299746,-12.8699 -0.258699,-0.67418 0.601293,-3.09401 1.91663,-5.39297 5.40853,-9.45311 8.354792,-21.85248 9.374039,-39.45067 0.807154,-13.93612 2.92903,-23.53089 7.328758,-33.13923 11.728047,-25.61241 36.746922,-44.53944 64.820042,-49.03709 9.58784,-1.53612 27.36134,-0.59303 36.576,1.94074 23.50867,6.4642 43.69657,22.84517 54.35772,44.10718 5.92514,11.81682 7.99719,20.40809 8.99292,37.28747 0.96908,16.42703 4.07931,29.79711 8.69201,37.36468 1.24962,2.05011 2.26598,4.69024 2.25857,5.86695 -0.007,1.17671 0.96062,4.77959 2.15121,8.00641 1.94733,5.27785 2.98942,6.72156 10.37842,14.37805 4.51755,4.68109 12.0859,11.92932 16.81857,16.10714 4.73268,4.17782 11.06525,10.46831 14.07236,13.97889 3.00713,3.51057 5.93204,6.3828 6.49982,6.3828 0.56777,0 0.81474,0.35203 0.54886,0.78226 -0.70582,1.14201 -5.63237,0.9574 -6.0873,-0.22807 -0.35627,-0.92849 -8.01952,-5.59896 -19.72729,-12.0232 -2.58145,-1.41648 -6.95137,-3.33549 -9.7109,-4.26447 -6.472,-2.17884 -6.71059,-1.86642 -7.37528,9.65572 -0.50965,8.83487 -2.35078,18.72825 -4.83836,25.99929 -1.41176,4.1264 -7.22908,16.78264 -7.34281,15.97506 z M 215.02564,360.879 c 0.28117,-1.12028 0.33153,-4.90449 0.11191,-8.40926 -1.70738,-27.24698 -27.43942,-48.96773 -59.65396,-50.35472 -21.86309,-0.94127 -40.12259,5.79685 -53.47214,19.73224 -8.589409,8.96636 -14.193335,20.67037 -14.193335,29.64326 0,3.53088 0.817687,3.55624 3.448528,0.10701 4.738767,-6.21284 15.872587,-12.20325 24.740237,-13.3112 12.61831,-1.57657 27.72968,5.98324 35.29364,17.65643 1.37,2.11425 2.73702,3.84412 3.03784,3.84412 0.30081,0 2.89362,-1.57362 5.7618,-3.49695 2.86818,-1.92334 7.52809,-4.21144 10.35536,-5.08469 6.08172,-1.87846 15.88062,-2.10235 21.89724,-0.50032 5.33116,1.41952 12.92837,5.53384 16.96681,9.18848 3.88535,3.51612 5.02169,3.71239 5.70607,0.9856 z M 167.873,358.61337 c 7.90784,-1.51321 18.98818,-1.49493 27.10453,0.0447 3.53143,0.6699 7.34983,1.10992 8.48538,0.97785 l 2.06464,-0.24021 -2.33645,-2.16453 c -5.62067,-5.20718 -19.30055,-7.5052 -29.35054,-4.9305 -5.27943,1.35254 -12.58012,5.01858 -13.1,6.57819 -0.38327,1.14982 -0.23535,1.14432 7.13244,-0.26552 z M 0.48097306,483.29818 c 0.38480053,-0.14706 0.0488576,-0.0339 0.0450729,-0.0182 -0.0671276,0.27815 0.10452781,-0.53935 -0.0825812,0.43367 -0.18710899,0.97307 -0.032539,-0.11103 0.0375034,-0.41544 z m 297.84485694,1.5515 c -0.0159,-1.29074 0.78953,-1.56265 1.00382,-1.03304 0.21426,0.52962 0.40273,0.76708 0.20439,1.52821 -0.19834,0.76112 -1.19225,0.79558 -1.20821,-0.49517 z M 147.2456,401.74438 c -0.48759,-0.78895 2.62031,-9.70021 3.8737,-10.13589 1.30072,-0.45211 1.08106,0.5738 1.65143,2.6939 0.50667,1.88323 1.42138,4.39212 2.03269,5.57532 l 2.24293,2.99978 -4.62554,-0.84857 c -1.92176,0 -4.97158,0.0449 -5.17521,-0.28454 z m -5.99186,-4.7735 c -3.8148,-1.65909 -7.2823,-6.9543 -7.2823,-11.12081 0,-3.99861 1.91519,-9.12773 3.24298,-8.68511 0.81065,0.27019 3.31673,4.25671 4.04002,6.42655 0.17351,0.52052 1.307,0.4724 3.30341,-0.14033 3.69515,-1.13405 4.25482,-0.54151 4.24737,4.49706 -0.006,3.95501 -2.48818,10.18549 -4.03946,10.13875 -0.55883,-0.0169 -2.13925,-0.5191 -3.51202,-1.11611 z m 19.96789,-0.27722 c -0.71627,-0.29241 -2.74037,-1.86598 -4.49799,-3.49671 -2.71054,-2.51484 -3.1957,-3.43906 -3.1957,-6.08764 0,-3.45081 1.82241,-8.54822 3.05615,-8.54822 0.43406,0 1.72941,1.60439 2.87855,3.56523 1.40019,2.38926 2.46714,3.42023 3.23469,3.12571 3.91683,-1.50304 4.68584,-1.36452 5.14407,0.92667 0.49921,2.49602 -0.26686,6.73248 -1.70249,9.41498 -0.9345,1.74609 -2.48515,2.09301 -4.91728,1.09998 z"
       inkscape:export-xdpi="92"
       inkscape:export-ydpi="92" />
  </g>
  <g
     inkscape:groupmode="layer"
     id="layer8"
     inkscape:label="Tux wenkbr"
     transform="translate(0,-299.72632)">
    <path
       inkscape:connector-curvature="0"
       style="fill:url(#linearGradient2368-5-6);fill-opacity:1;fill-rule:evenodd;stroke:none;stroke-width:1px;stroke-linecap:butt;stroke-linejoin:miter;stroke-opacity:1"
       id="path15977"
       d="m 94.010515,353.68976 -0.08812,-2.02656 2.026545,-3.2601 4.58175,-3.78872 c 0,0 4.66984,-2.5552 5.02229,-2.64333 0.35244,-0.0881 5.19852,-2.46706 7.04884,-2.46706 1.85032,0 8.4586,-0.26435 8.4586,-0.26435 0,0 5.19851,0.0881 5.63907,0.17622 0.44055,0.0881 3.78874,1.23353 3.78874,1.23353 l 6.96073,2.90767 8.01805,6.69639 c 0,0 1.14543,2.02651 0.96921,2.46707 -0.17622,0.44055 -0.8811,1.23353 -0.8811,1.23353 0,0 -2.81954,-0.52864 -3.70064,-0.88106 -0.88111,-0.35247 -3.61253,-1.23358 -3.96497,-1.40979 -0.35244,-0.17622 -4.05308,-2.11464 -4.75797,-2.20278 -0.70488,-0.0881 -5.19851,-1.49787 -5.19851,-1.49787 l -3.70064,-0.79298 -3.34819,-0.61677 -4.31741,0.17622 -13.65712,3.52443 -5.022306,2.29085 -2.819528,0.96919 -1.057325,0.17627 z"
       inkscape:export-xdpi="92"
       inkscape:export-ydpi="92" />
    <path
       inkscape:connector-curvature="0"
       style="fill:url(#linearGradient2365-8-5-3);fill-opacity:1;fill-rule:evenodd;stroke:none;stroke-width:1px;stroke-linecap:butt;stroke-linejoin:miter;stroke-opacity:1"
       id="path16956"
       d="m 158.0668,362.23645 c 0,0 5.99151,-0.61677 7.75372,-1.23353 1.76221,-0.61677 10.48514,-1.67409 11.10191,-1.76222 0.61677,-0.0881 9.60404,-0.52869 12.15926,0 2.55519,0.52868 12.07112,2.02656 12.776,2.02656 0.70488,0 4.49363,-0.17626 4.49363,-0.17626 0,0 0.96922,-1.76217 0.52866,-2.29085 -0.44055,-0.52869 -1.40977,-1.05732 -2.02654,-1.40975 -0.61677,-0.35247 -4.75795,-2.64332 -5.46285,-3.17201 -0.70489,-0.52863 -8.19426,-3.08383 -8.63482,-3.08383 -0.44056,0 -8.10617,-0.44055 -10.1327,-0.44055 -2.02654,0 -7.31316,0.61676 -8.10616,0.96919 -0.79299,0.35247 -5.55096,2.11464 -6.34395,2.46711 -0.79299,0.35242 -3.17198,1.32166 -4.05308,2.20272 -0.8811,0.88111 -1.93843,2.20277 -2.11465,2.55525 -0.17622,0.35242 -1.67409,3.34817 -1.93843,3.34817 z"
       inkscape:export-xdpi="92"
       inkscape:export-ydpi="92" />
    <path
       inkscape:connector-curvature="0"
       style="fill:#000000;fill-opacity:1;fill-rule:evenodd;stroke:none;stroke-width:1px;stroke-linecap:butt;stroke-linejoin:miter;stroke-opacity:1"
       id="path15006"
       d="m 121.85341,346.81715 5.11041,1.23353 4.84607,1.58601 1.76221,0.35242 -3.17197,-1.76222 -4.14119,-1.23353 -1.40977,-0.44055 -2.37898,0 -0.61678,0.26434 z"
       inkscape:export-xdpi="92"
       inkscape:export-ydpi="92" />
  </g>
  <g
     inkscape:groupmode="layer"
     id="layer13"
     inkscape:label="Tux neus">
    <path
       inkscape:connector-curvature="0"
       style="display:inline;fill:url(#linearGradient2379-9-8-5);fill-opacity:1;fill-rule:evenodd;stroke:none;stroke-width:1px;stroke-linecap:butt;stroke-linejoin:miter;stroke-opacity:1"
       id="path3205"
       d="m 125.08543,112.96128 c -0.35795,0.0895 -1.16333,2.50565 -1.16333,2.50565 0,0 -0.35795,1.2528 -0.17898,2.14767 0.17898,0.89483 0,1.70024 0.44744,2.41615 0.44743,0.71585 21.2083,23.71389 21.2083,23.71389 0,0 1.3423,2.14767 3.75844,1.87925 2.41613,-0.26847 3.22151,-0.53695 3.9374,-0.98438 0.7159,-0.44744 18.16577,-17.98678 18.16577,-17.98678 l 6.17457,-7.87483 c 0,0 0.44742,-1.8792 0.26846,-3.57944 -0.17898,-1.70023 -2.95306,-4.47435 -2.95306,-4.47435 0,0 -2.68459,-1.7897 -3.40049,-2.05817 -0.71589,-0.26847 -11.36478,-4.83228 -18.16576,-5.01125 -6.80098,-0.17896 -17.53936,2.59511 -17.53936,2.59511 l -10.5594,6.71148 z"
       inkscape:export-xdpi="92"
       inkscape:export-ydpi="92" />
    <path
       inkscape:connector-curvature="0"
       style="display:inline;fill:#cda809;fill-rule:evenodd;stroke:none;stroke-width:1px;stroke-linecap:butt;stroke-linejoin:miter;stroke-opacity:1"
       id="path8112"
       d="m 171.32858,125.92586 5.39742,-6.63928 0.42987,0.14328 -5.92282,7.26022 0.0955,-0.76422 z"
       inkscape:export-xdpi="92"
       inkscape:export-ydpi="92" />
  </g>
  <g
     inkscape:groupmode="layer"
     id="layer10"
     inkscape:label="Tux voeten"
     transform="translate(0,-299.72632)">
    <path
       inkscape:connector-curvature="0"
       style="display:inline;fill:#cda809"
       id="path2227"
       d="m 47.653128,588.63022 c -6.803238,-2.42568 -9.440533,-6.91871 -8.957619,-15.26064 0.695012,-12.00595 8.330997,-20.7582 24.669244,-28.27544 9.989233,-4.59606 16.103878,-5.64532 30.286899,-5.19724 10.026708,0.31674 12.750838,0.68789 18.416518,2.50884 12.62208,4.05676 23.17182,11.67638 27.70928,20.0132 2.37088,4.35609 3.44041,11.56225 2.47769,16.69397 -0.68076,3.62879 -3.89624,7.38738 -7.8602,9.18799 -2.93778,1.33444 -6.01111,1.43481 -43.447789,1.41888 -32.10514,-0.0137 -40.897163,-0.23495 -43.294023,-1.08956 z m 43.605611,-9.11033 c 16.931681,-0.8464 17.333471,-0.90578 19.426591,-2.87095 7.28154,-6.83648 4.86062,-18.9051 -5.16511,-25.7489 -6.301482,-4.30149 -13.146952,-5.95007 -23.012964,-5.5421 -13.497667,0.55818 -22.737805,5.3392 -27.05244,13.99756 -3.442305,6.9078 -2.128271,14.28467 3.36839,18.90982 3.003594,2.52733 5.242158,2.61394 32.435533,1.25457 z m 75.958751,9.31259 c -1.29073,-0.44842 -3.63141,-2.04155 -5.20152,-3.54031 -10.51597,-10.03803 -1.54188,-30.12574 17.5319,-39.24349 9.76893,-4.66983 18.48499,-6.53861 30.28198,-6.49275 12.04781,0.0468 16.34846,0.86557 25.77258,4.9064 9.25006,3.96622 14.59574,7.49749 19.54124,12.90869 6.32451,6.92004 8.91225,17.2056 6.05136,24.0526 -1.36039,3.25591 -5.20207,6.49531 -8.93107,7.53096 -3.96677,1.1017 -81.8457,0.98988 -85.04647,-0.1221 z m 81.01519,-10.56716 c 10.43271,-8.77854 4.83771,-24.72913 -10.80574,-30.80581 -6.30477,-2.44903 -18.78292,-2.98381 -25.7322,-1.10269 -16.80264,4.54828 -24.8235,19.86058 -15.64791,29.87285 l 2.52947,2.76011 11.30856,0.57671 c 6.21971,0.31713 16.82582,0.63087 23.56912,0.69718 l 12.26059,0.12047 2.51811,-2.11882 z M 146.7528,445.61219 c -0.92975,-0.52259 -6.64659,-6.58241 -12.70408,-13.46627 -10.03747,-11.40683 -11.01431,-12.78075 -11.02127,-15.50104 -0.004,-1.6417 0.35762,-3.66742 0.80407,-4.50164 1.00911,-1.88549 7.86083,-5.37311 15.70231,-7.99255 10.11118,-3.37766 20.05919,-1.90392 33.66456,4.98717 1.56852,0.7944 3.41661,2.0092 4.10686,2.69945 1.53063,1.53061 1.63041,5.02438 0.19938,6.98144 -0.95791,1.31001 -1.02351,1.22478 -0.70867,-0.92039 0.4863,-3.31342 -1.65494,-6.98251 -5.0966,-8.73332 -7.90338,-4.02043 -19.72928,-6.17607 -26.58124,-4.84517 -5.70539,1.10815 -13.10233,4.15811 -13.10233,5.40246 0,0.57056 2.2833,1.83472 5.0847,2.81516 10.10425,3.53643 18.55693,8.89981 23.94309,15.19232 1.52661,1.7835 3.17492,3.24274 3.66291,3.24274 0.488,0 2.44312,-1.49611 4.34473,-3.32463 5.28325,-5.08021 2.6361,-1.14752 -5.49036,8.15672 -8.96687,10.26644 -12.41343,12.27751 -16.80806,9.80755 z m 6.16711,-2.78336 c 0.86629,-0.84139 -26.38664,-28.61366 -27.43985,-27.96279 -0.49265,0.3045 -0.89573,1.58385 -0.89573,2.84299 0,1.84351 2.06632,4.5675 10.60978,13.98665 5.83537,6.43348 11.20363,11.86066 11.92946,12.06036 1.533,0.42173 4.97425,-0.12873 5.79634,-0.92721 z"
       inkscape:export-xdpi="92"
       inkscape:export-ydpi="92" />
    <path
       inkscape:connector-curvature="0"
       style="display:inline;fill:url(#linearGradient23835-2-3);fill-opacity:1;stroke:none;stroke-opacity:1"
       id="path22858"
       d="m 115.38406,566.42914 a 31.198039,21.595204 0 0 1 -62.396077,0 31.198039,21.595204 0 1 1 62.396077,0 z"
       inkscape:export-xdpi="92"
       inkscape:export-ydpi="92" />
    <path
       inkscape:connector-curvature="0"
       style="display:inline;fill:url(#linearGradient3203-9-0);fill-opacity:1;stroke:none;stroke-opacity:1"
       id="path3201"
       d="m 253.5784,566.42914 a 31.198038,21.595203 0 0 1 -62.39607,0 31.198038,21.595203 0 1 1 62.39607,0 z"
       inkscape:export-xdpi="92"
       inkscape:export-ydpi="92" />
  </g>
</svg>
