<?xml version='1.0' encoding='utf-8'?>
<svg xmlns="http://www.w3.org/2000/svg" viewBox="0 0 157.16 201"> <g transform="translate(-764.28 -326.15)"> <path d="m878.37 396.2c-8.5139 5.5867-9.5012 23.06-2.2137 39.177 12.957 28.761 35.51 52.833 41.916 48.63s4.1697-34.851-11.18-68.799c-7.2875-16.117-20.009-24.595-28.522-19.008z"/> <path d="m807.34 396.2c8.5139 5.5867 9.5012 23.06 2.2137 39.177-12.957 28.761-35.51 52.833-41.916 48.63s-4.1697-34.851 11.18-68.799c7.2875-16.117 20.009-24.595 28.522-19.008z"/> <path d="m842.49 326.15c-26.503 0-43.955 20.116-44.875 45.438 0 0-0.0303-0.0104-0.0312 0-1.3736 15.903-7.7903 26.783-10.406 42.062-13.557 79.186-0.1875 79.073 10.812 102 29.333-5.3662 58.667-6.1266 88 0 0 0 37.198-27.469 11-101.5-5.7857-10.923-6.4927-28.358-9.625-42.562-5.2203-23.673-18.372-45.438-44.875-45.438z"/> <path d="m890.61 451.64c0 30.47-10.927 39-24.5 39h-46c-13.573 0-24.5-8.53-24.5-39s10.927-55 24.5-55h46c13.573 0 24.5 24.53 24.5 55z" fill="#fff"/> <g transform="matrix(.99309 0 0 .95723 458.16 1158.4)" fill="#fff"> <path d="m402-841.64a10 18 0 0 1 10 18 10 18 0 0 1-10 18 10 18 0 0 1-10-18 10 18 0 0 1 10-18"/> <path d="m372-841.64a10 18 0 0 1 10 18 10 18 0 0 1-10 18 10 18 0 0 1-10-18 10 18 0 0 1 10-18"/> </g> <path d="m875.26 386.7c0 8.723-14.673 19.623-32.772 19.623s-32.772-10.9-32.772-19.623 14.673-11.965 32.772-11.965 32.772 3.2424 32.772 11.965z" fill="#ecb63a"/> <path d="m815.74 387.29c3.5583 6.1603 13.97 12.15 26.255 12.15s22.697-5.99 26.255-12.15c-5.3045 4.8654-15.073 8.9303-26.255 8.9303s-20.95-4.0649-26.255-8.9303z" fill="#876108"/> <path d="m857.39 363.25a6.6206 7.6578 0 0 1 6.6206 7.6578 6.6206 7.6578 0 0 1-6.6206 7.6578 6.6206 7.6578 0 0 1-6.6206-7.6578 6.6206 7.6578 0 0 1 6.6206-7.6578"/> <path d="m827.59 363.25a6.6206 7.6578 0 0 1 6.6206 7.6578 6.6206 7.6578 0 0 1-6.6206 7.6578 6.6206 7.6578 0 0 1-6.6206-7.6578 6.6206 7.6578 0 0 1 6.6206-7.6578"/> <g transform="translate(272.99 1153.8)"> <path d="m574.39-641.24c0-7.865-14.723-17.693-32.886-17.693s-32.886 9.8281-32.886 17.693 14.723 10.788 32.886 10.788 32.886-2.9235 32.886-10.788z" fill="#ecb63a"/> <path d="m569.27-644.62c-1.1416 2.9443-4.5466 6.1732-8.9783 7.1076-3.5502 0.7485-6.9044-0.17246-9.0983-1.7342-1.9547 1.773-4.931 3.1273-8.2581 3.1273-3.0204 0-5.7424-1.1138-7.682-2.644-2.0884 1.8756-5.5924 3.135-9.3864 2.5871-4.5417-0.65587-8.1424-3.7249-9.3624-6.6242-0.22081 0.36638-0.38332 0.77713-0.43211 1.2509-0.34341 3.3352 3.951 8.1685 9.7945 9.0124 3.794 0.5479 7.2981-0.71155 9.3864-2.5872 1.9395 1.5302 4.6615 2.644 7.682 2.644 3.3272 0 6.3034-1.3543 8.2581-3.1273 2.194 1.5618 5.5482 2.4828 9.0983 1.7342 5.7956-1.222 9.8597-6.3584 9.3624-9.6663-0.0604-0.40239-0.20095-0.76671-0.38409-1.0804z" fill="#926a0d"/> <path d="m632.39-641.24c0-7.865-14.723-17.693-32.886-17.693s-32.886 9.8281-32.886 17.693 14.723 10.788 32.886 10.788 32.886-2.9235 32.886-10.788z" fill="#ecb63a"/> <path d="m627.27-644.62c-1.1416 2.9443-4.5466 6.1732-8.9783 7.1076-3.5502 0.7485-6.9044-0.17246-9.0983-1.7342-1.9547 1.773-4.931 3.1273-8.2581 3.1273-3.0204 0-5.7424-1.1138-7.682-2.644-2.0884 1.8756-5.5924 3.135-9.3864 2.5871-4.5417-0.65587-8.1424-3.7249-9.3624-6.6242-0.22081 0.36638-0.38332 0.77713-0.43211 1.2509-0.34341 3.3352 3.951 8.1685 9.7945 9.0124 3.794 0.5479 7.2981-0.71155 9.3864-2.5872 1.9395 1.5302 4.6615 2.644 7.682 2.644 3.3272 0 6.3034-1.3543 8.2581-3.1273 2.194 1.5618 5.5482 2.4828 9.0983 1.7342 5.7956-1.222 9.8597-6.3584 9.3624-9.6663-0.0604-0.40239-0.20095-0.76671-0.38409-1.0804z" fill="#926a0d"/> </g> </g> </svg>