<?xml version='1.0' encoding='utf-8'?>
<svg xmlns:xlink="http://www.w3.org/1999/xlink" xmlns="http://www.w3.org/2000/svg" width="200mm" height="200mm" version="1.1" viewBox="0 0 708.66 708.66"> <defs> <linearGradient id="c"> <stop stop-color="#379000" offset="0"/> <stop stop-color="#2adb00" offset=".42277"/> <stop stop-color="#004b03" offset="1"/> </linearGradient> <linearGradient id="a"> <stop stop-color="#cd5515" offset="0"/> <stop stop-color="#fcc600" offset="1"/> </linearGradient> <linearGradient id="d"> <stop stop-color="#efefef" offset="0"/> <stop stop-color="#fff" offset="1"/> </linearGradient> <linearGradient id="b"> <stop stop-color="#fc9b00" offset="0"/> <stop stop-color="#fccb00" offset="1"/> </linearGradient> <linearGradient id="x" x1="245.05" x2="452.46" y1="277.5" y2="276.79" gradientUnits="userSpaceOnUse" xlink:href="#c"/> <radialGradient id="e" cx="345.92" cy="241.69" r="101.92" gradientTransform="matrix(1.3684 -.16195 .04218 .3564 -137.05 242.71)" gradientUnits="userSpaceOnUse"> <stop stop-color="#234500" stop-opacity="0" offset="0"/> <stop stop-color="#134500" stop-opacity="0" offset=".65004"/> <stop stop-color="#104500" stop-opacity=".51373" offset="1"/> </radialGradient> <linearGradient id="s" x1="646.25" x2="459.71" y1="96.438" y2="263.61" gradientTransform="translate(-21.634 -13.957)" gradientUnits="userSpaceOnUse" xlink:href="#c"/> <linearGradient id="r" x1="665.05" x2="483.88" y1="72.518" y2="274.28" gradientTransform="matrix(.22292 .32075 -.32075 .22292 426.09 47.307)" gradientUnits="userSpaceOnUse" xlink:href="#c"/> <linearGradient id="q" x1="380.24" x2="495.63" y1="103.13" y2="28.276" gradientUnits="userSpaceOnUse" xlink:href="#b"/> <linearGradient id="p" x1="266.19" x2="359.16" y1="112.82" y2="17.705" gradientUnits="userSpaceOnUse" xlink:href="#b"/> <linearGradient id="o" x1="456.19" x2="487.89" y1="451.54" y2="519.35" gradientUnits="userSpaceOnUse" xlink:href="#b"/> <linearGradient id="n" x1="307.06" x2="299.18" y1="468.08" y2="542.93" gradientUnits="userSpaceOnUse" xlink:href="#b"/> <linearGradient id="m" x1="475.14" x2="471.4" y1="352.96" y2="294.74" gradientUnits="userSpaceOnUse" xlink:href="#d"/> <linearGradient id="l" x1="221.55" x2="218.88" y1="357.55" y2="307.21" gradientUnits="userSpaceOnUse" xlink:href="#d"/> <linearGradient id="k" x1="337.85" x2="319.24" y1="454.7" y2="298.76" gradientUnits="userSpaceOnUse" xlink:href="#d"/> <linearGradient id="g" x1="323.52" x2="318.87" y1="253.64" y2="200.35" gradientUnits="userSpaceOnUse" xlink:href="#b"/> <linearGradient id="f" x1="418.87" x2="456.9" y1="146.98" y2="138.35" gradientUnits="userSpaceOnUse" xlink:href="#a"/> <linearGradient id="w" x1="504.09" x2="511.76" y1="491.22" y2="497.83" gradientUnits="userSpaceOnUse" xlink:href="#a"/> <linearGradient id="v" x1="504.09" x2="511.76" y1="491.22" y2="497.83" gradientTransform="matrix(1.5188 .63202 -1.3061 .92815 339.53 -266.56)" gradientUnits="userSpaceOnUse" xlink:href="#a"/> <linearGradient id="u" x1="504.09" x2="511.76" y1="491.22" y2="497.83" gradientTransform="matrix(1.5188 .63202 -1.3061 .92815 173.43 -240.31)" gradientUnits="userSpaceOnUse" xlink:href="#a"/> <linearGradient id="t" x1="504.09" x2="517.94" y1="491.22" y2="501.17" gradientTransform="matrix(-1.2926 .016557 .43381 1.319 678.95 -127.36)" gradientUnits="userSpaceOnUse" xlink:href="#a"/> <linearGradient id="j" x1="299.32" x2="326.47" y1="76.719" y2="54.049" gradientTransform="translate(0 68.661)" gradientUnits="userSpaceOnUse" xlink:href="#a"/> <linearGradient id="i" x1="279.42" x2="277.69" y1="510.51" y2="480.95" gradientUnits="userSpaceOnUse" xlink:href="#a"/> <linearGradient id="h" x1="275.04" x2="283.43" y1="510.57" y2="472.89" gradientTransform="matrix(.79704 -.60393 .60393 .79704 -67.978 244.04)" gradientUnits="userSpaceOnUse" xlink:href="#a"/> </defs> <g transform="translate(0 68.661)"> <path d="m542.62 524.47a59.463 23.347 0 0 1-59.463 23.347 59.463 23.347 0 0 1-59.463-23.347 59.463 23.347 0 0 1 59.463-23.347 59.463 23.347 0 0 1 59.463 23.347z" fill="#333" stroke-opacity="0"/> <path d="m336.28 541.13a64.575 23.333 0 0 1-64.575 23.333 64.575 23.333 0 0 1-64.575-23.333 64.575 23.333 0 0 1 64.575-23.333 64.575 23.333 0 0 1 64.575 23.333z" fill="#333" stroke-opacity="0"/> <path d="m471.7 251.74c11.638 1.6924 30.554 14.913 30.554 14.913s-20.459 13.188-33.38 11.12c-12.996-2.0796-29.055-21.248-29.055-21.248s16.873-6.9678 31.88-4.7854z" fill="url(#r)"/> <path d="m474.79 188.84c20.562-21.994 75.991-42.444 75.991-42.444s-2.1664 62.277-25.391 86.42c-23.359 24.282-87.117 30.037-87.117 30.037s10.003-45.651 36.518-74.012z" fill="url(#s)"/> <path d="m311.95-3.6973c-11.188 45.374-30.988 87.295-55.445 127.35 0 0 44.013-36.418 71.154-33.501 15.275 1.6418 29.405 16.931 58.798 13.101-22.599-3.2963-21.493-33.39-58.371-37.598-6.9098-0.78848-13.763 0.41661-24.366 6.4665 4.254-7.6663 10.34-15.016 13.928-39.097 2.6876-18.04-5.698-36.719-5.698-36.719z" fill="url(#p)"/> <path d="m486.19 349.11c-0.27773 1.1803-33.304 25.711-77.011-19.297l20.906 68.077s23.426-13.379 32.877-20.727c14.384-11.183 23.228-28.053 23.228-28.053z"/> <path d="m486.69 348.96-4.8643 7.9598c-12.774 16.453-30.845 30.953-49.008 39.658l17.95 29.756c18.46-22.993 30.244-50.009 35.922-77.374z" fill="#fff"/> <path d="m259.8 484.55s-26.445 2.3228-41.275 11.614c-14.83 9.2914-21.442 19.297-8.398 32.698l8.0178 1.8756 16.461-0.62487 3.7886 4.8323c1.2308 6.4894 1.869 12.979 6.7536 19.468 18.602 8.7506 33.565-4.3332 48.958-14.83l6.631-2.152c18.608 3.0451 28.781 4.9434 31.249 8e-3 4.5677-8.3364 2.5166-18.526-4.8244-30.197-5.578-8.7757-15.642-14.748-24.837-21.263z" fill="url(#n)"/> <path d="m431.35 476.48s-8.4358 16.218-9.2118 24.873c-0.58088 6.4781-2.5954 19.108 19.74 19.644l9.3158-1.8257 8.3735-6.7509 14.294 1.0721 15.188 6.4325 8.2747 0.19854 7.0918-4.4869c2.3349-2.1321 3.4997-5.4343 3.931-9.4701-1.4396-3.9414-4.9632-7.3039-2.5015-12.329 7.9493-3.5445 14.535-0.72686 21.799-1.0721l5.5401-2.5939 2.3219-5.4467s-0.19809-6.2571-5.8497-10.267c-7.6426-5.4225-12.921-9.2881-23.667-13.705-11.035-4.5358-32.698-8.6335-36.03-7.0656z" fill="url(#o)"/> <path d="m504.95 501.07s-4.1163-7.4681-1.8714-10.018c2.9391-3.3379 13.32 0.77058 13.32 0.77058l-7.3756 0.55042-3.1924 2.4218-0.6605 2.0916z" fill="url(#w)" stroke-opacity="0"/> <path d="m451.99 517.66c3.3482-1.4557 4.704-10.056 10.242-10.481 8.8844-0.68195 19.224 9.1338 19.224 9.1338l-11.921-4.1507-8.012 0.23015-3.7351 1.5239z" fill="url(#v)" stroke-opacity="0"/> <path d="m430.73 476.35 1.6872 0.28119c-3.4688 2.6579-12.188 24.467-10.121 33.239 1.2332 5.2355 3.794 7.4059 8.7212 9.563 3.9507 1.7296 12.231 1.4742 16.407 0.3971 6.252-1.6126 9.0252-7.8704 15.471-8.2477 14.874-0.87049 19.601 7.9264 28.787 8.1371 7.9506 0.18237 12.02-2.2999 15.318-8.7866 2.745-5.4002-5.6071-12.026-1.7579-16.704 4.4138-5.3637 12.21-1.0583 19.126-1.7028 10.173-0.94796 11.394-6.8512 10.018-11.053-4.4508-13.59-50.71-29.481-64.388-27.049l-0.28119-1.406c15.182-1.8073 60.581 13.167 65.857 27.741 1.6901 4.669 1.6832 12.201-10.858 13.302-5.7959 0.50867-14.373-3.7865-18.213 0.5838-3.8487 4.3794 4.6846 9.527 1.6658 16.655-3.3071 7.8083-9.5787 10.058-16.479 9.5606-8.9876-0.64814-15.187-9.1517-28.836-7.6779-6.0917 0.65777-8.3392 5.5194-14.108 7.5824-6.2533 2.2361-14.397 0.96556-17.986-0.17922-4.004-1.2769-9.0027-4.6489-9.9313-10.413-1.6196-10.053 7.1134-31.893 9.9045-33.823z"/> <path d="m409.66 326.97v2.7555c28.126 35.644 62.653 30.933 76.053 20.758-7.9156 33.128-21.518 62.907-38.532 77.467l1.6533 1.2859c10.571-7.6108 31.816-43.028 38.931-82.126-26.469 18.352-57.893 5.167-78.105-20.14z"/> <path d="m309.56 457.03c-5.9191 13.777-5.8633 29.392-7.7726 44.402-10.346 6.1995-28.104 5.7576-40.024-1.5188-9.3949-15.371-17.08-86.025-13.401-97.649l44.759-128.56-42.883-37.612-3.3949-19.029-1.8762-42.169 1.0721-20.459s4.9137-19.923 4.9137-20.548c0-0.62538 10.81-18.583 11.346-18.851 0.53604-0.26802 12.954-13.401 12.954-13.401l11.525-10.185 24.033-17.332 15.456-15.367 13.58-16.617-0.0893 8.13-0.71472 6.4325-1.9655 6.3432 21.084-14.116 25.373-21.442-3.5736 12.865-6.8792 18.047 4.6457-0.0893 7.5939-1.3401 17.064-6.9685 15.545-10.095-9.6487 15.813-10.095 12.597 0.98274-0.53605 1.2508 0.26802 9.5594-2.4122 10.006-6.7005-0.80406 5.5391-7.4152 12.954c33.119 3.7135 60 56.051 59.679 81.746-0.0972 7.774-0.53605 23.318-0.53605 23.318l-6.5218 31.358-13.758 24.658c-12.686 16.515-25.373 23.087-38.059 30.376l-3.3949 46.457c5.8398 38.956 20.549 91.421 66.086 145.35-6.6132 17.358-17.667 24.629-40.714 19.568l-30.554-25.909c-14.194 9.7039-29.112 12.158-43.955 15.367-20.962 1.2867-36.543-4.6024-50.477-12.686z"/> <path d="m123.44 317.75c12.229 11.557 41.232 35.037 61.295 36.569 24.492 1.8698 73.527-20.114 95.138-45.992l18.222-39.053c-57.89 2.55-120.76 15.66-174.65 48.47z" stroke-opacity="0"/> <path d="m169.84 349.81c-12.361-7.2439-11.36-26.483-4.2631-32.701 42.934-37.619 116.46-13.415 116.46-13.415l-1.7919 15.901c10.74 9.5464-64.807 56.938-110.4 30.215z" fill="url(#l)"/> <path d="m413.24 267.74c37.372 8.9914 98.169 13.149 147.62 5.1519-32.495 70.737-115.55 103.86-151.93 42.795l-21.065-2.4228-9.8305-41.617z" stroke-opacity="0"/> <path d="m169.84 349.81c-7.4452-4.3633-10.043-13.078-9.3804-20.679 29.143 34.667 106.39 17.322 121.58-25.437l-1.7919 15.901c10.74 9.5464-64.807 56.938-110.4 30.215z" fill="#d4d4d4"/> <path d="m311.05 453.59c-5.9842 8.7826-8.2622 22.759-10.102 47.148-13.189 6.6873-26.087 6.0838-38.786-1.9208-11.216-32.716-16.715-67.261-11.34-102.05l-1.406-3.3743c-7.7642 35.524-1.1348 71.049 11.81 106.57 13.388 9.5283 30.879 7.639 41.617 1.9684 2.0626-19.193 1.126-29.485 8.2068-48.343z"/> <path d="m319.44 130.1c12.959-17.692 34.149-29.827 62.39-24.582 36.029 6.6912 42.155 71.097 11.929 88.8 62.646 20.345 3.3487 109.42-12.57 75.687 9.0027 37.522 32.941 56.833 29.968 105.26-5.5089 89.731-136.49 101.31-162.37 28.477-3.917-36.304 11.374-91.362 44.9-130.13-13.978-3.841-30.438-15.031-41.439-32.407-6.0616-14.549-6.8919-34.33-6.8003-55.032 0 0-5.1975-58.697 23.862-77.759 23.858-15.651 45.062 4.0785 50.134 21.689z" fill="url(#k)"/> <path d="m280.93 547.21c5.5242-1.8342 8.231-12.283 15.196-13.783 10.076-2.1703 16.54 6.8553 22.104 6.2537-4.901 0.45636-10.378-1.1035-15.657-1.9712l-7.1557 0.93072-3.7351 1.5239z" fill="url(#u)" stroke-opacity="0"/> <path d="m241.14 547.26c-0.80461-10.686 3.4166-15.651 0.53115-18.594-5.5931-5.7057-16.711 2.5684-28.199 1.1541 3.0217 2.2076 18.094-0.78116 21.975 0.36546l4.29 3.4627-0.26273 2.7478c-0.60536 6.6809 1.8672 11.294 2.6773 13.121z" fill="url(#t)" stroke-opacity="0"/> <path d="m303.82 487.33v1.9684c13.008 1.9795 39.771 33.201 27.609 47.884-6.0296 7.2791-22.224-1.2603-31.594-0.0214-10.423 1.3779-17.361 10.415-26.731 15.56-5.3033 2.9116-11.708 4.5235-19.465 3.1884-6.2152-1.0698-10.313-3.6646-12.071-7.8919-2.2571-5.4284 0.38114-13.589-3.745-16.836-4.6299-3.6439-13.651-0.69783-20.384-0.96609-6.8845-0.27429-11.962-4.3046-12.966-10.245-2.286-13.52 8.622-20.721 21.01-26.779 14.014-6.8538 31.249-7.5691 31.249-7.5691l-0.56239-1.9684s-16.717 1.0079-30.723 7.8281c-13.137 6.3966-24.587 15.872-22.273 28.825 1.123 6.2862 6.6016 10.725 13.512 11.289 6.5935 0.53815 14.537-2.7538 19.347 0.98639 4.4182 3.4353 2.0023 11.157 4.2317 16.546 1.8716 4.5243 5.8493 7.2196 12.732 8.3138 7.4051 1.1773 16.001-0.1191 22.796-4.1551 8.4302-5.007 15.03-13.24 24.244-14.518 9.6387-1.3371 26.964 7.2015 32.821-0.56962 12.081-16.03-13.093-46.404-29.036-50.868z"/> <path d="m309.99 456.1-0.99077 2.3389c37.57 19.016 67.527 12.16 95.361-2.9013l-0.84358-1.406c-25.612 14.766-58.883 22.531-93.526 1.9684z"/> <path d="m366.33 69.365c10.963-14.188 15.582-31.336 21.165-48.033-11.107 13.683-36.875 34.384-64.729 48.437 18.687-7.2772 38.443-20.539 59.005-38.309-3.264 14.048-10.492 30.007-15.441 37.906z"/> <path d="m373.16 58.375c16.276-1.2148 34.386-11.161 45.598-20.311 0.18604 9.0683-18.364 29.594-31.63 41.251 10.148-11.108 26.815-31.615 28.54-36.895-10.936 7.8936-29.745 17.775-42.508 15.956z"/> <path d="m397.18 67.787c8.7722 0.32884 18.954-6.309 24.977-12.152-1.2934 10.556-7.3323 21.547-18.218 30.242 5.3491-5.6937 12.208-15.533 15.184-24.86-6.632 5.0876-16.138 8.5976-21.942 6.7695z"/> <path d="m337.14 62.121c3.7977-6.2775 5.2393-15.466 3.1836-23.051-0.78115 3.4701-16.053 22.466-28.93 33.413-13.054 11.097-43.93 27.461-58.495 55.888-9.7094 18.95-9.7764 41.032-8.1432 62.865 1.2516 16.733 0.79438 35.602 6.4062 49.026 8.8625 21.201 35.848 35.879 58.052 36.94-19.927-1.8115-48.019-17.4-56.859-38.86-5.0894-12.356-5.2371-31.487-6.3212-46.652-0.87982-12.308-2.2093-43.079 7.2476-61.001 17.232-32.657 45.951-45.237 58.515-56.437 6.8913-6.1435 19.111-18.324 26.933-29.099 0.88162 6.5027 0.0981 12.063-1.5891 16.968z"/> <path d="m460.77 121.66c5.4433 52.082-19.307 73.45-51.514 80.812 7.1e-4 5.8e-4 1e-3 1e-3 2e-3 2e-3 32.193 26.349-5.305 85.322-23.244 73.516-1.082 0.89128-1.9626 1.6881-2.4942 2.3516 0.27082 0.85778 0.54581 1.7098 0.83008 2.5508 3.0701 0.8053 11.259 0.34308 27.449-1.3613l0.77735-10.65c12.686-7.2889 25.374-13.862 38.061-30.377l13.758-24.656 6.5215-31.359s0.43796-15.544 0.53516-23.318c0.12454-9.9614-3.851-23.925-10.682-37.51z" fill="#191919"/> <path d="m469.73 142.97c6.4597 49.734-7.9326 111.6-73.528 131.29 21.186-4.4869 87.328-29.837 73.528-131.29z"/> <path d="m316.64 285.67c1.1108 6.5676-37.624 5.5367-46.447 25.579 32.874 12.527 91.497 7.325 125.15-4.2371-8.4045-19.068-39.524-6.6248-29.596-25.25z" fill="#d4d4d4"/> <path d="m391.76 299.16-4.4512 0.28125s28.641 73.599-30.705 117.24c-34.065 25.05-84.911 11.539-108.29-19.094 0.0994 2.0978 0.24614 4.1537 0.46094 6.1445 25.884 72.831 156.86 61.254 162.37-28.477 2.1117-34.396-9.3456-54.116-19.393-76.096z" fill="#d4d4d4" stroke-opacity="0"/> <path d="m409.12 312.67c-2.3372-15.321 36.282-26.484 60.379-27.667 14.55-0.71462 44.054 0.57363 49.687 11.013 6.0766 11.262 0.98884 28.765-12.158 38.68-26.766 20.186-91.351 20.959-97.908-22.026z" fill="url(#m)"/> <path d="m406.62 284.35c1.3901 67.272 34.113 136.47 70.014 176.32-4.6688 10.921-12.22 24.89-41.459 20.356-22.493-14.926-39.97-32.562-49.483-49.808 14.315 18.27 30.914 35.581 51.045 48.31 16.383 2.7782 29.015 0.77983 38.313-18.523-33.653-38.062-68.517-103.2-68.43-176.66z"/> <path d="m487.07 347.92c-11.028 19.174-31.387 36.585-53.67 47.44v2.2496c38.867-20.276 47.267-36.574 53.67-49.689z"/> <path d="m368.97 134.48c-12.679 0.60259-25.725 18.3-23.641 34.589 1.2736 9.9503 13.456 19.505 28.097 18.772 13.006-0.65062 23.816-10.334 23.263-23.078-0.6493-14.97-16.924-30.797-27.72-30.284z" fill="#f2f2f2" stroke="#000" stroke-linecap="round" stroke-linejoin="round" stroke-width="1.5"/> <path d="m376.93 147.27c-3.0388-1.0129-5.006 3.8373-3.6334 7.1372 1.186 2.8514 6.2867 4.018 9.3578 1.6695 4.685 14.055-0.5665 25.518-10.128 26.42-7.0294 0.66335-14.408-4.6353-15.909-14.677-1.6525-11.058 1.6573-22.451 9.9818-24.769 5.9448-1.6554 10.33 2.8225 10.33 4.2196z"/> <path d="m276.98 138.35c-15.501 1.8354-27.515 26.242-22.26 40.94 3.1737 8.8761 15.687 11.88 24.693 9.0957 10.692-3.3056 20.061-14.18 19.23-25.341-0.77734-10.443-11.264-25.926-21.663-24.694z" fill="#f2f2f2" stroke="#000" stroke-linecap="round" stroke-linejoin="round" stroke-width="1.5"/> <path d="m283.25 155.1c-5.4598-0.37654-6.786 3.4941-5.8351 6.6968 0.9114 3.0697 5.4023 4.8585 8.4203 0.82391 2.3517 6.1781-1.2531 20.281-8.8607 21.633-11.34 2.0161-15.85-6.3318-15.852-13.21-2e-3 -9.1799 4.1036-18.596 11.341-20.971 4.9-1.6083 9.5875 1.3253 10.787 5.0274z"/> <path d="m367.55 199.34c-6.5556 0.0907-12.6 0.4257-23.024-1.806-12.132-2.5974-24.198-9.7973-47.425-5.7217-9.3747 1.645-14.974 4.8969-24.744 10.384-3.9824 2.2364-6.0909 1.0064-8.8074 1.3549-3.356 0.43062-5.1032 1.8303-5.712 4.617-3.0556 13.985 32.515 37.029 54.562 35.419 26.069-1.9029 46.019-21.673 58.786-34.3 4.9359-4.882 4.4717-10.059-3.6346-9.947z" fill="url(#g)"/> <g fill="none" stroke="#a74100" stroke-linecap="round" stroke-linejoin="round" stroke-width="1.2"> <path d="m261.58 211.45c8.0406 1.7868 23.579 11.435 43.567 10.672 21.111-0.8067 52.467-14.886 64.033-17.4"/> <path d="m315.28 203.19 7.926-0.88066"/> <path d="m286.66 203.19 7.926 0.88067"/> </g> <path d="m409.25 202.47c-0.44178 52.999-118.16 65.79-151.92 44.892 3.2498 4.1637 6.286 8.1785 10.008 11.434 4.4705 3.6885 9.4334 6.6608 13.787 7.1797l47.564 22.301 56.164-5.9121c-1.3775-3.9289-2.6258-8.0197-3.668-12.363 14.298 30.298 63.574-38.472 28.064-67.531z" fill="#d4d4d4"/> <path d="m264.45 259.05c-9.6411-2.2519-15.649 3.2869-15.724 9.2914-0.0656 5.2894 4.2883 11.436 4.2883 11.436s-5.1704 9.0787-4.2883 14.294c3.8815 22.95 85.468 19.146 120.07 13.58 27.392-4.4063 69.301-9.399 82.911-34.935 3.0839-5.7861-4.1814-12.752-6.4362-11.522 4.0759-1.6766 8.8145-7.7064 4.7107-16.688-1.8039-3.9479-9.7138-2.6099-9.7138-2.6099s-58.219 19.376-89.34 21.799c-23.795 1.8529-62.53 0.94871-86.481-4.6457z" fill="url(#x)"/> <path d="m475.95 9.5173c-30.545 35.369-67.199 63.756-107.16 88.367 0 0 55.741-12.504 78.609 2.4022 12.871 8.3893 18.532 28.423 46.467 38.337-18.648-13.184-4.0171-39.506-34.979-59.978-5.8012-3.8357-12.456-5.8687-24.649-5.284 7.2676-4.9042 16.024-8.6956 30.141-28.533 10.575-14.86 11.57-35.311 11.57-35.311z" fill="url(#q)"/> <path d="m253.01 279.78s-5.1704 9.0787-4.2883 14.294c3.8815 22.95 85.468 19.146 120.07 13.58 27.392-4.4063 69.301-9.399 82.911-34.935 3.0839-5.7861-4.1814-12.752-6.4362-11.522-72.11 32.619-149.92 34.748-192.26 18.583z" fill="url(#e)"/> <path d="m409.12 312.67c13.903 31.838 98.224 40.058 110.07-16.654 6.0766 11.262 0.98884 28.765-12.158 38.68-26.766 20.186-91.351 20.959-97.908-22.026z" fill="#d4d4d4"/> <path d="m263.15 123.83s9.6111-1.0823 19.098 4.4923c9.2891 5.4582 13.373 14.989 13.373 14.989s-10.504 2.6453-23.634-5.4022c-8.7026-5.3342-8.8377-14.079-8.8377-14.079z"/> <path d="m340.56 140.65s5.6484-8.3294 18.926-13.891c11.911-4.9896 27.711-4.9472 27.711-4.9472s-5.4235 10.926-22.102 16.989c-13.855 5.0362-24.535 1.85-24.535 1.85z"/> <path d="m450.54 61.294c-9.0721 7.4658-20.904 14.166-30.24 16.779 11.732-2.4231 26.256-4.0397 35.896-1.0254-5.2376-2.7839-11.595-4.1825-21.957-3.6855 4.5387-3.0628 9.6577-5.6944 16.301-12.068z" fill="url(#f)" stroke-opacity="0"/> <path d="m310.18 60.411c-4.2482 7.3261-10.203 15.016-16.283 20.041 6.0057-3.2187 12.795-7.3357 17.82-12.281-2.434 0.99139-5.0654 2.2804-7.9902 3.9492 1.9121-3.4459 4.194-6.8428 6.4531-11.709z" fill="url(#j)"/> <path d="m259.45 498.13c1.8978 3.1629 13.855 7.0958 21.213 7.391 8.095 0.32477 19.36-2.005 24.381-5.2793-4.7768 5.2406-16.192 9.4764-25.629 8.7349-11.193-0.87953-18.9-7.0096-19.965-10.847z" fill="url(#i)"/> <path d="m431.59 479.48c6.3984 3.9665 23.242 1.9606 29.434-2.025 9.0916-5.8517 14.604-13.962 16.628-19.604-0.64238 7.0618-6.7884 16.533-14.857 21.483-8.7808 5.3871-26.023 6.3042-31.205 0.14616z" fill="url(#h)"/> <path d="m249.31 272.17c1.1737 4.0411 3.6992 7.6133 3.6992 7.6133s-3.0688 5.4012-4.0703 10.266l0.0176 0.40625c-0.20037 0.27551 1.1714-6.3427 5.6797-7.9707 7.1149 3.634 14.858 3.5631 20.461 3.1328-8.042-0.41216-19.408-2.727-25.787-13.447z" fill="#134500"/> </g> </svg>