<?xml version='1.0' encoding='utf-8'?>
<svg xmlns="http://www.w3.org/2000/svg" viewBox="0 0 383.18 407.28"> <defs> <filter id="c"> <feGaussianBlur stdDeviation=".8408"/> </filter> <linearGradient id="b" x1="321.55" x2="360.21" y1="426.61" y2="424.26" gradientUnits="userSpaceOnUse"> <stop stop-color="#ffcd00" offset="0"/> <stop stop-color="#e6b900" offset=".5"/> <stop stop-color="#ffcd00" offset="1"/> </linearGradient> <linearGradient id="a" x1="326.43" x2="355.7" y1="443.19" y2="440.51" gradientUnits="userSpaceOnUse"> <stop stop-color="#ffd200" offset="0"/> <stop stop-color="#e6b900" offset=".5"/> <stop stop-color="#ffb500" offset="1"/> </linearGradient> </defs> <g transform="translate(-164.78 -263.38)"> <path d="m344.01 264.38c-19.197 15.377-28.464 29.296-38.161 45.064-38.295 12.889-67.552 59.705-61.364 124.95-90.466 56.358-121.36 114.81 7.6706 80.05 12.95 209.65 265.36 134.56 216.88-29.34 142.1-80.369 62.477-90.592-22.82-81.308-16.678-71.293-72.499-104.01-121.39-98.566 0.22705-13.889 12.388-26.383 19.176-40.846z"/> <path d="m295.7 365.32c10.117-2.1449 20.722 7.729 23.777 22.139s-2.6312 27.738-12.749 29.882-20.722-7.729-23.777-22.139 2.6312-27.738 12.749-29.883z" fill="#fff"/> <path d="m305.96 390.79c4.282 0 7.7294 3.931 7.7294 8.8138s-3.4474 8.8138-7.7294 8.8138-7.7288-3.9309-7.7288-8.8138 3.4474-8.8138 7.7288-8.8138z"/> <path d="m365.14 354.44c-10.341-0.17533-18.867 11.54-19.117 26.269s7.8746 26.726 18.215 26.901 18.867-11.54 19.117-26.268-7.8746-26.726-18.215-26.902z" fill="#fff"/> <path d="m359.92 381.4c-4.2034 0.81691-6.8375 5.3334-5.906 10.127s5.0656 7.9942 9.269 7.1773 6.8369-5.3332 5.9054-10.126-5.0656-7.9942-9.2684-7.1774z"/> <path transform="matrix(6.1364 0 0 6.1364 -8016.3 -3762.3)" d="m1365.5 685.97c7.7858 0 14.054 6.2323 14.054 13.974s-6.2679 13.974-14.054 13.974-14.054-6.2323-14.054-13.974 6.268-13.974 14.054-13.974z" fill="#fff" filter="url(#c)"/> <path d="m473.96 558.29-35.596 1.1864-26.103-11.865-21.357 27.29-22.544 8.3056c79.016 54.288 115.18 47.353 105.6-24.917z" fill="#fc0" stroke="#e6b900" stroke-linecap="round" stroke-linejoin="round" stroke-width="2.0136"/> <path d="m373.16 607.98-35.596 1.1864-26.103-11.865-21.357 27.29-22.544 8.3056c79.016 54.288 115.18 47.353 105.6-24.917z" fill="#fc0" stroke="#e6b900" stroke-linecap="round" stroke-linejoin="round" stroke-width="2.0136"/> <path d="m300.5 429.92s26.846 16.636 40.998 14.786c15.617-2.0415 37.508-27.156 37.508-27.156l-78.506 12.37" fill="url(#a)"/> <path d="m300.5 429.92 39.403 8.0905 39.103-20.46c-24.947-6.6453-52.841-6.8778-78.506 12.37z" fill="url(#b)"/> <path d="m378.91 417.22-38.928 20.519-39.503-8.0541v0.57498c13.171 2.6533 26.323 5.474 39.502 8.0541l39.12-20.519z"/> </g> </svg>