<?xml version='1.0' encoding='utf-8'?>
<svg xmlns:xlink="http://www.w3.org/1999/xlink" xmlns="http://www.w3.org/2000/svg" viewBox="0 0 1323.9 1027.7"> <defs> <filter id="ak"> <feGaussianBlur stdDeviation="1.5943"/> </filter> <filter id="al"> <feGaussianBlur stdDeviation="2.5235"/> </filter> <filter id="ai"> <feGaussianBlur stdDeviation="1.288"/> </filter> <filter id="aj"> <feGaussianBlur stdDeviation="1.3446"/> </filter> <filter id="ag"> <feGaussianBlur stdDeviation="2.7785"/> </filter> <filter id="ah"> <feGaussianBlur stdDeviation="3.3904"/> </filter> <filter id="an" x="-.09654" y="-.20678" width="1.1931" height="1.4136"> <feGaussianBlur stdDeviation="2.7734"/> </filter> <filter id="ao" x="-.12307" y="-.29662" width="1.2461" height="1.5932"> <feGaussianBlur stdDeviation="6.0251"/> </filter> <filter id="am" x="-.11995" y="-.16224" width="1.2399" height="1.3245"> <feGaussianBlur stdDeviation="8.0935"/> </filter> <filter id="ap" x="-.06171" y="-.10381" width="1.1234" height="1.2076"> <feGaussianBlur stdDeviation="5.7853"/> </filter> <linearGradient id="a"> <stop stop-color="#fff" offset="0"/> <stop stop-color="#fff" stop-opacity="0" offset="1"/> </linearGradient> <linearGradient id="c"> <stop stop-color="#ed8888" offset="0"/> <stop stop-color="#e24040" offset="1"/> </linearGradient> <linearGradient id="b"> <stop stop-color="#e55151" offset="0"/> <stop stop-color="#550c0c" offset="1"/> </linearGradient> <linearGradient id="f"> <stop stop-color="#d2d2d2" offset="0"/> <stop stop-color="#d2d2d2" offset=".88"/> <stop stop-color="#808080" offset="1"/> </linearGradient> <linearGradient id="e"> <stop stop-color="#e3dedb" offset="0"/> <stop stop-color="#e3dedb" stop-opacity="0" offset="1"/> </linearGradient> <linearGradient id="af" x1="277.27" x2="565.79" gradientUnits="userSpaceOnUse"> <stop stop-color="#fff" stop-opacity=".498" offset="0"/> <stop stop-color="#fff" stop-opacity="0" offset="1"/> </linearGradient> <linearGradient id="ac" x1="283.36" x2="282.29" y1="212.32" y2="414.49" gradientTransform="matrix(-1.029 0 0 -.58994 990.1 964.88)" gradientUnits="userSpaceOnUse"> <stop stop-color="#999" offset="0"/> <stop stop-color="#fff" offset="1"/> </linearGradient> <linearGradient id="aa" x1="239.46" x2="167.4" y1="319.41" y2="362.91" gradientTransform="matrix(1.3396 0 0 1.1456 445.28 264.32)" gradientUnits="userSpaceOnUse"> <stop stop-color="#fff" offset="0"/> <stop stop-color="#ec9500" offset="1"/> </linearGradient> <linearGradient id="y" x1="1466.7" x2="1484.5" y1="270" y2="303.34" gradientTransform="matrix(1 0 0 .81005 -857.72 329.06)" gradientUnits="userSpaceOnUse"> <stop stop-color="#3c3c3c" offset="0"/> <stop stop-color="#3c3c3c" stop-opacity="0" offset="1"/> </linearGradient> <linearGradient id="w" x1="754.62" x2="794.13" gradientUnits="userSpaceOnUse"> <stop stop-color="#414141" offset="0"/> <stop stop-color="#ababab" offset=".5"/> <stop stop-color="#414141" offset="1"/> </linearGradient> <linearGradient id="v" x1="581.59" x2="940.48" y1="405.69" y2="439.14" gradientUnits="userSpaceOnUse"> <stop stop-color="#ff6519" offset="0"/> <stop stop-color="#ffe729" offset="1"/> </linearGradient> <linearGradient id="ae" x1="260.76" x2="263.89" y1="72.362" y2="149.3" gradientUnits="userSpaceOnUse" xlink:href="#a"/> <linearGradient id="ad" x1="1449.7" x2="1487.2" y1="177.43" y2="237.22" gradientTransform="matrix(.77115 0 0 .69056 -462.27 357.56)" gradientUnits="userSpaceOnUse" xlink:href="#a"/> <linearGradient id="ab" x1="810.19" x2="829.49" y1="500.98" y2="529.37" gradientUnits="userSpaceOnUse" xlink:href="#a"/> <linearGradient id="z" x1="632.7" x2="645" y1="506.65" y2="556.5" gradientUnits="userSpaceOnUse" xlink:href="#a"/> <linearGradient id="x" x1="1491.3" x2="1506.4" y1="216.93" y2="262.63" gradientTransform="matrix(.75694 0 0 .7188 -354.96 364.26)" gradientUnits="userSpaceOnUse" xlink:href="#a"/> <linearGradient id="d" x1="198.75" x2="316.25" gradientUnits="userSpaceOnUse" xlink:href="#a"/> <linearGradient id="u" x1="604.94" x2="617.71" y1="249.11" y2="412.61" gradientUnits="userSpaceOnUse" xlink:href="#c"/> <radialGradient id="m" cx="419.66" cy="-36.612" r="27.473" gradientTransform="matrix(.65244 0 0 .58806 -155.89 96.194)" gradientUnits="userSpaceOnUse"> <stop stop-color="#fd0" offset="0"/> <stop stop-color="#fedb00" offset=".4225"/> <stop stop-color="#fad400" offset=".5747"/> <stop stop-color="#f3c900" offset=".6831"/> <stop stop-color="#e9b800" offset=".7702"/> <stop stop-color="#e3ad00" offset=".8107"/> <stop stop-color="#f7b100" offset="1"/> </radialGradient> <radialGradient id="g" cx="455.5" cy="-40.35" r="14.103" fy="-32.883" gradientTransform="matrix(1.4865 -8.4173e-7 1.0407e-6 1.8378 -221.6 32.465)" gradientUnits="userSpaceOnUse"> <stop stop-color="#fd5656" stop-opacity=".6863" offset="0"/> <stop stop-color="#fff" stop-opacity=".7091" offset="1"/> </radialGradient> <radialGradient id="t" cx="-982.12" cy="556.82" r="72.45" gradientTransform="matrix(.68367 -.72979 .56815 .53225 812.67 -285.5)" gradientUnits="userSpaceOnUse" xlink:href="#b"/> <radialGradient id="s" cx="-442.97" cy="605.65" r="62.923" gradientTransform="matrix(1 0 0 1.0575 578.02 11.368)" gradientUnits="userSpaceOnUse" xlink:href="#b"/> <radialGradient id="r" cx="343.84" cy="301.46" r="143.75" gradientTransform="matrix(-1.4986 -.87434 1.5652 -2.6828 866.79 1492.5)" gradientUnits="userSpaceOnUse" xlink:href="#b"/> <radialGradient id="q" cx="-773.39" cy="437.64" r="84.735" gradientTransform="matrix(1 0 0 1.0751 1403.7 41.07)" gradientUnits="userSpaceOnUse" xlink:href="#b"/> <radialGradient id="p" cx="248.12" cy="292.99" r="66.875" gradientTransform="matrix(1.1003 0 0 1.1639 361.32 179.3)" gradientUnits="userSpaceOnUse" xlink:href="#f"/> <radialGradient id="o" cx="-773.39" cy="437.64" r="84.735" gradientTransform="matrix(-.74645 0 0 .79387 216.69 174.69)" gradientUnits="userSpaceOnUse" xlink:href="#b"/> <radialGradient id="n" cx="248.12" cy="292.99" r="66.875" gradientTransform="matrix(-.81016 0 0 .85698 991.5 277.78)" gradientUnits="userSpaceOnUse" xlink:href="#f"/> <radialGradient id="l" cx="402.1" cy="-241.62" r="52.605" gradientTransform="matrix(.79959 0 -1.0064e-8 .82119 206.38 612.81)" gradientUnits="userSpaceOnUse" xlink:href="#c"/> <radialGradient id="k" cx="301.71" cy="-325.83" r="72.375" gradientTransform="matrix(-1.0012 1.6758 -.68162 -.39961 526.24 -215.9)" gradientUnits="userSpaceOnUse" xlink:href="#c"/> <radialGradient id="j" cx="427.24" cy="558.43" r="33.398" gradientTransform="matrix(1.6171 .13316 -.18721 2.2736 -10.936 -972.61)" gradientUnits="userSpaceOnUse" xlink:href="#e"/> <radialGradient id="i" cx="307.15" cy="658.39" r="33.146" gradientTransform="matrix(-1 -1.7285 1.4513 -.83964 -186.74 1530.1)" gradientUnits="userSpaceOnUse" xlink:href="#e"/> <radialGradient id="h" cx="93.483" cy="704.35" r="42.414" gradientTransform="matrix(.98738 .15838 -1.2243 7.6324 1018 -4772.6)" gradientUnits="userSpaceOnUse" xlink:href="#a"/> </defs> <g transform="translate(27.564 -21.487)"> <g transform="matrix(1.5478 0 0 1.421 -381.66 -311.78)" fill-rule="evenodd"> <path d="m322.03 682.54c51.52 7.7083 222.2 43.201 229.37 36.481-7.232-3.011-82.299-93.09-87.024-98.098-37.907 11.934-75.021 28.945-142.35 61.616z" fill="url(#t)"/> <path d="m903.42 605.85c0 34.472-64.628 62.449-144.26 62.449s-144.26-27.977-144.26-62.449 64.628-62.449 144.26-62.449 144.26 27.977 144.26 62.449z" fill="url(#af)"/> <path d="m1084.1 687.69c-9.2066 1.5029-183.7 15.911-192.46 13.705 5.7631-7.0535 24-115.71 26.809-123.2 4.1874 6.7488 159.12 100.62 165.65 109.49z" fill="url(#s)"/> <path d="m944.62 601.91c0 142.47-111.74 258.1-249.41 258.1s-249.41-115.63-249.41-258.1 111.74-258.1 249.41-258.1 249.41 115.63 249.41 258.1z" fill="url(#r)"/> <path transform="matrix(1.8025 0 0 2.5558 243.41 174.93)" d="m363.75 139.24c0 36.915-50.4 66.875-112.5 66.875s-112.5-29.96-112.5-66.875 50.4-66.875 112.5-66.875 112.5 29.96 112.5 66.875z" fill="url(#ae)" filter="url(#ap)"/> <path d="m715.01 521.12c0 35.887-36.85 81.541-82.255 81.541s-79.911-50.341-82.255-81.541c0.0977-9.9108 0.9252-10.713-1.8212-9.3501 0.3787-0.88317 2.9451-5.3471 3.4933-8.1783s-7.3362 1.5691-6.5347-1.1549 10.289-12.572 11.33-15.174-10.507-1.8251-9.2407-4.2908 15.349-8.174 16.828-10.489-7.4363-7.3121-5.7596-9.461 13.945-1.4492 15.806-3.4178-5.0281-9.6439-2.9966-11.418 12.984 2.3543 15.172 0.79013-4.3878-12.135-2.0568-13.475 13.569 6.5508 16.029 5.4496-2.4768-13.128 0.0983-13.976 12.662 9.4832 15.339 8.9034-1.5051-15.109 1.2589-15.406 12.474 13.637 15.312 13.637 0.9466-12.277 3.7106-11.98 10.184 13.169 12.86 13.749 5.8582-13.342 8.4333-12.494 4.5437 16.465 7.0036 17.567 10.107-13.695 12.438-12.355-0.6542 18.816 1.534 20.38 10.378-10.298 12.41-8.5241-2.0955 17.183-0.2345 19.152 7.7766-4.8079 9.4533-2.659-0.8853 13.223 0.5934 15.538 6.1694-9.1023 7.4362-6.6366-0.8905 18.814 0.1505 21.416 5.0042-8.2656 5.8057-5.5417-3.2188 14.255-2.6706 17.086 2.724-3.74 3.2003-2.7592c0.281 0.29723 0.1319 4.8104 0.1319 25.073z" fill="url(#q)"/> <path d="m707.9 520.29c0 42.964-32.964 77.833-73.58 77.833s-73.58-34.869-73.58-77.833 32.964-77.833 73.58-77.833 73.58 34.869 73.58 77.833z" fill="url(#p)"/> <path d="m587.63 476.08s20.82-34.624 60.972-22.639 47.588 31.961 57.998 79.902-41.639 5.3268-41.639 5.3268-5.9485-41.283-32.717-53.268-44.613-7.9902-44.613-9.3219z" fill="url(#ad)" filter="url(#ah)"/> <path d="m564.36 761.43c0-46.812 66.266-84.804 147.92-84.804s147.92 37.992 147.92 84.804-66.266 84.804-147.92 84.804-147.92-37.992-147.92-84.804z" fill="url(#ac)"/> <path d="m730.77 529.17c0 26.5 27.507 60.212 61.4 60.212s59.65-37.173 61.4-60.212c-0.0729-7.3184-0.6906-7.9108 1.3594-6.9044-0.2826-0.65215-2.1984-3.9484-2.6075-6.0391s5.476 1.1587 4.8778-0.8528-7.6802-9.2837-8.4573-11.205 7.8433-1.3477 6.8978-3.1685-11.457-6.0359-12.561-7.7451 5.5508-5.3995 4.2992-6.9863-10.409-1.0701-11.799-2.5238 3.7533-7.1213 2.2369-8.431-9.6916 1.7384-11.325 0.58346 3.2752-8.9608 1.5353-9.9502-10.128 4.8373-11.965 4.0242 1.8488-9.694-0.0734-10.32-9.4517 7.0027-11.45 6.5745 1.1235-11.157-0.9397-11.376-9.3111 10.07-11.429 10.07-0.7066-9.066-2.7698-8.8465-7.6014 9.7244-9.5993 10.153-4.3729-9.8521-6.2951-9.226-3.3916 12.158-5.2278 12.972-7.5444-10.113-9.2843-9.1232 0.4883 13.894-1.145 15.049-7.7468-7.6042-9.2632-6.2944 1.5642 12.688 0.1751 14.142-5.8048-3.5503-7.0565-1.9634 0.6609 9.7643-0.4429 11.474-4.6051-6.7214-5.5507-4.9007 0.6647 13.893-0.1124 15.814-3.7354-6.1036-4.3336-4.0921 2.4026 10.526 1.9934 12.617-2.0333-2.7618-2.3889-2.0375c-0.2097 0.21948-0.0985 3.5521-0.0985 18.514z" fill="url(#o)"/> <path d="m736.3 528.87c0 31.636 24.272 57.311 54.179 57.311s54.179-25.675 54.179-57.311-24.272-57.311-54.179-57.311-54.179 25.675-54.179 57.311z" fill="url(#n)"/> <path d="m764.78 498.22s13.9-23.811 40.706-15.568 31.771 21.979 38.72 54.948-27.799 3.6632-27.799 3.6632-3.9714-28.39-21.842-36.632-29.785-5.4948-29.785-6.4105z" fill="url(#ab)" filter="url(#ag)"/> <path d="m601.95 626.73c13.197-3.0575 195.67-27.521 207.97-25.927-8.6977 9.4838-93.66 143.64-98.189 153.28-5.4713-7.8147-101.12-117.21-109.78-127.35z" fill="#ec9500"/> <path d="m634.75 635.03c6.5572-1.7616 155.83-28.102 161.94-27.183-4.3215 5.4642-81.861 114.15-84.111 119.7-2.7182-4.5028-73.528-86.678-77.83-92.521z" fill="url(#aa)" filter="url(#am)"/> <g transform="translate(42.758 -43.033)"> <path d="m659.3 548.63c0 17.729-13.603 32.118-30.363 32.118s-30.364-14.389-30.364-32.118 13.603-32.118 30.364-32.118 30.363 14.389 30.363 32.118z"/> <path d="m626.55 520.94s6.6678 19.263 7.1617 35.562c14.57-4.9391 22.226-9.8782 22.226-9.8782s-3.7044-25.683-29.388-25.683z" fill="url(#z)"/> <path d="m610.68 527.8s-2.4696 17.404 6.6678 29.207 19.51 15.604 27.412 17.004c-2.4696 1.8004-13.583 6.6016-23.955-0.20005s-15.558-13.403-15.558-22.405 1.9756-20.205 5.433-23.606z" fill="url(#y)"/> </g> <g transform="translate(35.608 -42.679)"> <path d="m750.53 546.51c0 13.055 10.016 23.65 22.358 23.65s22.358-10.595 22.358-23.65-10.016-23.65-22.358-23.65-22.358 10.595-22.358 23.65z"/> <path d="m771.31 527.48s5.0471 13.846 5.421 25.562c11.029-3.5502 16.824-7.1005 16.824-7.1005s-2.804-18.461-22.245-18.461z" fill="url(#x)"/> <path d="m760.05 534.27s-2.4696 12.968 6.6678 21.763 19.51 11.627 27.412 12.67c-2.4696 1.3415-13.583 4.919-23.955-0.14906s-15.558-9.987-15.558-16.695 1.9757-15.055 5.433-17.589z" fill="url(#w)"/> </g> <g transform="translate(2.0203 42.426)"> <path d="m642.82 840.75c0 41.158-44.1 74.561-98.437 74.561s-98.437-33.403-98.437-74.561 44.1-74.561 98.437-74.561 98.437 33.403 98.437 74.561z" fill="#ec9500"/> <path transform="matrix(.85087 0 0 1.6399 352.8 -48.786)" d="m316.25 535.49c0 13.455-26.32 24.375-58.75 24.375s-58.75-10.92-58.75-24.375 26.32-24.375 58.75-24.375 58.75 10.92 58.75 24.375z" fill="url(#d)" filter="url(#ao)"/> </g> <g transform="translate(20.203 36.365)"> <path d="m948.27 841.01c0 41.158-44.1 74.561-98.437 74.561s-98.437-33.403-98.437-74.561 44.1-74.561 98.437-74.561 98.437 33.403 98.437 74.561z" fill="#ec9500"/> <path transform="matrix(-1.4772 0 0 2.562 1265.2 -545.27)" d="m291.97 535.49c0 8.8845-15.444 16.095-34.474 16.095s-34.474-7.2106-34.474-16.095 15.444-16.095 34.474-16.095 34.474 7.2106 34.474 16.095z" fill="url(#d)" filter="url(#an)"/> </g> <path d="m530.29 382.05c-21.38-7.4952-46.218-25.094-65.292-45.492-32.921-44.261-63.176-65.407-112.76-55.761-44.619 12.184-73.564 51.997-95.946 89.869-27.992 47.891-26.838 105.24-27.04 158.93 1.9675 48.27 4.4762 68.454 21.896 114.34-0.1952-10.343-2.1296-15.089-4.8533-22.195-1.4062-8.1715-1.9863-26.101 5.3723-5.5679 3.7699 10.276 12.164 36.62 22.798 32.368-17.509-12.306-4.9466-43.725-2.8362-20.767 9.1098-8.7051-9.3207-42.394 2.1096-49.26 3.1231 3.655 4.6879 6.6288 8.2484 20.793 18.192-81.539 12.365-114.4 16.138-139.69 36.548-200.95 115.52-183.69 197.01-51.781" fill="url(#m)" stroke="#000"/> <path d="m523.53 381.7c5.6069-3.0655 133.13-35.318 149.36-39.053 0.6-2.4654-0.4313-3.3668 0.9942-5.9375 3.2417 2.3782 0.3926 3.4499 4.04 4.9837 2.8661-1.8841 4.0257-3.2084 3.6636-6.4036 5.5949 4.2267-5.5703 7.8199 5.0805 5.6134 2.3528-3.2187 2.0473-5.3758 1.2465-8.8522 3.1055 5.6055 4.5369 7.649 8.5852 8.6425 4.8295-2.4245 6.2848-3.9717 7.78-5.8994 2.8624 4.0294-0.5095 4.6878 2.7458 5.8808 74.036 3.5536 170.19 62.495 203.14 129.8-9.8135-11.293-4.4252 4.6248-9.3491-7.5678-4.2491-10.522-0.4712 6.6197-7.265-3.8311-12.07-18.567-2.3503 7.4208-7.8369-3.693-4.9559-10.039 1.0884 8.2009-6.7683-2.0755-8.4929-11.109 2.4274 6.7724-8.1606-2.4941-8.8138-7.7138 0.0816-15.645-8.4982-2.4098-5.9185 9.1299 1.4617 2.3845-5.242-2.2133-97.648-66.974-206.89-71.274-333.51-64.494z" fill="url(#v)" stroke="#000"/> <path d="m486.24 428.42c21.598 65.588 110.52-14.769 72.463-51.98-41.781-16.734-69.442 12.106-72.463 51.98z" fill="url(#l)" stroke="#000" stroke-width=".79582"/> <path d="m556.2 376.44c-17.795 4.407-4.9783-81.729 0.8158-124.06 61.658 0.82234 51.597 58.944 75.624 57.401s42.452 41.716 33.299 60.168c-44.942 11.845-61.513 40.602-104.74 28.769" fill="url(#u)" stroke="#000" stroke-width=".79582"/> <path d="m486.24 423.47c-9.9914-2.4743-28.818-14.125-44.977-17.327-28.723-1.1833-63.19 15.549-86.724 42.036 13.258 37.741 40.557 44.557 51.742 47.072 34.334 7.7196 24.722 50.969 42.427 46.584 28.258-8.0767 40.839-35.609 47.527-66.386l7.4962-29.703" fill="url(#k)" stroke="#000" stroke-width=".79582"/> <path d="m591.9 293.03c-5.9689-3.4568-14.85-10.521-17.255-0.8923s28.43 20.525 34.553 36.786-10.746 66.475 10.156 69.922 41.888-51.735 32.031-62.891-19.694 15.395-26.953 9.7656 7.9476-25.198 3.125-32.422-19.683-1.3865-24.219-7.4219-5.4702-9.3898-11.439-12.847z" fill="url(#j)" filter="url(#aj)"/> <path d="m426.3 433.63c5.9984 4.9067 1.7217 16.89 6.6291 26.517s30.827 23.22 28.726 34.25-19.398 19.781-26.516 14.363 12.939-22.701 6.6291-28.726-23.28 14.397-27.621 7.734 18.24-10.267 15.468-18.783-33.674-0.50596-34.25-8.8388 16.75-1.5147 18.783-7.734-15.79-13.736-12.153-19.887 18.308-3.8019 24.307 1.1048z" fill="url(#i)" filter="url(#ai)"/> <path d="m323.55 304.36c-27.988 22.426-52.567 52.749-67.396 93.913s-23.683 116.83-12.153 175.67c9.3195-77.059 14.031-121.51 25.412-151.37 2.542 34.228-3.5044 52.468-4.4194 144.74 16.175-56.152 28.256-109.26 23.202-180.09-3.6624-41.53 16.939-45.628 35.355-82.864z" fill="url(#h)" filter="url(#al)"/> <path d="m683.74 346.34 132.58 66.291s-45.569-26.581-59.662-40.88c13.252-21.48 83.969 46.404 83.969 46.404s-29.498-33.979-59.662-49.718c15.411-20.988 80.654 51.928 80.654 51.928s-56.183-63.71-77.616-64.358c-17.014 4.8764 5.4124 4.7845-8.5627 5.8005-4.3076 1.8446-10.861-5.7279-18.782-8.8388-4.0542 3.5182 6.1416 6.3034 1.1049 10.496s-11.722-9.2141-22.097-9.3913c-5.4029 2.585 6.2413 6.3646-2.2097 11.049-11.213-3.3262-49.718-18.783-49.718-18.783z" fill="url(#g)" filter="url(#ak)"/> </g> </g> </svg>