<?xml version='1.0' encoding='utf-8'?>
<svg xmlns:xlink="http://www.w3.org/1999/xlink" xmlns="http://www.w3.org/2000/svg" width="210mm" height="297mm" clip-rule="evenodd" fill-rule="evenodd" image-rendering="optimizeQuality" shape-rendering="geometricPrecision" text-rendering="geometricPrecision" version="1.1" viewBox="0 0 21000 29700"> <defs> <style type="text/css"> .str1 {stroke:#2B2A29;stroke-width:20;stroke-miterlimit:22.9256;stroke-opacity:0.400000} .str0 {stroke:#2B2A29;stroke-width:20;stroke-miterlimit:22.9256} .fil2 {fill:#FEFEFE} .fil0 {fill:#2B2A29} .fil4 {fill:#7C3D0E} .fil1 {fill:#F39500} .fil3 {fill:#FCC200;fill-opacity:0.301961} .fil5 {fill:#FCC200;fill-opacity:0.301961} .fil7 {fill:#2B2A29;fill-opacity:0.400000} .fil6 {fill:url(#a)} </style> <clipPath id="c"> <rect x="11026" y="9964.8" width="255.55" height="428.51"/> </clipPath> <clipPath id="b"> <rect x="8917" y="10012" width="304.23" height="304.22"/> </clipPath> <linearGradient id="a" x1="12636" x2="5790.6" y1="11631" y2="12443" gradientUnits="userSpaceOnUse"> <stop stop-color="#A83805" offset="0"/> <stop stop-color="#A83805" offset="1"/> </linearGradient> </defs> <path class="fil0" d="m10335 6185c186.9 0 837.18 1.74 1389.2 302.25 1646.4 896.35 1324.6 4238.3 2084.8 5850.9 658.75 1397.3 2255.6 2251.6 2674.6 4774.8 371.74 2238.5-1344.8 4591.4-4014 5587.4-2895.6 1080.6-6472.2 533.19-7342.9-2310.7-777.1-2538 1892.2-6390.1 2162.4-7059.9 1126.9-2793 562.3-4162.4 1080.3-5710.4 408.5-1220.7 1584.3-1434.4 1965.7-1434.4z"/> <path class="fil1" d="m8827.6 22818c194.94 534.43-709.79 1116.6-1039.1 1308.3-405.68 236.11-1410-380.45-2092.4-573.28-1256.6-355.12-3159.3-347.56-2782.7-1210.7 367.66-842.63-261.15-1784.1 61.12-2289.7 192.7-302.31 1249.5-306.86 1549.4-628.84 457.2-490.93 655.22-1203.1 1137.1-1025.1 793.19 293.01 2769.7 3331.5 3166.6 4419.4z"/> <path class="fil2" d="m11348 8767.8c580.68 138.53 694.09 502.15 694.09 973.01 0 1389.9-785.04 755.68-1672.3 469.21-123.14-39.76-83.96-492.96-39.2-640.37 137.55-452.96 436.68-940.37 1017.4-801.85z"/> <path class="fil2" d="m8856.5 8884.3c374.86-82.4 703.6 563.73 652.89 1020.5-50.72 456.8-580.7 558.14-759.05 672.25-178.34 114.1-477-475.34-477-881.43s208.3-728.97 583.16-811.36z"/> <path class="fil3" d="m8605.7 22294c183.86 438.06-669.42 915.25-980.01 1072.4-382.61 193.54-1329.9-311.85-1973.4-469.91-1185.1-291.09-2979.7-284.89-2624.5-992.38 346.75-690.69-246.31-1462.4 57.64-1876.9 181.75-247.79 1178.5-251.53 1461.3-515.44 431.2-402.41 617.96-986.19 1072.4-840.28 748.09 240.17 2612.2 2730.8 2986.5 3622.5z"/> <path class="fil2" d="m13963 17303c0 432.86 36.68 1416.8-170.5 1381.2-264.26-45.4-613.46 50.61-744.47 346.94-142.01 321.19 164.69 779.21 27.16 1286.4-224.33 827.27-1041.2 1701.4-2535.1 1701.4-265.89 0-1868.2-70.93-2436.8-605.74-285.33-268.4 727.29-572.91 468.53-846.48-1549.5-1638.3-2240.6-1283.8-2113.9-3213.1 124.36-1893 2099.1-3584.4 2009.2-5668.6-63.79-1478.1 3122.4-1748.5 3294.3-48.86 151.13 1494.3 2201.6 3837.6 2201.6 5666.8z"/> <path class="fil2" d="m11382 8762.5c580.69 138.52 694.1 502.14 694.1 973 0 1389.9-785.04 755.68-1672.3 469.21-123.15-39.76-83.96-492.95-39.2-640.36 137.55-452.97 436.68-940.38 1017.4-801.85z"/> <ellipse class="fil0 str0" transform="matrix(1.3383 .52461 -.52461 1.3383 11144 9949.5)" rx="213.87" ry="383.64"/> <ellipse class="fil4" cx="11019" cy="10168" rx="240.87" ry="206"/> <g clip-path="url(#c)"> <image x="11026" y="9964.7" width="255.55" height="428.52" xlink:href="penguin_Images\penguin_ImgID1.png"/> </g> <path class="fil2" d="m8864.7 8894.6c374.86-82.4 703.6 563.73 652.89 1020.5-50.72 456.8-580.7 558.14-759.04 672.25-178.35 114.1-477-475.34-477-881.43s208.29-728.97 583.15-811.36z"/> <ellipse class="fil0" cx="8991.1" cy="9883.4" rx="286.89" ry="589.51"/> <path class="fil4" d="m9167.4 10044c146.55 69.92-31.74 306.18-101.61 361.55-271.27 214.94-151.64-482.21 101.61-361.55z"/> <g clip-path="url(#b)"> <image x="8917" y="10012" width="304.24" height="304.23" xlink:href="penguin_Images\penguin_ImgID2.png"/> </g> <path class="fil1" d="m11932 10776c349.44 282.41-662.08 1673.9-2157.9 1673.9-927.71 0-1594-1061.5-1508.6-1350.2 100.41-339.37 788.44-1049.2 1557.8-978.15 718.8 66.41 1573.6 222 2108.7 654.45z"/> <path class="fil1" d="m16398 19017c428.79 87.86 316.96 793.27 669.06 1304.4 417.02 605.41 1160 951.07 834.39 1281.9-413.89 420.45-1116 718.99-1665.3 1188.5-739.28 631.87-1357.4 1459.8-2438.4 1420.1-1851-68-927.52-1641.9-924.66-2769.1 1.25-496.91-94.57-1712 170.94-2403.2 78.77-205.06 213.32-362.03 361.7-442.93 175.76-95.84 331.39-83.82 440.02 70.52 139.98 198.9 28.09 737.28 326.92 1036.3 267.68 267.87 578.81 166.6 994.07 192.29 705.15 43.63 700.35-987.51 1231.2-878.74z"/> <path class="fil5" d="m16240 19306c382.07 70.43 282.42 635.92 596.16 1045.7 371.58 485.32 1033.6 762.41 743.48 1027.6-368.8 337.06-994.37 576.38-1483.8 952.74-658.73 506.53-1209.5 1170.2-2172.8 1138.4-1649.3-54.51-826.46-1316.2-823.91-2219.8 1.94-688.48-34.16-2005.2 326.07-2135.8 694.1-251.71 258.15 479.37 831.91 741.5 300.89 137.47 515.75 133.55 885.77 154.14 628.32 34.97 624.04-791.62 1097.1-704.43z"/> <path class="fil6" d="m9958.3 12030c908.46 0 1809.7-922.91 1809.7-849.4s-825.19 1064.9-1733.6 1064.9c-908.47 0-1651.2-718.81-1651.2-792.32s666.73 576.82 1575.2 576.82z"/> <path class="fil7 str1" d="m9626.9 10589c29.99 0 19.08-51.21 38.6-72.39 19.22-20.89 69.15-11.59 69.15-43.3 0-118.93-86.07-149.06-173.38-84.78-83.83 61.8-25.55 173.37 41.63 196.28 7.95 2.71 16.02 4.19 24 4.19z"/> <path class="fil7 str1" d="m10274 10582c-29.98 0-19.07-51.2-38.59-72.39-19.22-20.88-69.16-11.58-69.16-43.29 0-118.94 86.07-149.07 173.38-84.78 83.84 61.79 25.55 173.37-41.62 196.28-7.95 2.7-16.03 4.18-24.01 4.18z"/> </svg>