<?xml version='1.0' encoding='utf-8'?>
<svg xmlns:xlink="http://www.w3.org/1999/xlink" xmlns="http://www.w3.org/2000/svg" width="210mm" height="297mm" version="1.1"> <defs> <linearGradient id="c"> <stop stop-color="#fff" offset="0"/> <stop offset="1"/> </linearGradient> <linearGradient id="g"> <stop stop-color="#ffb200" offset="0"/> <stop stop-color="#ffb200" offset=".53968"/> <stop stop-color="#f70" offset="1"/> </linearGradient> <linearGradient id="b"> <stop stop-color="#fff" offset="0"/> <stop stop-color="#fff" stop-opacity="0" offset="1"/> </linearGradient> <linearGradient id="a"> <stop stop-color="#fff" offset="0"/> <stop stop-color="#303030" offset="1"/> </linearGradient> <linearGradient id="at" x1="379.82" x2="380.91" y1="151.8" y2="372.77" gradientUnits="userSpaceOnUse" xlink:href="#a"/> <linearGradient id="au" x1="443.98" x2="443.03" y1="486.95" y2="804.94" gradientTransform="matrix(1 0 0 .98141 -.010577 7.4712)" gradientUnits="userSpaceOnUse"> <stop stop-color="#fff" offset="0"/> <stop stop-color="#b3b3b3" offset=".47941"/> <stop offset="1"/> </linearGradient> <linearGradient id="o" x1="139.68" x2="168.24" y1="498.06" y2="530.01" gradientUnits="userSpaceOnUse" xlink:href="#b"/> <radialGradient id="w" cx="272.33" cy="723.58" r="106.59" gradientTransform="matrix(.0040669 .60425 -1.259 .0084733 1175.2 556.93)" gradientUnits="userSpaceOnUse" xlink:href="#g"/> <radialGradient id="v" cx="272.33" cy="723.58" r="106.59" gradientTransform="matrix(-.0040669 .60425 1.259 .0084733 -405.73 557.6)" gradientUnits="userSpaceOnUse" xlink:href="#g"/> <linearGradient id="av" x1="285.79" x2="293.72" y1="740.54" y2="775.69" gradientUnits="userSpaceOnUse" xlink:href="#b"/> <linearGradient id="z" x1="300.69" x2="290.58" y1="741.21" y2="781" gradientUnits="userSpaceOnUse" xlink:href="#b"/> <linearGradient id="y" x1="353.31" x2="158.94" y1="309.59" y2="736.63" gradientUnits="userSpaceOnUse" xlink:href="#a"/> <linearGradient id="f" x1="355.85" x2="346.88" y1="308.42" y2="343.77" gradientUnits="userSpaceOnUse"> <stop stop-color="#fff" offset="0"/> <stop stop-color="#fff" stop-opacity="0" offset="1"/> </linearGradient> <filter id="r"> <feGaussianBlur stdDeviation="2.06589"/> </filter> <linearGradient id="n" x1="266.5" x2="385.94" y1="327.94" y2="327.94" gradientUnits="userSpaceOnUse"> <stop offset="0"/> <stop stop-opacity="0" offset="1"/> </linearGradient> <linearGradient id="e" x1="358.55" x2="366.81" y1="391.27" y2="382.49" gradientUnits="userSpaceOnUse" xlink:href="#a"/> <linearGradient id="d" x1="368.05" x2="375.65" y1="349.72" y2="367.16" gradientTransform="translate(-.33541 .67082)" gradientUnits="userSpaceOnUse" xlink:href="#a"/> <linearGradient id="x" x1="353.31" x2="158.94" y1="309.59" y2="736.63" gradientUnits="userSpaceOnUse"> <stop stop-color="#fff" offset="0"/> <stop stop-color="#303030" offset="1"/> </linearGradient> <filter id="q" color-interpolation-filters="sRGB"> <feGaussianBlur stdDeviation="2.06589"/> </filter> <radialGradient id="u" cx="323.84" cy="275.6" r="79.438" gradientTransform="matrix(-.85631 .0020298 -.0020615 -.86967 601.76 523.27)" gradientUnits="userSpaceOnUse" xlink:href="#c"/> <radialGradient id="t" cx="454.21" cy="269.19" r="69.516" gradientTransform="matrix(-1.0711 .08787 -.045932 -.55992 951.49 414.89)" gradientUnits="userSpaceOnUse" xlink:href="#c"/> <filter id="p"> <feGaussianBlur stdDeviation="1.4025"/> </filter> <filter id="m"> <feGaussianBlur stdDeviation="1.9694531"/> </filter> <filter id="l"> <feGaussianBlur stdDeviation="1.7909156"/> </filter> <filter id="k"> <feGaussianBlur stdDeviation="1.7909156"/> </filter> <filter id="j"> <feGaussianBlur stdDeviation="1.1495252"/> </filter> <filter id="i"> <feGaussianBlur stdDeviation="1.1276077"/> </filter> <filter id="h"> <feGaussianBlur stdDeviation="1.8238021"/> </filter> <radialGradient id="s" cx="384.69" cy="444.47" r="57.139" gradientTransform="matrix(1.249 6.393e-8 -6.3043e-8 1.2317 -95.778 -102.96)" gradientUnits="userSpaceOnUse"> <stop stop-color="#ffb200" offset="0"/> <stop stop-color="#ffb200" offset=".46517"/> <stop stop-color="#f70" offset="1"/> </radialGradient> <filter id="ao"> <feGaussianBlur stdDeviation="2.6865112"/> </filter> <filter id="ap"> <feGaussianBlur stdDeviation="1.3544881"/> </filter> <filter id="aq"> <feGaussianBlur stdDeviation="1.7617332"/> </filter> <filter id="ar" x="-.15716" y="-.2196" width="1.3143" height="1.4392"> <feGaussianBlur stdDeviation="16.524804"/> </filter> <filter id="as" x="-.051011" y="-.84027" width="1.102" height="2.6805"> <feGaussianBlur stdDeviation="11.95715"/> </filter> </defs> <path transform="matrix(.93508 0 0 1.0782 26.378 -65.625)" d="m666.92 770.6a281.28 17.076 0 1 1-562.57 0 281.28 17.076 0 1 1 562.57 0z" filter="url(#as)" opacity=".58915"/> <path d="m174.26 541s-24.678 6.3738-45.277 20.926c-24.436 17.264-39.059 14.736-41.853 8.751-4.4344-9.499 2.3779-33.597 52.126-71.53 65.295-49.787 72.669-89.179 74.193-148.01 1.5246-58.827 55.55-154.09 171.92-153.71 116.37-0.38048 170.4 94.886 171.92 153.71 1.5247 58.827 8.8984 98.219 74.193 148.01 49.748 37.932 56.56 62.031 52.126 71.53-2.7938 5.9845-17.416 8.5126-41.853-8.751-20.599-14.553-45.277-20.926-45.277-20.926 5.7072 51.365-40.711 218.78-211.11 218.01-170.4 0.76096-216.82-166.65-211.11-218.01z" stroke="#000" stroke-width="1px"/> <path d="m193.75 624.72c0.61707 2.0352 1.0811 4.1214 1.7812 6.125 1.928 5.5173 4.1519 10.918 6.6562 16.188s5.2962 10.413 8.3438 15.406c3.0475 4.9932 6.3488 9.8444 9.9062 14.531 1.8692 2.4626 3.997 4.7532 6 7.125 37.756 26.227 89.539 44.774 159.06 44.531 66.988 0.23434 117.5-17.003 154.88-41.719 2.871-3.2618 5.7634-6.4968 8.375-9.9375 3.5575-4.6869 6.8587-9.538 9.9062-14.531s5.8394-10.136 8.3438-15.406 4.7282-10.67 6.6562-16.188c0.49943-1.4292 0.79307-2.9295 1.25-4.375-3.0861 3.2681-6.1308 6.5632-9.5 9.6562-4.7488 4.3595-9.7602 8.5359-15.031 12.531-5.271 3.9953-10.84 7.8047-16.594 11.406-5.7542 3.6015-11.708 7.0094-17.906 10.188-6.1984 3.1781-12.615 6.1186-19.219 8.8438-6.6034 2.7252-13.437 5.2262-20.406 7.4688-6.9695 2.2426-14.078 4.2071-21.375 5.9375-7.2965 1.7304-14.759 3.2176-22.344 4.4062-7.5845 1.1886-15.292 2.1015-23.125 2.7188-3.9167 0.30863-7.8721 0.52726-11.844 0.6875-3.9716 0.16026-7.9471 0.27325-11.969 0.28125-4.0216 0.00816-8.0284-0.07462-12-0.21875-3.9716-0.14412-7.927-0.36353-11.844-0.65625-7.8334-0.58549-15.541-1.4672-23.125-2.625-7.5845-1.1578-15.047-2.6117-22.344-4.3125-7.2965-1.7008-14.468-3.6607-21.438-5.875-6.9695-2.2143-13.74-4.6454-20.344-7.3438-6.6034-2.6983-13.02-5.6283-19.219-8.7812-6.1984-3.153-12.183-6.5469-17.938-10.125-5.7542-3.5782-11.26-7.3699-16.531-11.344-5.271-3.9739-10.314-8.1285-15.062-12.469-4.2579-3.8916-8.1937-7.9589-12-12.125z" fill="#333" stroke="#000" stroke-width="1.0336px"/> <path d="m518 707.62c2.4585-3.4993 4.92-6.9817 7.1564-10.673 3.0464-5.0281 5.8905-10.223 8.5002-15.58s4.9806-10.877 7.1252-16.531c2.1446-5.6536 4.0679-11.44 5.7189-17.359 1.651-5.9189 3.0273-11.973 4.1564-18.125s2.0151-12.415 2.5938-18.77c0.57874-6.3544 0.87502-12.797 0.87502-19.322s-0.29628-12.967-0.87502-19.322c-0.57875-6.3544-1.4647-12.617-2.5938-18.77s-2.5053-12.207-4.1564-18.125c-1.651-5.9189-3.5743-11.705-5.7189-17.359-2.1446-5.6536-4.5155-11.174-7.1252-16.531s-5.4538-10.552-8.5002-15.58c-3.0464-5.0281-6.2955-9.9001-9.7503-14.568-3.4548-4.6678-7.1031-9.1266-10.938-13.402-3.8347-4.2758-7.8454-8.3541-12.032-12.206-4.1862-3.8522-8.5535-7.4906-13.063-10.888-4.5093-3.3969-9.1651-6.5668-13.969-9.4768s-9.7426-5.552-14.813-7.9433c-5.0703-2.3913-10.286-4.5076-15.594-6.3485-5.3082-1.841-10.733-3.4027-16.25-4.6617-5.5177-1.259-11.114-2.2376-16.813-2.8829-2.8494-0.32266-5.7359-0.54208-8.6252-0.70539s-5.7932-0.27602-8.719-0.27602-5.8296 0.11271-8.719 0.27602-5.7758 0.38273-8.6252 0.70539c-5.6988 0.64533-11.295 1.6239-16.813 2.8829-5.5177 1.259-10.942 2.8208-16.25 4.6617-5.3082 1.841-10.493 3.9572-15.563 6.3485-5.0703 2.3913-10.04 5.0334-14.844 7.9433s-9.4598 6.0799-13.969 9.4768c-4.5093 3.3969-8.8454 7.0354-13.032 10.888-4.1862 3.8522-8.2281 7.9305-12.063 12.206-3.8347 4.2758-7.483 8.7346-10.938 13.402-3.4548 4.6678-6.7038 9.5398-9.7503 14.568-3.0464 5.0281-5.8905 10.223-8.5002 15.58s-4.9806 10.877-7.1252 16.531c-2.1446 5.6536-4.0679 11.44-5.7189 17.359-1.651 5.9189-3.0273 11.973-4.1564 18.125s-1.9838 12.415-2.5626 18.77c-0.57874 6.3544-0.87502 12.797-0.87502 19.322s0.29628 12.967 0.87502 19.322c0.57875 6.3544 1.4335 12.617 2.5626 18.77s2.5053 12.207 4.1564 18.125c1.651 5.9189 3.5743 11.705 5.7189 17.359 2.1446 5.6536 4.5155 11.174 7.1252 16.531s5.4538 10.552 8.5002 15.58c1.6006 2.6418 3.4099 5.0922 5.1252 7.6366 32.332 28.136 76.687 48.043 136.22 47.783 57.364 0.25141 100.62-18.232 132.63-44.746z" fill="url(#au)" stroke="#000" stroke-width=".99068px"/> <path transform="matrix(.56642 0 0 .62609 165.95 137.61)" d="m597.8 252.24a215.77 151.74 0 1 1-431.54 0 215.77 151.74 0 1 1 431.54 0z" fill="url(#at)" filter="url(#h)" opacity=".8"/> <g filter="url(#l)" opacity=".8"> <path d="m191.01 451.72s-27.617 35.427-48.825 48.677c-21.89 13.675-50.228 45.921-52.007 54.63-1.363 6.6762-3.4328 13.144 0.76096 15.362 4.4204 2.3384 6.9405-3.6168 9.0326-6.7992s18.902-26.961 48.8-45.425c28.348-17.507 32.484-31.234 32.484-31.234z" fill="url(#o)"/> <path d="m111.71 564.5c5.6921-2.6089 19.174-9.5276 23.954-13.756 6.1664-5.4549 34.663-16.598 38.421-15.653 0.71151 2.1345 0.23717 3.3204 0.23717 5.6921 0 0-24.903 8.3009-32.967 13.993-7.7504 5.4709-29.883 19.211-34.271 18.974-4.9806 0-1.0673-6.6408 4.6248-9.2496z" fill="#373737"/> </g> <g fill="#767676" opacity=".25581"> <path d="m383.44 752.31c-6.2592-0.0234-12.381-0.22903-18.281-0.75-6.5053-0.57438-12.795-1.459-18.875-2.5938s-11.959-2.539-17.625-4.1875-11.111-3.5407-16.375-5.6562-10.346-4.4328-15.219-6.9688-9.5373-5.2778-14.031-8.1875-8.8113-5.9819-12.938-9.2188-8.0738-6.6389-11.844-10.156c-1.6-2.5447-3.2881-4.9829-4.7812-7.625-2.8418-5.0286-5.5031-10.237-7.9375-15.594-2.4344-5.3572-4.6245-10.877-6.625-16.531-2.0005-5.6542-3.8036-11.456-5.3438-17.375-1.5401-5.9195-2.8218-11.972-3.875-18.125-1.0532-6.1531-1.8664-12.395-2.4062-18.75-0.53987-6.355-0.8125-12.818-0.8125-19.344s0.27263-12.957 0.8125-19.312 1.353-12.628 2.4062-18.781c1.0532-6.1531 2.3349-12.206 3.875-18.125 1.5401-5.9195 3.3432-11.69 5.3438-17.344 2.0005-5.6542 4.1906-11.174 6.625-16.531s5.0957-10.565 7.9375-15.594 5.8711-9.8943 9.0938-14.562c3.2227-4.6682 6.6416-9.13 10.219-13.406 3.5771-4.2762 7.345-8.3662 11.25-12.219s7.9498-7.4778 12.156-10.875c4.2064-3.3972 8.5499-6.5585 13.031-9.4688 4.4813-2.9102 9.114-5.5772 13.844-7.9688 4.7298-2.3915 9.5483-4.5026 14.5-6.3438s10.009-3.3971 15.156-4.6562c5.1471-1.2591 10.371-2.2296 15.688-2.875 2.5856-0.31389 5.2221-0.52561 7.8438-0.6875-0.1242 0.00683-0.25086-0.00702-0.375 0-2.8894 0.16331-5.7756 0.36484-8.625 0.6875-5.6988 0.64533-11.295 1.6473-16.812 2.9062-5.5177 1.259-10.942 2.8153-16.25 4.6562-5.3082 1.841-10.492 3.9525-15.562 6.3438-5.0703 2.3913-10.04 5.0276-14.844 7.9375s-9.4594 6.0718-13.969 9.4688c-4.5093 3.3969-8.845 7.0541-13.031 10.906-4.1862 3.8522-8.2278 7.9117-12.062 12.188-3.8347 4.2758-7.4827 8.7385-10.938 13.406-3.4548 4.6678-6.7036 9.5344-9.75 14.562-3.0464 5.0281-5.8903 10.237-8.5 15.594s-4.9804 10.878-7.125 16.531c-2.1446 5.6536-4.0677 11.425-5.7188 17.344-1.651 5.9189-3.0272 11.972-4.1562 18.125s-1.9838 12.427-2.5625 18.781c-0.57874 6.3544-0.875 12.788-0.875 19.312s0.29626 12.989 0.875 19.344c0.57875 6.3544 1.4334 12.598 2.5625 18.75s2.5052 12.206 4.1562 18.125c1.651 5.9189 3.5742 11.721 5.7188 17.375 2.1446 5.6536 4.5153 11.175 7.125 16.531s5.4536 10.534 8.5 15.562c1.6006 2.6418 3.4098 5.1118 5.125 7.6562 31.97 27.821 75.748 47.532 134.28 47.719z"/> <path d="m392.94 402.5c2.6216 0.16189 5.2582 0.37361 7.8438 0.6875 5.316 0.64539 10.54 1.6159 15.688 2.875 5.1471 1.2591 10.205 2.8151 15.156 4.6562 4.9517 1.8411 9.8015 3.9522 14.531 6.3438 4.7298 2.3915 9.3312 5.0585 13.812 7.9688 4.4813 2.9102 8.8248 6.0715 13.031 9.4688 4.2064 3.3972 8.2825 7.0224 12.188 10.875s7.6416 7.9425 11.219 12.219c3.5771 4.2762 6.996 8.738 10.219 13.406s6.252 9.534 9.0938 14.562 5.5031 10.237 7.9375 15.594c2.4344 5.3572 4.6245 10.877 6.625 16.531 2.0005 5.6542 3.8036 11.424 5.3438 17.344 1.5401 5.9195 2.8218 11.972 3.875 18.125 1.0532 6.1531 1.8976 12.426 2.4375 18.781s0.8125 12.787 0.8125 19.312-0.27263 12.989-0.8125 19.344c-0.53987 6.3551-1.3842 12.597-2.4375 18.75-1.0532 6.1531-2.3349 12.206-3.875 18.125-1.5401 5.9195-3.3432 11.721-5.3438 17.375-2.0005 5.6542-4.1906 11.174-6.625 16.531-2.4344 5.3572-5.0957 10.565-7.9375 15.594-2.0862 3.6915-4.3941 7.1566-6.6875 10.656-3.7319 3.3146-7.6224 6.5198-11.688 9.5625s-8.2787 5.9272-12.688 8.6562-9.0184 5.2828-13.781 7.6562-9.6852 4.5551-14.812 6.5312-10.435 3.7443-15.938 5.2812-11.206 2.8503-17.094 3.9062-11.967 1.8731-18.25 2.4062c-6.2628 0.53147-12.74 0.77946-19.406 0.75 57.364 0.25141 100.62-18.235 132.62-44.75 2.4585-3.4993 4.9198-6.9963 7.1562-10.688 3.0464-5.0281 5.8903-10.206 8.5-15.562s4.9804-10.878 7.125-16.531c2.1446-5.6536 4.0677-11.456 5.7188-17.375 1.651-5.9189 3.0272-11.972 4.1562-18.125s2.015-12.396 2.5938-18.75c0.57874-6.3544 0.875-12.819 0.875-19.344s-0.29626-12.958-0.875-19.312c-0.57875-6.3544-1.4647-12.629-2.5938-18.781s-2.5052-12.206-4.1562-18.125c-1.651-5.9189-3.5742-11.69-5.7188-17.344-2.1446-5.6536-4.5153-11.175-7.125-16.531s-5.4536-10.566-8.5-15.594c-3.0464-5.0281-6.2952-9.8947-9.75-14.562-3.4548-4.6678-7.1028-9.1304-10.938-13.406-3.8347-4.2758-7.845-8.3353-12.031-12.188-4.1862-3.8522-8.5532-7.5094-13.062-10.906-4.5093-3.3969-9.1647-6.5588-13.969-9.4688s-9.7422-5.5462-14.812-7.9375c-5.0703-2.3913-10.286-4.5028-15.594-6.3438-5.3082-1.841-10.732-3.3973-16.25-4.6562-5.5177-1.259-11.114-2.2609-16.812-2.9062-2.8494-0.32266-5.7356-0.52419-8.625-0.6875-0.12414-0.00702-0.2508 0.00683-0.375 0z"/> </g> <g transform="matrix(-1 0 0 1 771.1 .11858)" filter="url(#k)" opacity=".8"> <path d="m191.01 451.72s-27.617 35.427-48.825 48.677c-21.89 13.675-50.228 45.921-52.007 54.63-1.363 6.6762-3.4328 13.144 0.76096 15.362 4.4204 2.3384 6.9405-3.6168 9.0326-6.7992s18.902-26.961 48.8-45.425c28.348-17.507 32.484-31.234 32.484-31.234z" fill="url(#o)"/> <path d="m111.71 564.5c5.6921-2.6089 19.174-9.5276 23.954-13.756 6.1664-5.4549 34.663-16.598 38.421-15.653 0.71151 2.1345 0.23717 3.3204 0.23717 5.6921 0 0-24.903 8.3009-32.967 13.993-7.7504 5.4709-29.883 19.211-34.271 18.974-4.9806 0-1.0673-6.6408 4.6248-9.2496z" fill="#373737"/> </g> <path d="m323.75 271.12c-43.88 0-79.469 41.209-79.469 92.031 0 6.916 0.72 13.614 1.9688 20.094 0.71352-2.5607 1.4777-5.0742 2.375-7.5312 1.0051-2.7523 2.1206-5.4547 3.3438-8.0625s2.5722-5.1147 4-7.5625 2.9433-4.8214 4.5625-7.0938 3.3278-4.4497 5.125-6.5312 3.6943-4.0622 5.6562-5.9375 3.9803-3.6588 6.0938-5.3125 4.3109-3.1771 6.5625-4.5938 4.5611-2.7109 6.9375-3.875 4.8246-2.1975 7.3125-3.0938 5.0077-1.6683 7.5938-2.2812 5.2353-1.0921 7.9062-1.4062 5.3825-0.46875 8.125-0.46875 5.4541 0.15459 8.125 0.46875 5.2889 0.79334 7.875 1.4062 5.1371 1.385 7.625 2.2812 4.9049 1.9296 7.2812 3.0938 4.7172 2.4584 6.9688 3.875 4.4178 2.94 6.5312 4.5938 4.163 3.4372 6.125 5.3125 3.859 3.8559 5.6562 5.9375 3.5058 4.2588 5.125 6.5312 3.1347 4.646 4.5625 7.0938 2.7456 4.9547 3.9688 7.5625 2.3699 5.3102 3.375 8.0625 1.8824 5.556 2.6562 8.4375c0.63671 2.371 1.1531 4.8011 1.625 7.25 2.4828-8.9116 3.8438-18.382 3.8438-28.25 0-50.822-35.557-92.031-79.438-92.031z"/> <path d="m448.25 293.91c-46.631 0-84.438 41.178-84.438 92 0 6.9934 0.76891 13.797 2.125 20.344 0.77464-2.6397 1.6431-5.2512 2.625-7.7812 1.0681-2.7523 2.2627-5.4235 3.5625-8.0312s2.7014-5.146 4.2188-7.5938 3.1231-4.8214 4.8438-7.0938 3.5588-4.4497 5.4688-6.5312 3.915-4.0622 6-5.9375 4.2541-3.6276 6.5-5.2812 4.5448-3.2084 6.9375-4.625 4.8809-2.7109 7.4062-3.875 5.1062-2.1975 7.75-3.0938 5.3456-1.6371 8.0938-2.25 5.5366-1.0921 8.375-1.4062 5.7106-0.46875 8.625-0.46875 5.8179 0.15459 8.6562 0.46875 5.6268 0.79334 8.375 1.4062 5.4499 1.3538 8.0938 2.25 5.2247 1.9296 7.75 3.0938 4.9823 2.4584 7.375 3.875 4.7228 2.9713 6.9688 4.625 4.415 3.4059 6.5 5.2812 4.0901 3.8559 6 5.9375 3.7168 4.2588 5.4375 6.5312 3.3577 4.646 4.875 7.0938 2.919 4.986 4.2188 7.5938 2.4944 5.2789 3.5625 8.0312 2.0214 5.5873 2.8438 8.4688c0.65632 2.2998 1.1646 4.658 1.6562 7.0312 2.5963-8.847 4.0312-18.277 4.0312-28.062 0-50.822-37.807-92-84.438-92z"/> <g transform="translate(-.47434 -3.7947)" filter="url(#ar)" opacity=".58915"> <path d="m331.71 432.89c-9.9106 7.1514-4.6076 16.712 0.80713 23.406s36.589 41.432 36.589 41.432 4.8427 7.8021 14.17 8.0712c9.3274-0.26904 14.17-8.0712 14.17-8.0712s31.175-34.738 36.589-41.432 9.1035-16.793-0.8071-23.944c-9.9106-7.1514-32.285-14.797-49.952-15.066-17.668 0.26904-41.656 8.4529-51.567 15.604z" stroke="#000" stroke-width="1px"/> <path transform="matrix(1.1872 0 0 1.0772 -23.173 -52.785)" d="m346.74 416.27c0 32.222-23.254 58.344-51.94 58.344s-51.94-26.121-51.94-58.344c0-32.222 23.254-58.344 51.94-58.344s51.94 26.121 51.94 58.344z"/> <path transform="matrix(1.2968 0 0 1.0772 67.848 -60.374)" d="m346.74 416.27c0 32.222-23.254 58.344-51.94 58.344s-51.94-26.121-51.94-58.344c0-32.222 23.254-58.344 51.94-58.344s51.94 26.121 51.94 58.344z"/> </g> <path d="m448.91 298.59c-26.101 0-49.386 12.915-64.875 33.188 2.3074-1.7731 4.6806-3.4902 7.1562-5.0625 2.6029-1.6531 5.2895-3.1777 8.0625-4.5938s5.6358-2.7114 8.5625-3.875 5.936-2.1979 9-3.0938 6.1901-1.6686 9.375-2.2812 6.4294-1.061 9.7188-1.375 6.6225-0.5 10-0.5 6.7106 0.186 10 0.5 6.5338 0.76239 9.7188 1.375 6.311 1.3854 9.375 2.2812 6.0733 1.9301 9 3.0938 5.7582 2.459 8.5312 3.875 5.4908 2.9407 8.0938 4.5938 5.1148 3.4378 7.5312 5.3125 4.7239 3.8566 6.9375 5.9375 4.3182 4.2595 6.3125 6.5312c0.58426 0.66555 1.0917 1.3814 1.6562 2.0625-14.327-28.576-42.168-47.969-74.156-47.969z" fill="url(#t)" filter="url(#p)" opacity=".9"/> <path transform="matrix(1.0263 0 0 .97487 -25.371 -8.6367)" d="m400.26 383.1c0 41.816-25.893 75.715-57.833 75.715s-57.833-33.899-57.833-75.715 25.893-75.715 57.833-75.715 57.833 33.899 57.833 75.715z" fill="url(#y)" stroke="#000"/> <path d="m311.78 429.7c9.9433 0 19.066-5.5451 26.206-14.777-0.10586 9.2e-4 -0.20808 0.0285-0.31411 0.0285-1.582 0-3.1486-0.1318-4.6893-0.37085-1.5407-0.23906-3.063-0.58914-4.5547-1.0555s-2.9625-1.0582-4.3976-1.7401c-1.4351-0.68195-2.8249-1.4534-4.1957-2.3392s-2.7174-1.8889-4.0162-2.9668-2.5503-2.2505-3.7694-3.5088-2.4133-2.5953-3.545-4.0223-2.2166-2.9234-3.2533-4.5072c-1.0367-1.5839-2.0052-3.2631-2.9392-4.9922-0.93399-1.7291-1.824-3.5005-2.6476-5.3631-0.8236-1.8625-1.583-3.8067-2.2886-5.791s-1.3498-4.0105-1.9296-6.1048c-0.57979-2.0943-1.1018-4.2546-1.5481-6.4471-0.44636-2.1925-0.81659-4.4248-1.1218-6.7038s-0.53908-4.6067-0.69554-6.9606c-0.15647-2.3539-0.24681-4.7433-0.24681-7.1603s0.0903-4.8064 0.24681-7.1603c0.15646-2.3539 0.39029-4.653 0.69554-6.932s0.67548-4.5398 1.1218-6.7324c0.44635-2.1925 0.96835-4.3243 1.5481-6.4186 0.57978-2.0943 1.224-4.149 1.9296-6.1333s1.465-3.8999 2.2886-5.7624c0.80715-1.8253 1.6894-3.5802 2.6027-5.2775-18.286 6.8104-31.905 32.708-31.905 63.701 0 36.181 18.535 65.498 41.418 65.498z" fill="#a8a8a8" filter="url(#r)" opacity=".27132"/> <path d="m326.31 292.44c-13.849 0-26.554 6.0744-36.5 16.188 0.14744-1e-3 0.28982-0.0312 0.4375-0.0312 2.2034 0 4.3854 0.14438 6.5312 0.40625s4.2661 0.64537 6.3438 1.1562 4.1262 1.1592 6.125 1.9062 3.9346 1.5922 5.8438 2.5625 3.7848 2.0692 5.5938 3.25 3.552 2.4653 5.25 3.8438 3.3612 2.8431 4.9375 4.4062 3.0873 3.2024 4.5312 4.9375 2.7929 3.5746 4.0938 5.4688 2.5404 3.8347 3.6875 5.875 2.2048 4.1701 3.1875 6.3438 1.88 4.3933 2.6875 6.6875 1.5346 4.6607 2.1562 7.0625 1.1374 4.8471 1.5625 7.3438 0.75083 5.0464 0.96875 7.625 0.34375 5.1961 0.34375 7.8438-0.12583 5.2652-0.34375 7.8438-0.5436 5.0971-0.96875 7.5938-0.94082 4.9732-1.5625 7.375-1.3487 4.7371-2.1562 7.0312-1.7048 4.5451-2.6875 6.7188-2.0404 4.2722-3.1875 6.3125c-1.1242 1.9996-2.353 3.922-3.625 5.7812 25.469-7.4606 44.438-35.831 44.438-69.781 0-39.635-25.816-71.75-57.688-71.75z" fill="url(#f)"/> <g fill="#767676" opacity=".34496"> <path d="m385.44 364.84c0 2.3357-0.10979 4.6315-0.3125 6.9062s-0.47953 4.5162-0.875 6.7188-0.89047 4.3811-1.4688 6.5-1.2489 4.1948-2 6.2188-1.5859 3.9886-2.5 5.9062-1.9017 3.7625-2.9688 5.5625-2.2275 3.5478-3.4375 5.2188-2.4694 3.2818-3.8125 4.8125-2.7525 2.996-4.2188 4.375-2.9831 2.659-4.5625 3.875-3.2236 2.3645-4.9062 3.4062-3.4116 1.9877-5.1875 2.8438-3.6095 1.6222-5.4688 2.2812-3.7549 1.2056-5.6875 1.6562-3.879 0.80023-5.875 1.0312-4.0442 0.34375-6.0938 0.34375-4.0665-0.11273-6.0625-0.34375-3.9736-0.58055-5.9062-1.0312-3.8283-0.99721-5.6875-1.6562-3.6616-1.4252-5.4375-2.2812-3.5049-1.802-5.1875-2.8438-3.3268-2.1902-4.9062-3.4062-3.0963-2.496-4.5625-3.875-2.8756-2.8443-4.2188-4.375-2.6337-3.1415-3.8438-4.8125-2.3392-3.4188-3.4062-5.2188-2.0547-3.6449-2.9688-5.5625-1.7489-3.8823-2.5-5.9062-1.4217-4.0999-2-6.2188-1.0733-4.2975-1.4688-6.5c-0.39186-2.1824-0.7036-4.4028-0.90625-6.6562 2.8316 37.487 28.178 66.844 59.062 66.844 32.781 0 59.375-33.047 59.375-73.812z"/> <path d="m326.06 291.03c-30.884 0-56.23 29.326-59.062 66.812 0.20265-2.2534 0.51439-4.4739 0.90625-6.6562 0.39547-2.2025 0.89047-4.3499 1.4688-6.4688s1.2489-4.1948 2-6.2188 1.5859-3.9886 2.5-5.9062 1.9017-3.7938 2.9688-5.5938 2.1962-3.5478 3.4062-5.2188 2.5006-3.2506 3.8438-4.7812 2.7525-2.996 4.2188-4.375 2.9831-2.6902 4.5625-3.9062 3.2236-2.3333 4.9062-3.375 3.4116-1.9877 5.1875-2.8438 3.5783-1.6222 5.4375-2.2812 3.7549-1.2368 5.6875-1.6875 3.9102-0.76898 5.9062-1 4.013-0.375 6.0625-0.375 4.0977 0.14398 6.0938 0.375 3.9424 0.5493 5.875 1 3.8283 1.0285 5.6875 1.6875 3.6928 1.4252 5.4688 2.2812 3.5049 1.802 5.1875 2.8438 3.3268 2.159 4.9062 3.375 3.0963 2.5272 4.5625 3.9062 2.8756 2.8443 4.2188 4.375 2.6025 3.1103 3.8125 4.7812 2.3705 3.4188 3.4375 5.2188 2.0547 3.6761 2.9688 5.5938 1.7489 3.8823 2.5 5.9062 1.4217 4.0999 2 6.2188 1.0733 4.2662 1.4688 6.4688 0.67229 4.444 0.875 6.7188 0.3125 4.6018 0.3125 6.9375c0-40.766-26.594-73.812-59.375-73.812z" stroke="url(#n)" stroke-width="1.0003"/> </g> <path transform="matrix(.28426 0 0 .35109 268.42 236.41)" d="m400.26 383.1c0 41.816-25.893 75.715-57.833 75.715s-57.833-33.899-57.833-75.715 25.893-75.715 57.833-75.715 57.833 33.899 57.833 75.715z" stroke="#000"/> <path d="m350.72 364.62c-0.27359 1.8927-0.46875 3.8459-0.46875 5.875 0 14.128 7.0302 25.594 15.688 25.594 4.7144 0 8.9076-3.4686 11.781-8.8438-0.16157 0.10137-0.30481 0.24842-0.46875 0.34375-1.1458 0.66628-2.3468 1.1805-3.5938 1.5312s-2.5526 0.53125-3.875 0.53125-2.5968-0.18046-3.8438-0.53125-2.4479-0.86497-3.5938-1.5312-2.2309-1.491-3.25-2.4375-1.9772-2.0274-2.8438-3.2188-1.6553-2.5053-2.3438-3.9062-1.2966-2.8935-1.7812-4.4688-0.83859-3.2232-1.0938-4.9375c-0.19215-1.2909-0.26325-2.6478-0.3125-4z" fill="url(#e)" opacity=".8"/> <path d="m365.87 345.85c-1.4553 0-2.8332 0.47945-4.1786 1.1595 0.25424 0.29593 0.55572 0.49057 0.8009 0.81162 0.88558 1.1596 1.6844 2.4824 2.4375 3.9422 0.75309 1.4597 1.4562 3.0759 2.0545 4.7924 0.59829 1.7165 1.111 3.558 1.5321 5.4881 0.13501 0.61866 0.19739 1.2986 0.31339 1.9324 0.33775-0.11015 0.71417-0.15248 1.0446-0.27053 1.8137-0.64797 3.529-1.4094 5.1536-2.2416 1.4784-0.75728 2.8478-1.6284 4.1438-2.5122-3.0335-7.9069-7.828-13.102-13.302-13.102z" fill="url(#d)" opacity=".8" stroke="#000" stroke-width=".35022"/> <path d="m269.58 673.82c-24.498 0.26904-93.67 6.1974-108.42 58.65-9.6854 34.437 19.759 40.894 25.021 40.894h161.15s39.583-12.896 17.218-52.732c-22.365-39.835-70.472-47.082-94.971-46.813z" fill="url(#w)" stroke="#000" stroke-width="1px"/> <path d="m499.84 674.5c24.498 0.26904 93.67 6.1974 108.42 58.65 9.6854 34.437-19.759 40.894-25.021 40.894h-161.15s-39.583-12.896-17.218-52.732c22.365-39.835 70.472-47.082 94.971-46.813z" fill="url(#v)" stroke="#000" stroke-width="1px"/> <path transform="matrix(1.2422 0 0 .99248 -101.59 -33.446)" d="m341.45 770.95a56.684 44.609 0 1 1-113.37 0 56.684 44.609 0 1 1 113.37 0z" fill="url(#av)" filter="url(#i)" opacity=".6"/> <path transform="matrix(1.1953 0 0 .99248 185.36 -32.938)" d="m341.45 770.95a56.684 44.609 0 1 1-113.37 0 56.684 44.609 0 1 1 113.37 0z" fill="url(#z)" filter="url(#j)" opacity=".6"/> <path d="m323.41 276.5c-43.616 0-79.013 40.725-79.438 91.125 0.25382-2.3247 0.50551-4.6389 0.90625-6.9062 0.52942-2.9953 1.1946-5.9621 1.9688-8.8438s1.682-5.6849 2.6875-8.4375 2.1202-5.4545 3.3438-8.0625 2.5404-5.1144 3.9688-7.5625 2.974-4.8211 4.5938-7.0938 3.3272-4.4494 5.125-6.5312 3.6625-4.0619 5.625-5.9375 4.0111-3.6585 6.125-5.3125 4.3105-3.1769 6.5625-4.5938 4.5607-2.7106 6.9375-3.875 4.8243-2.1973 7.3125-3.0938 5.0075-1.6682 7.5938-2.2812 5.2352-1.092 7.9062-1.4062 5.3825-0.46875 8.125-0.46875 5.4542 0.15452 8.125 0.46875 5.2891 0.79321 7.875 1.4062 5.1374 1.3848 7.625 2.2812 4.9052 1.9294 7.2812 3.0938 4.7176 2.4581 6.9688 3.875 4.4182 2.9398 6.5312 4.5938 4.1634 3.4369 6.125 5.3125 3.8282 3.8556 5.625 5.9375 3.5063 4.2586 5.125 6.5312 3.1664 4.6457 4.5938 7.0938 2.746 4.9545 3.9688 7.5625 2.339 5.3099 3.3438 8.0625 1.914 5.5558 2.6875 8.4375 1.4085 5.8484 1.9375 8.8438 0.94761 6.0314 1.2188 9.125 0.40625 6.2299 0.40625 9.4062c0 0.32543-0.0283 0.6442-0.03125 0.96875 0.42606-3.8356 0.6875-7.7122 0.6875-11.688 0-50.822-35.557-92.031-79.438-92.031z" fill="url(#u)" filter="url(#m)" opacity=".9"/> <g transform="matrix(1 0 0 .71121 119.75 109.66)"> <path transform="matrix(1.0263 0 0 .97487 -25.371 -8.6367)" d="m400.26 383.1c0 41.816-25.893 75.715-57.833 75.715s-57.833-33.899-57.833-75.715 25.893-75.715 57.833-75.715 57.833 33.899 57.833 75.715z" fill="url(#x)" stroke="#000"/> <path d="m311.78 429.7c9.9433 0 19.066-5.5451 26.206-14.777-0.10586 9.2e-4 -0.20808 0.0285-0.31411 0.0285-1.582 0-3.1486-0.1318-4.6893-0.37085-1.5407-0.23906-3.063-0.58914-4.5547-1.0555s-2.9625-1.0582-4.3976-1.7401c-1.4351-0.68195-2.8249-1.4534-4.1957-2.3392s-2.7174-1.8889-4.0162-2.9668-2.5503-2.2505-3.7694-3.5088-2.4133-2.5953-3.545-4.0223-2.2166-2.9234-3.2533-4.5072c-1.0367-1.5839-2.0052-3.2631-2.9392-4.9922-0.93399-1.7291-1.824-3.5005-2.6476-5.3631-0.8236-1.8625-1.583-3.8067-2.2886-5.791s-1.3498-4.0105-1.9296-6.1048c-0.57979-2.0943-1.1018-4.2546-1.5481-6.4471-0.44636-2.1925-0.81659-4.4248-1.1218-6.7038s-0.53908-4.6067-0.69554-6.9606c-0.15647-2.3539-0.24681-4.7433-0.24681-7.1603s0.0903-4.8064 0.24681-7.1603c0.15646-2.3539 0.39029-4.653 0.69554-6.932s0.67548-4.5398 1.1218-6.7324c0.44635-2.1925 0.96835-4.3243 1.5481-6.4186 0.57978-2.0943 1.224-4.149 1.9296-6.1333s1.465-3.8999 2.2886-5.7624c0.80715-1.8253 1.6894-3.5802 2.6027-5.2775-18.286 6.8104-31.905 32.708-31.905 63.701 0 36.181 18.535 65.498 41.418 65.498z" fill="#a8a8a8" filter="url(#q)" opacity=".27132"/> <path d="m326.31 292.44c-13.849 0-26.554 6.0744-36.5 16.188 0.14744-1e-3 0.28982-0.0312 0.4375-0.0312 2.2034 0 4.3854 0.14438 6.5312 0.40625s4.2661 0.64537 6.3438 1.1562 4.1262 1.1592 6.125 1.9062 3.9346 1.5922 5.8438 2.5625 3.7848 2.0692 5.5938 3.25 3.552 2.4653 5.25 3.8438 3.3612 2.8431 4.9375 4.4062 3.0873 3.2024 4.5312 4.9375 2.7929 3.5746 4.0938 5.4688 2.5404 3.8347 3.6875 5.875 2.2048 4.1701 3.1875 6.3438 1.88 4.3933 2.6875 6.6875 1.5346 4.6607 2.1562 7.0625 1.1374 4.8471 1.5625 7.3438 0.75083 5.0464 0.96875 7.625 0.34375 5.1961 0.34375 7.8438-0.12583 5.2652-0.34375 7.8438-0.5436 5.0971-0.96875 7.5938-0.94082 4.9732-1.5625 7.375-1.3487 4.7371-2.1562 7.0312-1.7048 4.5451-2.6875 6.7188-2.0404 4.2722-3.1875 6.3125c-1.1242 1.9996-2.353 3.922-3.625 5.7812 25.469-7.4606 44.438-35.831 44.438-69.781 0-39.635-25.816-71.75-57.688-71.75z" fill="url(#f)"/> <g fill="#767676" opacity=".34496"> <path d="m385.44 364.84c0 2.3357-0.10979 4.6315-0.3125 6.9062s-0.47953 4.5162-0.875 6.7188-0.89047 4.3811-1.4688 6.5-1.2489 4.1948-2 6.2188-1.5859 3.9886-2.5 5.9062-1.9017 3.7625-2.9688 5.5625-2.2275 3.5478-3.4375 5.2188-2.4694 3.2818-3.8125 4.8125-2.7525 2.996-4.2188 4.375-2.9831 2.659-4.5625 3.875-3.2236 2.3645-4.9062 3.4062-3.4116 1.9877-5.1875 2.8438-3.6095 1.6222-5.4688 2.2812-3.7549 1.2056-5.6875 1.6562-3.879 0.80023-5.875 1.0312-4.0442 0.34375-6.0938 0.34375-4.0665-0.11273-6.0625-0.34375-3.9736-0.58055-5.9062-1.0312-3.8283-0.99721-5.6875-1.6562-3.6616-1.4252-5.4375-2.2812-3.5049-1.802-5.1875-2.8438-3.3268-2.1902-4.9062-3.4062-3.0963-2.496-4.5625-3.875-2.8756-2.8443-4.2188-4.375-2.6337-3.1415-3.8438-4.8125-2.3392-3.4188-3.4062-5.2188-2.0547-3.6449-2.9688-5.5625-1.7489-3.8823-2.5-5.9062-1.4217-4.0999-2-6.2188-1.0733-4.2975-1.4688-6.5c-0.39186-2.1824-0.7036-4.4028-0.90625-6.6562 2.8316 37.487 28.178 66.844 59.062 66.844 32.781 0 59.375-33.047 59.375-73.812z"/> <path d="m326.06 291.03c-30.884 0-56.23 29.326-59.062 66.812 0.20265-2.2534 0.51439-4.4739 0.90625-6.6562 0.39547-2.2025 0.89047-4.3499 1.4688-6.4688s1.2489-4.1948 2-6.2188 1.5859-3.9886 2.5-5.9062 1.9017-3.7938 2.9688-5.5938 2.1962-3.5478 3.4062-5.2188 2.5006-3.2506 3.8438-4.7812 2.7525-2.996 4.2188-4.375 2.9831-2.6902 4.5625-3.9062 3.2236-2.3333 4.9062-3.375 3.4116-1.9877 5.1875-2.8438 3.5783-1.6222 5.4375-2.2812 3.7549-1.2368 5.6875-1.6875 3.9102-0.76898 5.9062-1 4.013-0.375 6.0625-0.375 4.0977 0.14398 6.0938 0.375 3.9424 0.5493 5.875 1 3.8283 1.0285 5.6875 1.6875 3.6928 1.4252 5.4688 2.2812 3.5049 1.802 5.1875 2.8438 3.3268 2.159 4.9062 3.375 3.0963 2.5272 4.5625 3.9062 2.8756 2.8443 4.2188 4.375 2.6025 3.1103 3.8125 4.7812 2.3705 3.4188 3.4375 5.2188 2.0547 3.6761 2.9688 5.5938 1.7489 3.8823 2.5 5.9062 1.4217 4.0999 2 6.2188 1.0733 4.2662 1.4688 6.4688 0.67229 4.444 0.875 6.7188 0.3125 4.6018 0.3125 6.9375c0-40.766-26.594-73.812-59.375-73.812z" stroke="url(#n)" stroke-width="1.0003"/> </g> </g> <g transform="matrix(.94946 0 0 .90687 58.261 35.433)"> <path transform="matrix(.28426 0 0 .35109 268.42 236.41)" d="m400.26 383.1c0 41.816-25.893 75.715-57.833 75.715s-57.833-33.899-57.833-75.715 25.893-75.715 57.833-75.715 57.833 33.899 57.833 75.715z" stroke="#000"/> <path d="m350.72 364.62c-0.27359 1.8927-0.46875 3.8459-0.46875 5.875 0 14.128 7.0302 25.594 15.688 25.594 4.7144 0 8.9076-3.4686 11.781-8.8438-0.16157 0.10137-0.30481 0.24842-0.46875 0.34375-1.1458 0.66628-2.3468 1.1805-3.5938 1.5312s-2.5526 0.53125-3.875 0.53125-2.5968-0.18046-3.8438-0.53125-2.4479-0.86497-3.5938-1.5312-2.2309-1.491-3.25-2.4375-1.9772-2.0274-2.8438-3.2188-1.6553-2.5053-2.3438-3.9062-1.2966-2.8935-1.7812-4.4688-0.83859-3.2232-1.0938-4.9375c-0.19215-1.2909-0.26325-2.6478-0.3125-4z" fill="url(#e)" opacity=".8"/> <path d="m365.87 345.85c-1.4553 0-2.8332 0.47945-4.1786 1.1595 0.25424 0.29593 0.55572 0.49057 0.8009 0.81162 0.88558 1.1596 1.6844 2.4824 2.4375 3.9422 0.75309 1.4597 1.4562 3.0759 2.0545 4.7924 0.59829 1.7165 1.111 3.558 1.5321 5.4881 0.13501 0.61866 0.19739 1.2986 0.31339 1.9324 0.33775-0.11015 0.71417-0.15248 1.0446-0.27053 1.8137-0.64797 3.529-1.4094 5.1536-2.2416 1.4784-0.75728 2.8478-1.6284 4.1438-2.5122-3.0335-7.9069-7.828-13.102-13.302-13.102z" fill="url(#d)" opacity=".8" stroke="#000" stroke-width=".35022"/> </g> <path d="m333.61 415.82c-9.9106 7.1514-4.6076 16.712 0.80713 23.406s36.589 41.432 36.589 41.432 4.8427 7.8021 14.17 8.0712c9.3274-0.26904 14.17-8.0712 14.17-8.0712s31.175-34.738 36.589-41.432 9.1035-16.793-0.8071-23.944c-9.9106-7.1514-32.285-14.797-49.952-15.066-17.668 0.26904-41.656 8.4529-51.567 15.604z" fill="url(#s)" stroke="#000" stroke-width="1px"/> <path transform="matrix(.97103 0 0 .97103 11.141 12.898)" d="m345.14 421.55c-7.682 5.5432-3.5715 12.954 0.62564 18.143 4.1971 5.189 28.361 32.115 28.361 32.115s3.7537 6.0477 10.984 6.2562c7.2299-0.20854 10.984-6.2562 10.984-6.2562s24.164-26.926 28.361-32.115 7.0564-13.017-0.62561-18.56c-7.682-5.5432-25.025-11.47-38.72-11.678-13.695 0.20854-32.289 6.5521-39.971 12.095z" fill="#fcff00" filter="url(#ao)" opacity=".64341"/> <path d="m343.02 414.85c-2.0537 1.0716-3.9601 2.1394-5.4244 3.196-9.1351 6.5918-4.2287 15.41 0.76235 21.58 4.991 6.1705 33.719 38.205 33.719 38.205s4.4504 7.1702 13.048 7.4182c6.8978-0.19896 10.997-4.7004 12.403-6.5386-0.1678 0.0791-0.26599 0.18933-0.43981 0.26389-0.81375 0.34908-1.694 0.63334-2.6389 0.85031-0.94487 0.21698-1.9454 0.37997-3.0201 0.41049-1.0747-0.0305-2.0752-0.19351-3.0201-0.41049-0.94487-0.21697-1.8251-0.50123-2.6389-0.85031-1.6275-0.69815-3.0096-1.5919-4.1049-2.4923s-1.9102-1.7953-2.463-2.463c-0.55281-0.66763-0.82099-1.1142-0.82099-1.1142s-7.2047-7.8963-15.012-16.537c-7.8076-8.6407-16.241-18.044-18.736-21.082-1.2478-1.5188-2.4718-3.1861-3.4892-4.9552-0.50869-0.88459-0.97923-1.8077-1.3488-2.7268-0.36954-0.91912-0.64499-1.8506-0.82099-2.7855s-0.24784-1.8534-0.17593-2.7855c0.0719-0.93208 0.30019-1.875 0.67438-2.7855 0.3742-0.91051 0.91112-1.798 1.642-2.6682 0.50066-0.59614 1.2163-1.1601 1.9059-1.7299z" fill="#ffffab" filter="url(#ap)" opacity=".8"/> <path d="m385.13 403.68c-11.031 0.16798-24.474 3.7349-34.98 8.034 0.0414 6e-3 0.0758-6e-3 0.11728 0 3.5808 0.5472 7.3252 1.3087 11.083 2.2577 3.7582 0.94898 7.5196 2.0865 11.083 3.4012 3.5638 1.3147 6.9422 2.8123 9.9398 4.4568 1.7543 1.0331 3.5298 2.1735 5.2778 3.4306 1.748 1.257 3.4588 2.6204 5.1605 4.0463 3.4034 2.8517 6.6972 5.9814 9.6759 9.1775s5.6528 6.4593 7.8873 9.5586c1.1173 1.5496 2.1194 3.0727 2.9907 4.5154s1.6137 2.7949 2.1991 4.0756c0.197 0.43098 0.25593 0.81403 0.41049 1.2315 6.6834-7.5376 13.825-15.61 15.951-18.238 4.991-6.1705 8.4021-15.487-0.73302-22.079-9.1351-6.5918-29.778-13.621-46.063-13.869z" fill="#feffbc" filter="url(#aq)" opacity=".8"/> </svg>