<?xml version='1.0' encoding='utf-8'?>
<svg xmlns="http://www.w3.org/2000/svg" viewBox="0 0 151 136"> <g transform="translate(-771.11 -254.53)"> <path d="m849.64 372.54s-19.464 8.0357-15.179 11.964 6.4286 3.0357 6.4286 3.0357 3.9286 5.8929 15.179 0.89286c0 0 20.179 0.17857 12.679-6.4286 0 0-1.7857-3.9286-5.8929-6.0714 0 0-6.4286-5.8929-13.214-3.3929z" fill="#fc0" stroke="#806600" stroke-width=".5"/> <path d="m867.19 301.81c-10.311 0-18.706 4.7708-19.125 10.719h-0.0312s3.8e-4 0.40463 0 0.46875c-8e-3 1.3558-0.17206 16.028-4.0938 17.562-4.1071 1.6071-8.0312-0.34375-8.0312-0.34375s-1.9331-1.627-2.5312-6.3438c0.0102-0.13309 0.0312-0.27051 0.0312-0.40625 0-0.38853-0.0753-0.76114-0.15625-1.125-0.0128-0.22707-0.0246-0.44871-0.0312-0.6875l-0.15625 0.0312c-0.71861-1.9571-2.5611-3.3438-4.75-3.3438-2.6242 0-4.7874 1.9874-5.0625 4.5625h-0.0312s-5.375 21.241 15.875 29.812h0.0312c-0.24094 1.0683-0.375 2.1628-0.375 3.2812 0 11.013 12.166 19.938 27.156 19.938s27.125-8.9247 27.125-19.938c0-0.0938 2e-3 -0.18778 0-0.28125 0.42968-1.3263 1.7518-5.7905 0.53125-7.4688 0 0 6.9643-2.6607 2.5-9.625 0 0-9.6339-6.0982-9.8125-13.062 0 0-0.68987-6.1485-0.375-10.094 2e-3 -0.0194-2e-3 -0.0432 0-0.0625 0.34408-11.355-12.254-13.364-18.688-13.594z" stroke="#000" stroke-width=".57776"/> <path d="m882.84 322.72-30.875 1.25s-0.27088 5.5834-2.8438 9.7188c-4.4627 4.1329-7.2188 9.8839-7.2188 16.25 0 12.579 10.793 22.781 24.125 22.781 13.244 0 24.015-10.067 24.156-22.531-12.771 6.1619-26.625 0.75-26.625 0.75s-14.094-8.7679 2.1562-7.875c11.172 0.61383 16.922-3.9906 19.438-6.9375-0.0901-0.11069-0.15787-0.23464-0.25-0.34375-1.5413-2.4314-4.1572-7.695-2.0625-13.062z" fill="#fff" stroke="#000" stroke-width=".61871"/> <path d="m865.18 319.77c0 3.797-3.198 6.875-7.1428 6.875s-7.1429-3.078-7.1429-6.875 3.198-6.875 7.1429-6.875 7.1428 3.078 7.1428 6.875z" fill="#fff" stroke="#000" stroke-width=".348"/> <path transform="translate(18.036 -.53571)" d="m865.18 319.77c0 3.797-3.198 6.875-7.1428 6.875s-7.1429-3.078-7.1429-6.875 3.198-6.875 7.1429-6.875 7.1428 3.078 7.1428 6.875z" fill="#fff" stroke="#000" stroke-width=".348"/> <path d="m858.03125,317.1875c-.22528,0-.44254.0236-.65625.0625l.34375,4-3.21875-.84375c-.007.0861-.0312.16232-.0312.25 0,1.92313 1.59005,3.5 3.5625,3.5s3.5625-1.57687 3.5625-3.5-1.59005-3.46875-3.5625-3.46875z" stroke="#000"/> <path d="m875.35268,317.1875c-.22528,0-.44254.0236-.65625.0625l.34375,4-3.21875-.84375c-.007.0861-.0312.16232-.0312.25 0,1.92313 1.59005,3.5 3.5625,3.5s3.5625-1.57687 3.5625-3.5-1.59005-3.46875-3.5625-3.46875z" stroke="#000"/> <path d="m853.9 329.21s1.9377-0.0217 3.902 1.2283 9.2857 6.9643 20.357-0.35714c0 0 2.8571-0.17858 3.3928-1.25 0 0-9.2857-0.53572-11.786 0.71428 0 0-2.5 1.0714-4.1071-0.17857 0 0-3.902-1.2283-11.759-0.1569z" fill="#a80" stroke="#540" stroke-width=".4"/> <path d="m862.86 321.92s3.9286-2.0536 8.8393 0c0 0 2.1429 2.6786 7.8571 4.2857 0 0 2.7679-0.17858 2.1429 2.4107 0 0-9.5536 0.17857-11.339 0.98214 0 0-2.2322 1.3393-5.2679 0.0893 0 0-7.5893-1.875-11.071-0.53573 0 0-0.71429-2.3214 1.875-3.5714 0 0 5-0.89286 6.9643-3.6607z" fill="#fc0" stroke="#540" stroke-width=".4"/> <path d="m862.77 343.34-36.339-27.411-3.9286 3.2143 39.286 28.214z" fill="#b3b3b3" stroke="#000"/> <path d="m921.79 289.51s-11.786 20-58.571 16.429c0 0-28.929 2.5-40.714 13.571l-51.071-41.786s16.071-13.214 47.143-15c0 0 37.143 0.71429 46.429-7.8571 0 0 12.857 26.429 56.786 34.643z" fill="#f00" stroke="#800000"/> <path d="m879.46 380.4s8.9286 3.3928 18.929-5.3572c0 0 11.786-1.7857 11.786-5.3571 0 0 0.17857-4.6429-5.3571-6.0714 0 0-1.25-8.75-11.25-8.0357 0 0-12.143-5.5357-13.393 0.89285 0 0-10.179 22.5-0.71428 23.929z" fill="#fc0" stroke="#806600" stroke-width=".5"/> <path d="m828.3125,318.34375c-2.62425,0-4.78739,1.98744-5.0625,4.5625h-.0312c0,0-.39108,1.69336-.53125,4.28125l10.53125,7.5 2.65625-4.5c-.0923-.0802-1.91681-1.71363-2.5-6.3125 .0102-.13309.0312-.27051.0312-.40625 0-.38853-.0753-.76114-.15625-1.125-.0128-.22707-.0246-.44871-.0312-.6875l-.15625.0312c-.71861-1.95708-2.56114-3.34375-4.75-3.34375z" stroke="#000" stroke-width=".57776"/> <path d="m867.19 301.81c-8.0189 0-14.868 2.8883-17.719 6.9688l18.75-0.71875 5.5312-0.34375 8.9375-0.34375 1.8438 2.0312c-3.3674-6.1116-12.269-7.4122-17.344-7.5938z" stroke="#000" stroke-width=".57776"/> <path d="m862.77 345.09c0 1.3314-1.1193 2.4107-2.5 2.4107s-2.5-1.0793-2.5-2.4107 1.1193-2.4107 2.5-2.4107 2.5 1.0793 2.5 2.4107z"/> </g> </svg>