<?xml version='1.0' encoding='utf-8'?>
<svg xmlns:xlink="http://www.w3.org/1999/xlink" xmlns="http://www.w3.org/2000/svg" viewBox="0 0 744.09 1052.4"> <defs> <linearGradient id="a"> <stop stop-color="#fcffff" offset="0"/> <stop stop-color="#fff" stop-opacity="0" offset="1"/> </linearGradient> <linearGradient id="e"> <stop stop-opacity="0" offset="0"/> <stop stop-opacity=".91613" offset="1"/> </linearGradient> <linearGradient id="b"> <stop stop-color="#fff" offset="0"/> <stop stop-color="#fff" stop-opacity=".02581" offset="1"/> </linearGradient> <linearGradient id="g" x2="0" y1="716.36" y2="892.42" gradientUnits="userSpaceOnUse"> <stop stop-opacity=".99355" offset="0"/> <stop stop-opacity=".21935" offset="1"/> </linearGradient> <linearGradient id="z" x1="-443.26" x2="-93.965" gradientUnits="userSpaceOnUse"> <stop stop-color="#ff5014" offset="0"/> <stop stop-color="#ffeb14" stop-opacity="0" offset="1"/> </linearGradient> <linearGradient id="f" x1="-399.63" x2="-325.63" y1="739.63" y2="835.1" gradientUnits="userSpaceOnUse"> <stop stop-color="#e59621" offset="0"/> <stop stop-color="#e59621" stop-opacity=".13548" offset="1"/> </linearGradient> <linearGradient id="aa" x1="387.22" x2="496.32" y1="451.83" y2="389.09" gradientTransform="matrix(5.3541 0 0 3.511 -2066 -937.15)" gradientUnits="userSpaceOnUse" xlink:href="#b"/> <linearGradient id="c" x1="145.37" x2="365.71" y1="418.08" y2="627.18" gradientUnits="userSpaceOnUse" xlink:href="#b"/> <linearGradient id="y" x1="-443.26" x2="-93.965" gradientUnits="userSpaceOnUse" xlink:href="#b"/> <linearGradient id="x" x1="231.03" x2="470.63" y1="396.42" y2="401.82" gradientTransform="matrix(.91555 .19581 -.40221 .4457 111.07 -35.313)" gradientUnits="userSpaceOnUse" xlink:href="#b"/> <linearGradient id="w" x1="387.22" x2="496.32" y1="451.83" y2="389.09" gradientTransform="matrix(1.7937 0 0 1.7449 -299.13 -367.14)" gradientUnits="userSpaceOnUse" xlink:href="#b"/> <linearGradient id="v" x1="513.01" x2="622.1" y1="611.94" y2="549.2" gradientUnits="userSpaceOnUse" xlink:href="#b"/> <linearGradient id="u" x1="387.22" x2="496.32" y1="451.83" y2="389.09" gradientTransform="matrix(1.7937 0 0 1.7449 -580.96 -378.25)" gradientUnits="userSpaceOnUse" xlink:href="#b"/> <linearGradient id="t" x1="156.42" x2="265.52" y1="491.73" y2="428.99" gradientUnits="userSpaceOnUse" xlink:href="#b"/> <radialGradient id="d" cx="-190" cy="834.32" r="99.253" gradientTransform="matrix(1 0 0 .85952 -162.12 92.673)" gradientUnits="userSpaceOnUse"> <stop stop-color="#e59621" stop-opacity=".10968" offset="0"/> <stop stop-color="#e59621" offset="1"/> </radialGradient> <radialGradient id="s" cx="208" cy="857.36" r="94" gradientTransform="matrix(1 -1.6195e-17 1.5895e-15 1.5 -8.1754e-14 -428.68)" gradientUnits="userSpaceOnUse" xlink:href="#e"/> <radialGradient id="r" cx="208" cy="857.36" r="94" gradientTransform="matrix(1 -1.2287e-15 2.449e-16 1.5 -6.8052e-14 -428.68)" gradientUnits="userSpaceOnUse" xlink:href="#a"/> <radialGradient id="q" cx="208" cy="857.36" r="94" gradientTransform="matrix(1 -8.6804e-17 1.1408e-15 1.5 2.5464e-13 -428.68)" gradientUnits="userSpaceOnUse" xlink:href="#e"/> <radialGradient id="p" cx="208" cy="857.36" r="94" gradientTransform="matrix(1 -1.777e-15 3.5756e-17 1.5 2.3931e-13 -428.68)" gradientUnits="userSpaceOnUse" xlink:href="#a"/> <radialGradient id="o" cx="208" cy="857.36" r="94" gradientTransform="matrix(1 -1.071e-15 1.1595e-15 1.5 1.8306e-12 -428.68)" gradientUnits="userSpaceOnUse" xlink:href="#a"/> <radialGradient id="n" cx="208" cy="857.36" r="94" gradientTransform="matrix(1 -1.1854e-15 1.2076e-15 1.5 2.3581e-12 -428.68)" gradientUnits="userSpaceOnUse" xlink:href="#a"/> <radialGradient id="m" cx="208" cy="857.36" r="94" gradientTransform="matrix(1 -1.2998e-15 1.2557e-15 1.5 -2.2504e-12 -428.68)" gradientUnits="userSpaceOnUse" xlink:href="#a"/> <radialGradient id="l" cx="208" cy="857.36" r="94" gradientTransform="matrix(1 -2.5153e-16 4.9544e-16 1.5 -1.9371e-12 -428.68)" gradientUnits="userSpaceOnUse" xlink:href="#a"/> <radialGradient id="k" cx="208" cy="857.36" r="94" gradientTransform="matrix(1 -1.2426e-15 1.2316e-15 1.5 2.1937e-12 -428.68)" gradientUnits="userSpaceOnUse" xlink:href="#a"/> <radialGradient id="j" cx="208" cy="857.36" r="94" gradientTransform="matrix(1 -1.357e-15 1.2797e-15 1.5 2.5775e-12 -428.68)" gradientUnits="userSpaceOnUse" xlink:href="#a"/> <radialGradient id="i" cx="208" cy="857.36" r="94" gradientTransform="matrix(1 -1.4714e-15 1.3278e-15 1.5 -1.9981e-12 -428.68)" gradientUnits="userSpaceOnUse" xlink:href="#a"/> <radialGradient id="h" cx="208" cy="857.36" r="94" gradientTransform="matrix(1 -7.8285e-16 4.98e-16 1.5 -1.5155e-12 -428.68)" gradientUnits="userSpaceOnUse" xlink:href="#a"/> </defs> <g transform="matrix(.63046 0 0 .63046 143.65 170.77)"> <path transform="matrix(-.72417 .84579 1.3444 1.0685 -957.59 -464.55)" d="m302 857.36a94 141 0 1 1-188 0 94 141 0 1 1 188 0z" fill="url(#g)"/> <path transform="matrix(-.72417 .84579 1.3444 1.0685 -960.24 -467.62)" d="m302 857.36a94 141 0 1 1-188 0 94 141 0 1 1 188 0z" fill="url(#s)"/> <path transform="matrix(-.44797 .52322 .28226 .22433 -253.46 204.45)" d="m302 857.36a94 141 0 1 1-188 0 94 141 0 1 1 188 0z" fill="url(#r)"/> <path transform="matrix(.72417 .84579 -1.3444 1.0685 1682.1 -434.71)" d="m302 857.36a94 141 0 1 1-188 0 94 141 0 1 1 188 0z" fill="url(#g)"/> <path transform="matrix(.72417 .84579 -1.3444 1.0685 1684.8 -437.77)" d="m302 857.36a94 141 0 1 1-188 0 94 141 0 1 1 188 0z" fill="url(#q)"/> <path transform="matrix(.44797 .52322 -.28226 .22433 977.99 234.29)" d="m302 857.36a94 141 0 1 1-188 0 94 141 0 1 1 188 0z" fill="url(#p)"/> <path transform="matrix(2.985 0 0 1.8333 -1185.2 -89.386)" d="m654.58 450.31a134.35 181.83 0 1 1-268.7 0 134.35 181.83 0 1 1 268.7 0z"/> <path d="m352.44 431.2c-123-20.834-297.58 107.17-328.67 204.6-36.566 101.17-16.065 238.82 98.598 292.02 99.812 43.437 40.897-166.92 88.822-246.29 66.666-103.24 125.35-120.15 190.89-206.49 2.3476-44.495-4.542-40.416-49.64-43.833z" fill="url(#aa)"/> <path transform="matrix(2.985 0 0 2.4485 -404.11 -532.91)" d="m365.71 525.22a107.14 107.14 0 1 1-214.29 0 107.14 107.14 0 1 1 214.29 0z"/> <path transform="matrix(2.985 0 0 2.4485 -404.11 -532.91)" d="m365.71 525.22a107.14 107.14 0 1 1-214.29 0 107.14 107.14 0 1 1 214.29 0z" fill="url(#c)"/> <path d="m372.29 558.94c73.862 0.35838 113.96-25.587 167-63.241 72.122-50.531 146.23-113.08 147.97-186.78 2.4847-74.334-33.14-150.28-103.09-204.14-51.971-40.668-124.5-67.333-200.02-69.282-71.556-2.5091-142.66 17.246-196.76 51.582-71.908 45.098-115.43 112.82-124.65 182.45-10.819 77.096 47.218 148.02 115.52 207.32 48.539 42.582 78.019 74.738 152.83 80.953 10.659 0.93785 30.475 1.1204 41.2 1.1299z"/> <path transform="matrix(1 0 0 .8031 635.34 250.76)" d="m-153.54 387.68c-99.309 171.53-131.58 171.5-230.47-0.27587s-82.732-199.7 115.48-199.46 214.31 28.2 115 199.73z" fill="#ffeb14"/> <path transform="matrix(1 0 0 .8031 635.34 250.76)" d="m-153.54 387.68c-99.309 171.53-131.58 171.5-230.47-0.27587s-82.732-199.7 115.48-199.46 214.31 28.2 115 199.73z" fill="url(#z)"/> <path transform="matrix(.34545 -.14094 .31401 .70988 290.25 254.07)" d="m-153.54 387.68c-99.309 171.53-131.58 171.5-230.47-0.27587s-82.732-199.7 115.48-199.46 214.31 28.2 115 199.73z" fill="url(#y)"/> <path d="m397.89 51.086c-29.697-6.0069-88.23-5.5804-130.04 13.036-56.494 24.908-104.12 54.907-144.65 99.346-41.177 44.764-55.683 107.63-56.478 145.69-0.94653 28.671 56.419 107.05 85.927 114.15 27.601 7.1269 24.626-55.816 65.073-72.342 53.471-21.639 107.68-59.185 149.05-100.58 46.042-45.781 60.888-93.229 65.292-134.45 3.3698-29.559 8.8179-51.319-18.1-60.942-3.8067-1.4028-11.727-3.0667-16.062-3.913z" fill="url(#x)"/> <g transform="translate(-36.365 -167.69)"> <path transform="matrix(1 0 0 .91111 -4.0406 54.17)" d="m654.58 450.31a134.35 181.83 0 1 1-268.7 0 134.35 181.83 0 1 1 268.7 0z"/> <path d="m511.08 312.88c-41.207-10.354-99.694 53.261-110.11 101.68-12.25 50.281-5.3821 118.69 33.032 145.12 33.438 21.587 13.701-82.957 29.756-122.4 22.334-51.305 41.995-59.711 63.952-102.62 0.78647-22.112-1.5216-20.086-16.63-21.784z" fill="url(#w)"/> <g transform="translate(-74.751 -109.1)"> <path transform="translate(332.37 100.18)" d="m365.71 525.22a107.14 107.14 0 1 1-214.29 0 107.14 107.14 0 1 1 214.29 0z"/> <path transform="translate(332.37 100.18)" d="m365.71 525.22a107.14 107.14 0 1 1-214.29 0 107.14 107.14 0 1 1 214.29 0z" fill="url(#c)"/> <path transform="matrix(.86329 0 0 .86329 374.79 179.45)" d="m365.71 525.22a107.14 107.14 0 1 1-214.29 0 107.14 107.14 0 1 1 214.29 0z" fill="#b7b7b7"/> <path d="m577.48 549.84c-22.973-5.9338-55.58 30.525-61.387 58.275-6.8295 28.816-3.0005 68.022 18.415 83.172 18.642 12.372 7.6384-47.543 16.589-70.149 12.451-29.404 23.412-34.221 35.653-58.813 0.43846-12.673-0.84832-11.511-9.2714-12.485z" fill="url(#v)"/> <g transform="translate(-35.86 44.447)"> <path transform="matrix(1.4892 0 0 1.4892 87.028 -76.804)" d="m386.89 466.73a35.103 35.103 0 1 1-70.206 0 35.103 35.103 0 1 1 70.206 0z"/> <path d="m587.98 575.86c-14.099 1.0025-26.257 26.745-24.702 42.849 1.1601 16.869 10.198 37.411 25.025 41.688 12.763 3.2812 5.7441-25.566 6.8769-39.46 4.1086-16.798 10.287-24.29 12.943-39.863-1.9685-6.9477-15.183-6.2332-20.142-5.2141z" fill="#fff" fill-opacity=".33929"/> </g> </g> </g> <g transform="matrix(.85113 0 0 .85113 50.99 -84.802)"> <path transform="matrix(1 0 0 .91111 -285.87 43.058)" d="m654.58 450.31a134.35 181.83 0 1 1-268.7 0 134.35 181.83 0 1 1 268.7 0z"/> <path d="m229.25 301.77c-41.207-10.354-99.694 53.261-110.11 101.68-12.25 50.281-5.3821 118.69 33.032 145.12 33.438 21.587 13.701-82.957 29.756-122.4 22.334-51.305 41.995-59.711 63.952-102.62 0.78647-22.112-1.5216-20.086-16.63-21.784z" fill="url(#u)"/> <path transform="translate(-24.21 -20.029)" d="m365.71 525.22a107.14 107.14 0 1 1-214.29 0 107.14 107.14 0 1 1 214.29 0z"/> <path transform="translate(-24.21 -20.029)" d="m365.71 525.22a107.14 107.14 0 1 1-214.29 0 107.14 107.14 0 1 1 214.29 0z" fill="url(#c)"/> <path transform="matrix(.86329 0 0 .86329 18.206 59.246)" d="m365.71 525.22a107.14 107.14 0 1 1-214.29 0 107.14 107.14 0 1 1 214.29 0z" fill="#b7b7b7"/> <path d="m220.89 429.63c-22.973-5.9338-55.58 30.525-61.387 58.275-6.8295 28.816-3.0005 68.022 18.415 83.172 18.642 12.372 7.6384-47.543 16.589-70.149 12.451-29.404 23.412-34.221 35.653-58.813 0.43846-12.673-0.84832-11.511-9.2714-12.485z" fill="url(#t)"/> <g transform="translate(-350.44 -73.761)"> <path transform="matrix(1.4892 0 0 1.4892 87.028 -76.804)" d="m386.89 466.73a35.103 35.103 0 1 1-70.206 0 35.103 35.103 0 1 1 70.206 0z"/> <path d="m587.98 575.86c-14.099 1.0025-26.257 26.745-24.702 42.849 1.1601 16.869 10.198 37.411 25.025 41.688 12.763 3.2812 5.7441-25.566 6.8769-39.46 4.1086-16.798 10.287-24.29 12.943-39.863-1.9685-6.9477-15.183-6.2332-20.142-5.2141z" fill="#fff" fill-opacity=".33929"/> </g> </g> <g transform="matrix(1.7597 0 0 1.7929 790.94 -502.54)"> <path d="m-279.79 771.33c19.084 25.016 7.1464 66.241-26.647 92.022s-76.708 26.401-95.792 1.3852-7.1464-66.241 26.647-92.022 76.708-26.401 95.792-1.3852zm-99.751 30.819c11.718 15.36 4.1319 40.87-16.934 56.941s-47.673 16.647-59.391 1.2868-4.1319-40.87 16.934-56.941 47.673-16.647 59.391-1.2868zm40.49-62.334c11.718 15.36 4.1319 40.87-16.934 56.941s-47.673 16.647-59.391 1.2868-4.1319-40.87 16.934-56.941 47.673-16.647 59.391-1.2868zm70.67-16.18c11.718 15.36 4.1319 40.87-16.934 56.941s-47.673 16.647-59.391 1.2868-4.1319-40.87 16.934-56.941 47.673-16.647 59.391-1.2868z" fill="#fff"/> <path d="m-279.79 771.33c19.084 25.016 7.1464 66.241-26.647 92.022s-76.708 26.401-95.792 1.3852-7.1464-66.241 26.647-92.022 76.708-26.401 95.792-1.3852zm-99.751 30.819c11.718 15.36 4.1319 40.87-16.934 56.941s-47.673 16.647-59.391 1.2868-4.1319-40.87 16.934-56.941 47.673-16.647 59.392-1.2868zm40.49-62.334c11.718 15.36 4.1319 40.87-16.934 56.941s-47.673 16.647-59.391 1.2868-4.1319-40.87 16.934-56.941 47.673-16.647 59.392-1.2868zm70.67-16.18c11.718 15.36 4.1319 40.87-16.934 56.941s-47.673 16.647-59.391 1.2868-4.1319-40.87 16.934-56.941 47.673-16.647 59.392-1.2868z" fill="url(#f)"/> <path d="m-279.79 771.33c19.084 25.016 7.1464 66.241-26.647 92.022s-76.708 26.401-95.792 1.3852-7.1464-66.241 26.647-92.022 76.708-26.401 95.792-1.3852zm-99.751 30.819c11.718 15.36 4.1319 40.87-16.934 56.941s-47.673 16.647-59.391 1.2868-4.1319-40.87 16.934-56.941 47.673-16.647 59.392-1.2868zm40.49-62.334c11.718 15.36 4.1319 40.87-16.934 56.941s-47.673 16.647-59.391 1.2868-4.1319-40.87 16.934-56.941 47.673-16.647 59.392-1.2868zm70.67-16.18c11.718 15.36 4.1319 40.87-16.934 56.941s-47.673 16.647-59.391 1.2868-4.1319-40.87 16.934-56.941 47.673-16.647 59.391-1.2868z" fill="url(#d)"/> <path transform="matrix(-.2739 .20064 .10428 .14236 -456.56 674)" d="m302 857.36a94 141 0 1 1-188 0 94 141 0 1 1 188 0z" fill="url(#o)"/> <path transform="matrix(-.2739 .20064 .10428 .14236 -418.56 598)" d="m302 857.36a94 141 0 1 1-188 0 94 141 0 1 1 188 0z" fill="url(#n)"/> <path transform="matrix(-.2739 .20064 .10428 .14236 -338.56 584)" d="m302 857.36a94 141 0 1 1-188 0 94 141 0 1 1 188 0z" fill="url(#m)"/> <path transform="matrix(-.26466 .16421 .10077 .11651 -356.47 708.74)" d="m302 857.36a94 141 0 1 1-188 0 94 141 0 1 1 188 0z" fill="url(#l)"/> </g> <g transform="matrix(-1.7597 0 0 1.7929 -67.516 -491.12)"> <path d="m-279.79 771.33c19.084 25.016 7.1464 66.241-26.647 92.022s-76.708 26.401-95.792 1.3852-7.1464-66.241 26.647-92.022 76.708-26.401 95.792-1.3852zm-99.751 30.819c11.718 15.36 4.1319 40.87-16.934 56.941s-47.673 16.647-59.391 1.2868-4.1319-40.87 16.934-56.941 47.673-16.647 59.391-1.2868zm40.49-62.334c11.718 15.36 4.1319 40.87-16.934 56.941s-47.673 16.647-59.391 1.2868-4.1319-40.87 16.934-56.941 47.673-16.647 59.391-1.2868zm70.67-16.18c11.718 15.36 4.1319 40.87-16.934 56.941s-47.673 16.647-59.391 1.2868-4.1319-40.87 16.934-56.941 47.673-16.647 59.391-1.2868z" fill="#fff"/> <path d="m-279.79 771.33c19.084 25.016 7.1464 66.241-26.647 92.022s-76.708 26.401-95.792 1.3852-7.1464-66.241 26.647-92.022 76.708-26.401 95.792-1.3852zm-99.751 30.819c11.718 15.36 4.1319 40.87-16.934 56.941s-47.673 16.647-59.391 1.2868-4.1319-40.87 16.934-56.941 47.673-16.647 59.392-1.2868zm40.49-62.334c11.718 15.36 4.1319 40.87-16.934 56.941s-47.673 16.647-59.391 1.2868-4.1319-40.87 16.934-56.941 47.673-16.647 59.392-1.2868zm70.67-16.18c11.718 15.36 4.1319 40.87-16.934 56.941s-47.673 16.647-59.391 1.2868-4.1319-40.87 16.934-56.941 47.673-16.647 59.392-1.2868z" fill="url(#f)"/> <path d="m-279.79 771.33c19.084 25.016 7.1464 66.241-26.647 92.022s-76.708 26.401-95.792 1.3852-7.1464-66.241 26.647-92.022 76.708-26.401 95.792-1.3852zm-99.751 30.819c11.718 15.36 4.1319 40.87-16.934 56.941s-47.673 16.647-59.391 1.2868-4.1319-40.87 16.934-56.941 47.673-16.647 59.392-1.2868zm40.49-62.334c11.718 15.36 4.1319 40.87-16.934 56.941s-47.673 16.647-59.391 1.2868-4.1319-40.87 16.934-56.941 47.673-16.647 59.392-1.2868zm70.67-16.18c11.718 15.36 4.1319 40.87-16.934 56.941s-47.673 16.647-59.391 1.2868-4.1319-40.87 16.934-56.941 47.673-16.647 59.391-1.2868z" fill="url(#d)"/> <path transform="matrix(-.2739 .20064 .10428 .14236 -456.56 674)" d="m302 857.36a94 141 0 1 1-188 0 94 141 0 1 1 188 0z" fill="url(#k)"/> <path transform="matrix(-.2739 .20064 .10428 .14236 -418.56 598)" d="m302 857.36a94 141 0 1 1-188 0 94 141 0 1 1 188 0z" fill="url(#j)"/> <path transform="matrix(-.2739 .20064 .10428 .14236 -338.56 584)" d="m302 857.36a94 141 0 1 1-188 0 94 141 0 1 1 188 0z" fill="url(#i)"/> <path transform="matrix(-.26466 .16421 .10077 .11651 -356.47 708.74)" d="m302 857.36a94 141 0 1 1-188 0 94 141 0 1 1 188 0z" fill="url(#h)"/> </g> </g> </svg>